<svg width="996" height="562" fill="none" xmlns="http://www.w3.org/2000/svg"><g style="mix-blend-mode:multiply" opacity=".5"><path opacity=".22" d="M429.967 340.53h-13.851v13.851h13.851V340.53z" fill="#F2F2F2"/><path opacity=".16" d="M443.818 340.53h-13.851v13.851h13.851V340.53z" fill="#CCC"/><path d="M325.789 32.112h-13.851v13.85h13.851v-13.85z" fill="#fff"/><path opacity=".05" d="M353.491 32.112H339.64v13.85h13.851v-13.85z" fill="#B3B3B3"/><path opacity=".03" d="M367.342 32.112h-13.851v13.85h13.851v-13.85z" fill="#F2F2F2"/><path opacity=".22" d="M353.491 45.963H339.64v13.85h13.851v-13.85zm13.851 0h-13.851v13.85h13.851v-13.85zm13.851 0h-13.851v13.85h13.851v-13.85zM339.64 59.814h-13.851v13.85h13.851v-13.85zm13.851 0H339.64v13.85h13.851v-13.85zm13.851 0h-13.851v13.85h13.851v-13.85z" fill="#F2F2F2"/><path opacity=".22" d="M325.789 73.665h-13.851v13.851h13.851V73.665z" fill="#fff"/><path opacity=".22" d="M339.64 73.665h-13.851v13.851h13.851V73.665zm13.851 0H339.64v13.851h13.851V73.665z" fill="#F2F2F2"/><path opacity=".22" d="M367.342 73.665h-13.851v13.851h13.851V73.665z" fill="#fff"/><path opacity=".14" d="M381.193 73.665h-13.851v13.851h13.851V73.665z" fill="#F2F2F2"/><path opacity=".22" d="M325.789 87.516h-13.851v13.851h13.851V87.516z" fill="#F2F2F2"/><path opacity=".11" d="M353.491 87.516H339.64v13.851h13.851V87.516z" fill="#F2F2F2"/><path opacity=".22" d="M367.342 87.516h-13.851v13.851h13.851V87.516z" fill="#F2F2F2"/><path opacity=".14" d="M381.193 87.516h-13.851v13.851h13.851V87.516z" fill="#F2F2F2"/><path opacity=".22" d="M325.789 101.367h-13.851v13.851h13.851v-13.851zm13.851 0h-13.851v13.851h13.851v-13.851z" fill="#F2F2F2"/><path opacity=".22" d="M353.491 101.367H339.64v13.851h13.851v-13.851z" fill="#fff"/><path opacity=".22" d="M367.342 101.367h-13.851v13.851h13.851v-13.851z" fill="#F2F2F2"/><path opacity=".14" d="M381.193 101.367h-13.851v13.851h13.851v-13.851z" fill="#F2F2F2"/><path opacity=".22" d="M325.789 115.218h-13.851v13.851h13.851v-13.851z" fill="#F2F2F2"/><path opacity=".22" d="M339.64 115.218h-13.851v13.851h13.851v-13.851z" fill="#E6E6E6"/><path opacity=".22" d="M353.491 115.218H339.64v13.851h13.851v-13.851z" fill="#fff"/><path opacity=".22" d="M367.342 115.218h-13.851v13.851h13.851v-13.851z" fill="#E6E6E6"/><path opacity=".32" d="M325.789 129.069h-13.851v13.851h13.851v-13.851z" fill="#F2F2F2"/><path opacity=".32" d="M339.64 129.069h-13.851v13.851h13.851v-13.851z" fill="#fff"/><path opacity=".32" d="M353.491 129.069H339.64v13.851h13.851v-13.851zm13.851 0h-13.851v13.851h13.851v-13.851z" fill="#F2F2F2"/><path opacity=".14" d="M381.193 129.069h-13.851v13.851h13.851v-13.851z" fill="#F2F2F2"/><path opacity=".05" d="M325.789 142.92h-13.851v13.852h13.851V142.92z" fill="#B3B3B3"/><path opacity=".32" d="M339.64 142.92h-13.851v13.852h13.851V142.92z" fill="#F2F2F2"/><path opacity=".05" d="M353.491 142.92H339.64v13.852h13.851V142.92z" fill="#B3B3B3"/><path opacity=".32" d="M367.342 142.92h-13.851v13.852h13.851V142.92z" fill="#F2F2F2"/><path opacity=".14" d="M381.193 142.92h-13.851v13.852h13.851V142.92z" fill="#fff"/><path opacity=".32" d="M325.789 156.771h-13.851v13.852h13.851v-13.852z" fill="#F2F2F2"/><path opacity=".32" d="M339.64 156.771h-13.851v13.852h13.851v-13.852z" fill="#fff"/><path opacity=".32" d="M367.342 156.771h-13.851v13.852h13.851v-13.852z" fill="#F2F2F2"/><path d="M381.193 156.771h-13.851v13.852h13.851v-13.852z" fill="#F2F2F2"/><path opacity=".03" d="M395.045 32.112h-13.852v13.85h13.852v-13.85z" fill="#B3B3B3"/><path opacity=".53" d="M422.747 32.112h-13.851v13.85h13.851v-13.85z" fill="#F2F2F2"/><path opacity=".11" d="M436.598 32.112h-13.851v13.85h13.851v-13.85z" fill="#F2F2F2"/><path opacity=".21" d="M492.002 32.112h-13.851v13.85h13.851v-13.85zm13.851 0h-13.851v13.85h13.851v-13.85z" fill="#F2F2F2"/><path opacity=".21" d="M519.704 32.112h-13.851v13.85h13.851v-13.85zm13.852 0h-13.852v13.85h13.852v-13.85z" fill="#F2F2F2"/><path opacity=".22" d="M395.045 45.963h-13.852v13.85h13.852v-13.85z" fill="#F2F2F2"/><path opacity=".21" d="M505.853 45.963h-13.851v13.85h13.851v-13.85z" fill="#F2F2F2"/><path opacity=".21" d="M519.704 45.963h-13.851v13.85h13.851v-13.85zm13.852 0h-13.852v13.85h13.852v-13.85z" fill="#F2F2F2"/><path opacity=".05" d="M395.045 59.814h-13.852v13.85h13.852v-13.85z" fill="#F2F2F2"/><path d="M408.896 59.814h-13.852v13.85h13.852v-13.85z" fill="#F2F2F2"/><path opacity=".05" d="M408.896 59.814h13.851v13.85h-13.851m27.702-13.85h-13.851v13.85h13.851v-13.85z" fill="#F2F2F2"/><path opacity=".11" d="M478.151 59.814H464.3v13.85h13.851v-13.85zm13.851 0h-13.851v13.85h13.851v-13.85z" fill="#F2F2F2"/><path opacity=".05" d="M505.853 59.814h-13.851v13.85h13.851v-13.85z" fill="#E6E6E6"/><path d="M519.704 59.814h-13.851v13.85h13.851v-13.85zm13.852 0h-13.852v13.85h13.852v-13.85z" fill="#fff"/><path opacity=".14" d="M395.045 73.665h-13.852v13.851h13.852V73.665z" fill="#F2F2F2"/><path opacity=".14" d="M408.896 73.665h-13.852v13.851h13.852V73.665zm13.851 0h-13.851v13.851h13.851V73.665z" fill="#F2F2F2"/><path opacity=".14" d="M436.598 73.665v13.851h-13.851V73.665" fill="#E6E6E6"/><path opacity=".11" d="M492.002 73.665h-13.851v13.851h13.851V73.665z" fill="#F2F2F2"/><path d="M505.853 73.665h-13.851v13.851h13.851V73.665z" fill="#F2F2F2"/><path opacity=".21" d="M519.704 73.665h-13.851v13.851h13.851V73.665z" fill="#F2F2F2"/><path d="M533.556 73.665h-13.852v13.851h13.852V73.665z" fill="#F2F2F2"/><path opacity=".14" d="M395.045 87.516h-13.852v13.851h13.852V87.516z" fill="#CCC"/><path opacity=".14" d="M408.896 87.516h-13.852v13.851h13.852V87.516zm13.851 0h-13.851v13.851h13.851V87.516zm13.851 0h-13.851v13.851h13.851V87.516zm13.851 0h-13.851v13.851h13.851V87.516zm13.851 0h-13.851v13.851H464.3V87.516zm13.851 0H464.3v13.851h13.851V87.516z" fill="#F2F2F2"/><path d="M505.853 87.516h-13.851v13.851h13.851V87.516z" fill="#F2F2F2"/><path opacity=".21" d="M519.704 87.516h-13.851v13.851h13.851V87.516zm13.852 0h-13.852v13.851h13.852V87.516z" fill="#F2F2F2"/><path opacity=".14" d="M395.045 101.367h-13.852v13.851h13.852v-13.851zm55.404 0h-13.851v13.851h13.851v-13.851z" fill="#F2F2F2"/><path opacity=".14" d="M464.3 101.367h-13.851v13.851H464.3v-13.851z" fill="#B3B3B3"/><path opacity=".14" d="M478.151 101.367H464.3v13.851h13.851v-13.851zm13.851 0h-13.851v13.851h13.851v-13.851z" fill="#F2F2F2"/><path opacity=".14" d="M505.853 101.367h-13.851v13.851h13.851v-13.851z" fill="#fff"/><path d="M533.556 101.367h-13.852v13.851h13.852v-13.851z" fill="#fff"/><path opacity=".14" d="M395.045 115.218h-13.852v13.851h13.852v-13.851z" fill="#fff"/><path opacity=".14" d="M408.896 115.218h-13.852v13.851h13.852v-13.851z" fill="#F2F2F2"/><path opacity=".14" d="M422.747 115.218h-13.851v13.851h13.851v-13.851z" fill="#CCC"/><path opacity=".14" d="M464.3 115.218h-13.851v13.851H464.3v-13.851zm13.851 0H464.3v13.851h13.851v-13.851zm13.851 0h-13.851v13.851h13.851v-13.851zm13.851 0h-13.851v13.851h13.851v-13.851z" fill="#F2F2F2"/><path opacity=".14" d="M519.704 115.218h-13.851v13.851h13.851v-13.851zm13.852 0h-13.852v13.851h13.852v-13.851zm-138.511 13.851h-13.852v13.851h13.852v-13.851z" fill="#F2F2F2"/><path opacity=".14" d="M408.896 129.069h-13.852v13.851h13.852v-13.851zm13.851 0h-13.851v13.851h13.851v-13.851zm13.851 0h-13.851v13.851h13.851v-13.851zm13.851 0h-13.851v13.851h13.851v-13.851zm27.702 0H464.3v13.851h13.851v-13.851z" fill="#F2F2F2"/><path opacity=".14" d="M492.002 129.069h-13.851v13.851h13.851v-13.851z" fill="#CCC"/><path opacity=".14" d="M505.853 129.069h-13.851v13.851h13.851v-13.851z" fill="#F2F2F2"/><path opacity=".14" d="M519.704 129.069h-13.851v13.851h13.851v-13.851z" fill="#F2F2F2"/><path opacity=".14" d="M395.045 142.92h-13.852v13.852h13.852V142.92z" fill="#E6E6E6"/><path opacity=".14" d="M422.747 142.92h-13.851v13.852h13.851V142.92z" fill="#F2F2F2"/><path opacity=".14" d="M436.598 142.92h-13.851v13.852h13.851V142.92z" fill="#fff"/><path opacity=".14" d="M450.449 142.92h-13.851v13.852h13.851V142.92z" fill="#E6E6E6"/><path opacity=".14" d="M478.151 142.92H464.3v13.852h13.851V142.92zm13.851 0h-13.851v13.852h13.851V142.92zm41.554 0h-13.852v13.852h13.852V142.92z" fill="#F2F2F2"/><path d="M395.045 156.771h-13.852v13.852h13.852v-13.852z" fill="#F2F2F2"/><path opacity=".03" d="M408.896 156.771h-13.852v13.852h13.852v-13.852z" fill="#F2F2F2"/><path opacity=".14" d="M422.747 156.771h-13.851v13.852h13.851v-13.852zm13.851 0h-13.851v13.852h13.851v-13.852zm13.851 0h-13.851v13.852h13.851v-13.852zm13.851 0h-13.851v13.852H464.3v-13.852zm27.702 0h-13.851v13.852h13.851v-13.852zm13.851 0h-13.851v13.852h13.851v-13.852z" fill="#F2F2F2"/><path opacity=".14" d="M519.704 156.771h-13.851v13.852h13.851v-13.852z" fill="#F2F2F2"/><path opacity=".14" d="M533.556 156.771h-13.852v13.852h13.852v-13.852z" fill="#E6E6E6"/><path opacity=".32" d="M325.789 170.623h-13.851v13.851h13.851v-13.851z" fill="#fff"/><path opacity=".32" d="M339.64 170.623h-13.851v13.851h13.851v-13.851zm13.851 0H339.64v13.851h13.851v-13.851z" fill="#F2F2F2"/><path opacity=".32" d="M367.342 170.623h-13.851v13.851h13.851v-13.851z" fill="#fff"/><path opacity=".39" d="M381.193 170.623h-13.851v13.851h13.851v-13.851z" fill="#F2F2F2"/><path d="M395.045 170.623h-13.852v13.851h13.852v-13.851z" fill="#fff"/><path d="M408.896 170.623h-13.852v13.851h13.852v-13.851z" fill="#F2F2F2"/><path opacity=".56" d="M422.747 170.623h-13.851v13.851h13.851v-13.851z" fill="#F2F2F2"/><path d="M436.598 170.623h-13.851v13.851h13.851v-13.851z" fill="#fff"/><path opacity=".05" d="M450.449 170.623h-13.851v13.851h13.851v-13.851zm27.702 0H464.3v13.851h13.851v-13.851zm27.702 0h-13.851v13.851h13.851v-13.851z" fill="#F2F2F2"/><path opacity=".14" d="M533.556 170.623h-13.852v13.851h13.852v-13.851z" fill="#F2F2F2"/><path opacity=".19" d="M381.193 184.474h-13.851v13.851h13.851v-13.851z" fill="#F2F2F2"/><path opacity=".03" d="M395.045 184.474h-13.852v13.851h13.852v-13.851z" fill="#F2F2F2"/><path opacity=".56" d="M408.896 184.474h-13.852v13.851h13.852v-13.851z" fill="#F2F2F2"/><path opacity=".03" d="M422.747 184.474h-13.851v13.851h13.851v-13.851z" fill="#F2F2F2"/><path opacity=".56" d="M436.598 184.474h-13.851v13.851h13.851v-13.851z" fill="#F2F2F2"/><path d="M450.449 184.474h-13.851v13.851h13.851v-13.851z" fill="#F2F2F2"/><path opacity=".56" d="M464.3 184.474h-13.851v13.851H464.3v-13.851z" fill="#F2F2F2"/><path opacity=".05" d="M478.151 184.474H464.3v13.851h13.851v-13.851z" fill="#F2F2F2"/><path d="M492.002 184.474h-13.851v13.851h13.851v-13.851z" fill="#F2F2F2"/><path opacity=".05" d="M505.853 184.474h-13.851v13.851h13.851v-13.851z" fill="#F2F2F2"/><path opacity=".14" d="M519.704 184.474h-13.851v13.851h13.851v-13.851z" fill="#F2F2F2"/><path opacity=".31" d="M395.045 198.325h-13.852v13.851h13.852v-13.851z" fill="#F2F2F2"/><path opacity=".03" d="M408.896 198.325h-13.852v13.851h13.852v-13.851z" fill="#E6E6E6"/><path opacity=".31" d="M422.747 198.325h-13.851v13.851h13.851v-13.851zm27.702 0h-13.851v13.851h13.851v-13.851zm13.851 0h-13.851v13.851H464.3v-13.851zm27.702 0h-13.851v13.851h13.851v-13.851zm13.851 0h-13.851v13.851h13.851v-13.851zm-110.808 13.851h-13.852v13.851h13.852v-13.851zm110.808 0h-13.851v13.851h13.851v-13.851z" fill="#F2F2F2"/><path opacity=".11" d="M395.045 226.027h-13.852v13.851h13.852v-13.851z" fill="#F2F2F2"/><path opacity=".31" d="M492.002 226.027h-13.851v13.851h13.851v-13.851z" fill="#F2F2F2"/><path opacity=".31" d="M505.853 226.027h-13.851v13.851h13.851v-13.851z" fill="#CCC"/><path opacity=".31" d="M381.193 238.548h-13.851V252.4h13.851v-13.852zm13.852 0h-13.852V252.4h13.852v-13.852zm110.808 1.33h-13.851v13.851h13.851v-13.851z" fill="#F2F2F2"/><path d="M325.789 184.474h-13.851v13.851h13.851v-13.851zm13.851 0h-13.851v13.851h13.851v-13.851zm13.851 0H339.64v13.851h13.851v-13.851zm13.851 0h-13.851v13.851h13.851v-13.851z" fill="#fff"/><path opacity=".31" d="M325.789 198.325h-13.851v13.851h13.851v-13.851zm13.851 0h-13.851v13.851h13.851v-13.851zm0 0v13.851h13.851v-13.851m13.851 0h-13.851v13.851h13.851v-13.851z" fill="#fff"/><path opacity=".14" d="M519.704 198.325h-13.851v13.851h13.851v-13.851z" fill="#fff"/><path opacity=".31" d="M325.789 212.176h-13.851v13.851h13.851v-13.851zm13.851 0h-13.851v13.851h13.851v-13.851zm13.851 0H339.64v13.851h13.851v-13.851zm13.851 0h-13.851v13.851h13.851v-13.851zm41.554 0h-13.852v13.851h13.852v-13.851zm13.851 0h-13.851v13.851h13.851v-13.851zm13.851 0h-13.851v13.851h13.851v-13.851zm13.851 0h-13.851v13.851h13.851v-13.851zm13.851 0h-13.851v13.851H464.3v-13.851zm13.851 0H464.3v13.851h13.851v-13.851zm41.553 0h-13.851v13.851h13.851v-13.851zm13.852 0h-13.852v13.851h13.852v-13.851zm-207.767 13.851h-13.851v13.851h13.851v-13.851zm13.851 0h-13.851v13.851h13.851v-13.851z" fill="#fff"/><path opacity=".19" d="M353.491 226.027H339.64v13.851h13.851v-13.851z" fill="#F2F2F2"/><path opacity=".31" d="M367.342 226.027h-13.851v13.851h13.851v-13.851zm41.554 0h-13.852v13.851h13.852v-13.851zm13.851 0h-13.851v13.851h13.851v-13.851zm13.851 0h-13.851v13.851h13.851v-13.851zm13.851 0h-13.851v13.851h13.851v-13.851zm13.851 0h-13.851v13.851H464.3v-13.851zm13.851 0H464.3v13.851h13.851v-13.851zm41.553 0h-13.851v13.851h13.851v-13.851zm13.852 0h-13.852v13.851h13.852v-13.851zm-207.767 13.851h-13.851v13.851h13.851v-13.851zm27.702 0H339.64v13.851h13.851v-13.851zm13.851 0h-13.851v13.851h13.851v-13.851zm55.405 0h-13.851v13.851h13.851v-13.851zm13.851 0h-13.851v13.851h13.851v-13.851zm13.851 0h-13.851v13.851h13.851v-13.851zm13.851 0h-13.851v13.851H464.3v-13.851zm13.851 0H464.3v13.851h13.851v-13.851zm41.553 0h-13.851v13.851h13.851v-13.851z" fill="#fff"/><path d="M547.407 32.112h-13.851v13.85h13.851v-13.85z" fill="#fff"/><path opacity=".03" d="M588.96 32.112h-13.851v13.85h13.851v-13.85z" fill="#F2F2F2"/><path d="M602.811 32.112H588.96v13.85h13.851v-13.85z" fill="#F2F2F2"/><path opacity=".22" d="M547.407 45.963h-13.851v13.85h13.851v-13.85zm27.702 0h-13.851v13.85h13.851v-13.85zm13.851 0h-13.851v13.85h13.851v-13.85zm13.851 0H588.96v13.85h13.851v-13.85zm-55.404 13.851h-13.851v13.85h13.851v-13.85zm13.851 0h-13.851v13.85h13.851v-13.85zm13.851 0h-13.851v13.85h13.851v-13.85zm13.851 0h-13.851v13.85h13.851v-13.85z" fill="#F2F2F2"/><path opacity=".22" d="M602.811 59.814H588.96v13.85h13.851v-13.85z" fill="gray"/><path opacity=".22" d="M547.407 73.665h-13.851v13.851h13.851V73.665z" fill="#fff"/><path opacity=".22" d="M561.258 73.665h-13.851v13.851h13.851V73.665zm13.851 0h-13.851v13.851h13.851V73.665z" fill="#F2F2F2"/><path opacity=".22" d="M588.96 73.665h-13.851v13.851h13.851V73.665z" fill="#fff"/><path opacity=".22" d="M602.811 73.665H588.96v13.851h13.851V73.665zm-55.404 13.851h-13.851v13.851h13.851V87.516z" fill="#F2F2F2"/><path opacity=".22" d="M561.258 87.516h-13.851v13.851h13.851V87.516z" fill="#fff"/><path opacity=".11" d="M575.109 87.516h-13.851v13.851h13.851V87.516z" fill="#F2F2F2"/><path opacity=".14" d="M588.96 87.516h-13.851v13.851h13.851V87.516zm13.851 0H588.96v13.851h13.851V87.516zm-55.404 13.851h-13.851v13.851h13.851v-13.851zm13.851 0h-13.851v13.851h13.851v-13.851zm13.851 0h-13.851v13.851h13.851v-13.851zm13.851 0h-13.851v13.851h13.851v-13.851zm13.851 0H588.96v13.851h13.851v-13.851z" fill="#F2F2F2"/><path opacity=".14" d="M561.258 115.218h-13.851v13.851h13.851v-13.851zm27.702 0h-13.851v13.851h13.851v-13.851z" fill="#E6E6E6"/><path opacity=".14" d="M602.811 115.218H588.96v13.851h13.851v-13.851zm-55.404 13.851h-13.851v13.851h13.851v-13.851zm13.851 0h-13.851v13.851h13.851v-13.851zm13.851 0h-13.851v13.851h13.851v-13.851zm13.851 0h-13.851v13.851h13.851v-13.851z" fill="#F2F2F2"/><path opacity=".14" d="M602.811 129.069H588.96v13.851h13.851v-13.851z" fill="#F2F2F2"/><path opacity=".14" d="M547.407 142.92h-13.851v13.852h13.851V142.92z" fill="#B3B3B3"/><path opacity=".14" d="M561.258 142.92h-13.851v13.852h13.851V142.92z" fill="#F2F2F2"/><path opacity=".14" d="M575.109 142.92h-13.851v13.852h13.851V142.92z" fill="#B3B3B3"/><path opacity=".14" d="M588.96 142.92h-13.851v13.852h13.851V142.92z" fill="#F2F2F2"/><path opacity=".14" d="M602.811 142.92H588.96v13.852h13.851V142.92z" fill="#fff"/><path opacity=".14" d="M547.407 156.771h-13.851v13.852h13.851v-13.852zm13.851 0h-13.851v13.852h13.851v-13.852zm27.702 0h-13.851v13.852h13.851v-13.852zm13.851 0H588.96v13.852h13.851v-13.852z" fill="#F2F2F2"/><path opacity=".03" d="M616.662 32.112h-13.851v13.85h13.851v-13.85z" fill="#B3B3B3"/><path opacity=".11" d="M658.215 32.112h-13.851v13.85h13.851v-13.85z" fill="#F2F2F2"/><path d="M672.067 32.112h-13.852v13.85h13.852v-13.85zm27.702 0h-13.851v13.85h13.851v-13.85z" fill="#fff"/><path opacity=".22" d="M616.662 45.963h-13.851v13.85h13.851v-13.85z" fill="#F2F2F2"/><path d="M630.513 45.963h-13.851v13.85h13.851v-13.85z" fill="#F2F2F2"/><path d="M699.769 45.963h-13.851v13.85h13.851v-13.85z" fill="#fff"/><path opacity=".22" d="M616.662 59.814h-13.851v13.85h13.851v-13.85z" fill="#F2F2F2"/><path d="M658.215 59.814h-13.851v13.85h13.851v-13.85z" fill="#F2F2F2"/><path d="M658.215 59.814h13.852v13.85h-13.852" fill="#fff"/><path opacity=".11" d="M699.769 59.814h-13.851v13.85h13.851v-13.85zm13.851 0h-13.851v13.85h13.851v-13.85z" fill="#F2F2F2"/><path opacity=".16" d="M741.322 59.814h-13.851v13.85h13.851v-13.85z" fill="#F2F2F2"/><path opacity=".22" d="M616.662 73.665h-13.851v13.851h13.851V73.665z" fill="#F2F2F2"/><path opacity=".42" d="M630.513 73.665h-13.851v13.851h13.851V73.665z" fill="#F2F2F2"/><path d="M644.364 73.665h-13.851v13.851h13.851V73.665zm27.703 0h-13.852v13.851h13.852V73.665z" fill="#F2F2F2"/><path opacity=".16" d="M685.918 73.665h-13.851v13.851h13.851V73.665z" fill="#F2F2F2"/><path opacity=".11" d="M713.62 73.665h-13.851v13.851h13.851V73.665z" fill="#F2F2F2"/><path opacity=".16" d="M727.471 73.665H713.62v13.851h13.851V73.665z" fill="#F2F2F2"/><path opacity=".21" d="M741.322 73.665h-13.851v13.851h13.851V73.665z" fill="#F2F2F2"/><path opacity=".14" d="M616.662 87.516h-13.851v13.851h13.851V87.516z" fill="#CCC"/><path opacity=".14" d="M630.513 87.516h-13.851v13.851h13.851V87.516z" fill="#F2F2F2"/><path opacity=".11" d="M644.364 87.516h-13.851v13.851h13.851V87.516z" fill="#F2F2F2"/><path d="M658.215 87.516h-13.851v13.851h13.851V87.516z" fill="#F2F2F2"/><path opacity=".16" d="M672.067 87.516h-13.852v13.851h13.852V87.516z" fill="#F2F2F2"/><path d="M685.918 87.516h-13.851v13.851h13.851V87.516zm13.851 0h-13.851v13.851h13.851V87.516zm27.702 0H713.62v13.851h13.851V87.516z" fill="#F2F2F2"/><path opacity=".21" d="M741.322 87.516h-13.851v13.851h13.851V87.516zm13.851 0h-13.851v13.851h13.851V87.516z" fill="#F2F2F2"/><path opacity=".14" d="M616.662 101.367h-13.851v13.851h13.851v-13.851zm13.851 0h-13.851v13.851h13.851v-13.851zm13.851 0h-13.851v13.851h13.851v-13.851z" fill="#F2F2F2"/><path opacity=".16" d="M658.215 101.367h-13.851v13.851h13.851v-13.851z" fill="#E6E6E6"/><path d="M672.067 101.367h-13.852v13.851h13.852v-13.851z" fill="#F2F2F2"/><path opacity=".03" d="M685.918 101.367h-13.851v13.851h13.851v-13.851z" fill="#B3B3B3"/><path d="M699.769 101.367h-13.851v13.851h13.851v-13.851z" fill="#F2F2F2"/><path opacity=".21" d="M713.62 101.367h-13.851v13.851h13.851v-13.851z" fill="#F2F2F2"/><path opacity=".14" d="M727.471 101.367H713.62v13.851h13.851v-13.851z" fill="#F2F2F2"/><path opacity=".14" d="M741.322 101.367h-13.851v13.851h13.851v-13.851z" fill="#CCC"/><path opacity=".14" d="M616.662 115.218h-13.851v13.851h13.851v-13.851z" fill="#fff"/><path opacity=".14" d="M630.513 115.218h-13.851v13.851h13.851v-13.851z" fill="#F2F2F2"/><path opacity=".14" d="M644.364 115.218h-13.851v13.851h13.851v-13.851z" fill="#CCC"/><path opacity=".14" d="M658.215 115.218h-13.851v13.851h13.851v-13.851zm13.852 0h-13.852v13.851h13.852v-13.851zm13.851 0h-13.851v13.851h13.851v-13.851zm13.851 0h-13.851v13.851h13.851v-13.851zm13.851 0h-13.851v13.851h13.851v-13.851zm13.851 0H713.62v13.851h13.851v-13.851zm13.851 0h-13.851v13.851h13.851v-13.851zm-124.66 13.851h-13.851v13.851h13.851v-13.851zm27.702 0h-13.851v13.851h13.851v-13.851z" fill="#F2F2F2"/><path opacity=".14" d="M658.215 129.069h-13.851v13.851h13.851v-13.851zm13.852 0h-13.852v13.851h13.852v-13.851zm13.851 0h-13.851v13.851h13.851v-13.851zm13.851 0h-13.851v13.851h13.851v-13.851z" fill="#F2F2F2"/><path opacity=".14" d="M713.62 129.069h-13.851v13.851h13.851v-13.851z" fill="#CCC"/><path opacity=".14" d="M727.471 129.069H713.62v13.851h13.851v-13.851zm13.851 0h-13.851v13.851h13.851v-13.851z" fill="#F2F2F2"/><path opacity=".14" d="M616.662 142.92h-13.851v13.852h13.851V142.92z" fill="#E6E6E6"/><path opacity=".14" d="M644.364 142.92h-13.851v13.852h13.851V142.92z" fill="#F2F2F2"/><path opacity=".14" d="M658.215 142.92h-13.851v13.852h13.851V142.92z" fill="#fff"/><path opacity=".14" d="M672.067 142.92h-13.852v13.852h13.852V142.92z" fill="#E6E6E6"/><path opacity=".14" d="M685.918 142.92h-13.851v13.852h13.851V142.92zm13.851 0h-13.851v13.852h13.851V142.92zm13.851 0h-13.851v13.852h13.851V142.92zm13.851 0H713.62v13.852h13.851V142.92zm13.851 0h-13.851v13.852h13.851V142.92zm-124.66 13.851h-13.851v13.852h13.851v-13.852zm13.851 0h-13.851v13.852h13.851v-13.852zm13.851 0h-13.851v13.852h13.851v-13.852zm13.851 0h-13.851v13.852h13.851v-13.852zm13.852 0h-13.852v13.852h13.852v-13.852z" fill="#F2F2F2"/><path opacity=".14" d="M685.918 156.771h-13.851v13.852h13.851v-13.852zm13.851 0h-13.851v13.852h13.851v-13.852zm13.851 0h-13.851v13.852h13.851v-13.852zm13.851 0H713.62v13.852h13.851v-13.852z" fill="#F2F2F2"/><path opacity=".42" d="M741.322 156.771h-13.851v13.852h13.851v-13.852z" fill="#F2F2F2"/><path opacity=".05" d="M755.173 156.771h-13.851v13.852h13.851v-13.852z" fill="#E6E6E6"/><path opacity=".14" d="M547.407 170.623h-13.851v13.851h13.851v-13.851z" fill="#fff"/><path opacity=".14" d="M561.258 170.623h-13.851v13.851h13.851v-13.851zm13.851 0h-13.851v13.851h13.851v-13.851z" fill="#F2F2F2"/><path opacity=".14" d="M588.96 170.623h-13.851v13.851h13.851v-13.851z" fill="#fff"/><path opacity=".14" d="M602.811 170.623H588.96v13.851h13.851v-13.851z" fill="#F2F2F2"/><path opacity=".14" d="M616.662 170.623h-13.851v13.851h13.851v-13.851z" fill="#fff"/><path opacity=".14" d="M630.513 170.623h-13.851v13.851h13.851v-13.851zm13.851 0h-13.851v13.851h13.851v-13.851z" fill="#F2F2F2"/><path opacity=".14" d="M658.215 170.623h-13.851v13.851h13.851v-13.851z" fill="#fff"/><path opacity=".14" d="M672.067 170.623h-13.852v13.851h13.852v-13.851z" fill="#F2F2F2"/><path opacity=".14" d="M685.918 170.623h-13.851v13.851h13.851v-13.851z" fill="#CCC"/><path opacity=".14" d="M699.769 170.623h-13.851v13.851h13.851v-13.851z" fill="#F2F2F2"/><path opacity=".14" d="M713.62 170.623h-13.851v13.851h13.851v-13.851z" fill="#CCC"/><path opacity=".05" d="M727.471 170.623H713.62v13.851h13.851v-13.851zm13.851 0h-13.851v13.851h13.851v-13.851z" fill="#F2F2F2"/><path opacity=".14" d="M602.811 184.474H588.96v13.851h13.851v-13.851zm13.851 0h-13.851v13.851h13.851v-13.851z" fill="#F2F2F2"/><path opacity=".56" d="M630.513 184.474h-13.851v13.851h13.851v-13.851z" fill="#F2F2F2"/><path opacity=".03" d="M644.364 184.474h-13.851v13.851h13.851v-13.851z" fill="#F2F2F2"/><path opacity=".14" d="M658.215 184.474h-13.851v13.851h13.851v-13.851zm13.852 0h-13.852v13.851h13.852v-13.851zm13.851 0h-13.851v13.851h13.851v-13.851zm13.851 0h-13.851v13.851h13.851v-13.851zm13.851 0h-13.851v13.851h13.851v-13.851z" fill="#F2F2F2"/><path d="M727.471 184.474H713.62v13.851h13.851v-13.851z" fill="#F2F2F2"/><path opacity=".42" d="M741.322 184.474h-13.851v13.851h13.851v-13.851z" fill="#F2F2F2"/><path opacity=".31" d="M616.662 198.325h-13.851v13.851h13.851v-13.851z" fill="#F2F2F2"/><path opacity=".03" d="M630.513 198.325h-13.851v13.851h13.851v-13.851z" fill="#E6E6E6"/><path opacity=".31" d="M644.364 198.325h-13.851v13.851h13.851v-13.851zm27.703 0h-13.852v13.851h13.852v-13.851zm13.851 0h-13.851v13.851h13.851v-13.851zm27.702 0h-13.851v13.851h13.851v-13.851zm13.851 0H713.62v13.851h13.851v-13.851zm-110.809 13.851h-13.851v13.851h13.851v-13.851zm96.958 0h-13.851v13.851h13.851v-13.851zm13.851 0H713.62v13.851h13.851v-13.851z" fill="#F2F2F2"/><path opacity=".11" d="M616.662 226.027h-13.851v13.851h13.851v-13.851z" fill="#F2F2F2"/><path opacity=".31" d="M602.811 238.548H588.96V252.4h13.851v-13.852zm13.851 0h-13.851V252.4h13.851v-13.852zm96.958 1.33h-13.851v13.851h13.851v-13.851zm13.851 0H713.62v13.851h13.851v-13.851z" fill="#F2F2F2"/><path opacity=".14" d="M547.407 184.474h-13.851v13.851h13.851v-13.851zm13.851 0h-13.851v13.851h13.851v-13.851zm13.851 0h-13.851v13.851h13.851v-13.851zm13.851 0h-13.851v13.851h13.851v-13.851zm-41.553 13.851h-13.851v13.851h13.851v-13.851zm13.851 0h-13.851v13.851h13.851v-13.851zm13.851 0h-13.851v13.851h13.851v-13.851zm13.851 0h-13.851v13.851h13.851v-13.851z" fill="#fff"/><path opacity=".42" d="M741.322 198.325h-13.851v13.851h13.851v-13.851z" fill="#fff"/><path opacity=".31" d="M547.407 212.176h-13.851v13.851h13.851v-13.851zm13.851 0h-13.851v13.851h13.851v-13.851zm13.851 0h-13.851v13.851h13.851v-13.851zm13.851 0h-13.851v13.851h13.851v-13.851zm41.553 0h-13.851v13.851h13.851v-13.851zm13.851 0h-13.851v13.851h13.851v-13.851zm13.851 0h-13.851v13.851h13.851v-13.851zm13.852 0h-13.852v13.851h13.852v-13.851zm13.851 0h-13.851v13.851h13.851v-13.851zm13.851 0h-13.851v13.851h13.851v-13.851zm41.553 0h-13.851v13.851h13.851v-13.851zm13.851 0h-13.851v13.851h13.851v-13.851zm-207.766 13.851h-13.851v13.851h13.851v-13.851zm13.851 0h-13.851v13.851h13.851v-13.851z" fill="#fff"/><path opacity=".19" d="M575.109 226.027h-13.851v13.851h13.851v-13.851z" fill="#F2F2F2"/><path opacity=".31" d="M588.96 226.027h-13.851v13.851h13.851v-13.851zm41.553 0h-13.851v13.851h13.851v-13.851zm13.851 0h-13.851v13.851h13.851v-13.851zm13.851 0h-13.851v13.851h13.851v-13.851z" fill="#fff"/><path opacity=".23" d="M672.067 226.027h-13.852v13.851h13.852v-13.851z" fill="#fff"/><path opacity=".31" d="M685.918 226.027h-13.851v13.851h13.851v-13.851zm13.851 0h-13.851v13.851h13.851v-13.851zm41.553 0h-13.851v13.851h13.851v-13.851zm13.851 0h-13.851v13.851h13.851v-13.851zm-207.766 13.851h-13.851v13.851h13.851v-13.851zm27.702 0h-13.851v13.851h13.851v-13.851zm13.851 0h-13.851v13.851h13.851v-13.851zm55.404 0h-13.851v13.851h13.851v-13.851zm13.851 0h-13.851v13.851h13.851v-13.851zm13.852 0h-13.852v13.851h13.852v-13.851zm13.851 0h-13.851v13.851h13.851v-13.851zm13.851 0h-13.851v13.851h13.851v-13.851zm41.553 0h-13.851v13.851h13.851v-13.851z" fill="#fff"/><path d="M325.789 253.729h-13.851v13.851h13.851v-13.851z" fill="#fff"/><path opacity=".16" d="M339.64 253.729h-13.851v13.851h13.851v-13.851z" fill="#F2F2F2"/><path opacity=".05" d="M353.491 253.729H339.64v13.851h13.851v-13.851z" fill="#fff"/><path opacity=".03" d="M367.342 253.729h-13.851v13.851h13.851v-13.851z" fill="#F2F2F2"/><path opacity=".16" d="M381.193 253.729h-13.851v13.851h13.851v-13.851z" fill="#F2F2F2"/><path opacity=".22" d="M325.789 267.58h-13.851v13.851h13.851V267.58z" fill="#F2F2F2"/><path opacity=".05" d="M339.64 267.58h-13.851v13.851h13.851V267.58z" fill="#CCC"/><path opacity=".22" d="M353.491 267.58H339.64v13.851h13.851V267.58zm13.851 0h-13.851v13.851h13.851V267.58zm13.851 0h-13.851v13.851h13.851V267.58zm-55.404 13.851h-13.851v13.852h13.851v-13.852z" fill="#F2F2F2"/><path opacity=".22" d="M339.64 281.431h-13.851v13.852h13.851v-13.852z" fill="#fff"/><path opacity=".22" d="M353.491 281.431H339.64v13.852h13.851v-13.852zm13.851 0h-13.851v13.852h13.851v-13.852z" fill="#F2F2F2"/><path opacity=".16" d="M381.193 281.431h-13.851v13.852h13.851v-13.852z" fill="gray"/><path opacity=".22" d="M325.789 295.283h-13.851v13.851h13.851v-13.851z" fill="#fff"/><path opacity=".22" d="M339.64 295.283h-13.851v13.851h13.851v-13.851zm13.851 0H339.64v13.851h13.851v-13.851z" fill="#F2F2F2"/><path opacity=".22" d="M367.342 295.283h-13.851v13.851h13.851v-13.851z" fill="#fff"/><path opacity=".22" d="M381.193 295.283h-13.851v13.851h13.851v-13.851z" fill="#F2F2F2"/><path opacity=".11" d="M353.491 309.134H339.64v13.851h13.851v-13.851z" fill="#fff"/><path opacity=".16" d="M367.342 309.134h-13.851v13.851h13.851v-13.851z" fill="#F2F2F2"/><path opacity=".22" d="M381.193 309.134h-13.851v13.851h13.851v-13.851zm-41.553 13.851h-13.851v13.851h13.851v-13.851zm13.851 0H339.64v13.851h13.851v-13.851zm13.851 0h-13.851v13.851h13.851v-13.851z" fill="#F2F2F2"/><path opacity=".22" d="M381.193 322.985h-13.851v13.851h13.851v-13.851z" fill="#fff"/><path opacity=".22" d="M325.789 336.836h-13.851v13.851h13.851v-13.851z" fill="#F2F2F2"/><path opacity=".22" d="M339.64 336.836h-13.851v13.851h13.851v-13.851z" fill="#fff"/><path opacity=".27" d="M353.491 336.836H339.64v13.851h13.851v-13.851z" fill="#fff"/><path opacity=".22" d="M367.342 336.836h-13.851v13.851h13.851v-13.851z" fill="#fff"/><path opacity=".22" d="M381.193 336.836h-13.851v13.851h13.851v-13.851z" fill="#F2F2F2"/><path opacity=".21" d="M381.193 350.687h-13.851v13.851h13.851v-13.851z" fill="#F2F2F2"/><path opacity=".32" d="M339.64 364.538h-13.851v13.851h13.851v-13.851z" fill="#F2F2F2"/><path opacity=".32" d="M353.491 364.538H339.64v13.851h13.851v-13.851zm13.851 0h-13.851v13.851h13.851v-13.851z" fill="#fff"/><path d="M381.193 364.538h-13.851v13.851h13.851v-13.851z" fill="#fff"/><path opacity=".32" d="M325.789 378.389h-13.851v13.851h13.851v-13.851zm41.553 0h-13.851v13.851h13.851v-13.851z" fill="#F2F2F2"/><path opacity=".16" d="M381.193 378.389h-13.851v13.851h13.851v-13.851z" fill="#F2F2F2"/><path opacity=".03" d="M395.045 253.729h-13.852v13.851h13.852v-13.851z" fill="#B3B3B3"/><path opacity=".16" d="M408.896 253.729h-13.852v13.851h13.852v-13.851z" fill="#F2F2F2"/><path opacity=".53" d="M422.747 253.729h-13.851v13.851h13.851v-13.851z" fill="#F2F2F2"/><path opacity=".11" d="M436.598 253.729h-13.851v13.851h13.851v-13.851z" fill="#F2F2F2"/><path d="M450.449 253.729h-13.851v13.851h13.851v-13.851z" fill="#F2F2F2"/><path opacity=".05" d="M478.151 253.729H464.3v13.851h13.851v-13.851z" fill="#F2F2F2"/><path opacity=".21" d="M492.002 253.729h-13.851v13.851h13.851v-13.851zm27.702 0h-13.851v13.851h13.851v-13.851zm13.852 0h-13.852v13.851h13.852v-13.851z" fill="#F2F2F2"/><path opacity=".22" d="M395.045 267.58h-13.852v13.851h13.852V267.58z" fill="#F2F2F2"/><path opacity=".05" d="M450.449 267.58h-13.851v13.851h13.851V267.58z" fill="#F2F2F2"/><path d="M464.3 267.58h-13.851v13.851H464.3V267.58z" fill="#fff"/><path opacity=".05" d="M492.002 267.58h-13.851v13.851h13.851V267.58z" fill="#B3B3B3"/><path opacity=".21" d="M505.853 267.58h-13.851v13.851h13.851V267.58z" fill="#F2F2F2"/><path opacity=".21" d="M519.704 267.58h-13.851v13.851h13.851V267.58zm13.852 0h-13.852v13.851h13.852V267.58z" fill="#F2F2F2"/><path opacity=".22" d="M395.045 281.431h-13.852v13.852h13.852v-13.852z" fill="#F2F2F2"/><path d="M408.896 281.431h-13.852v13.852h13.852v-13.852z" fill="#fff"/><path d="M422.747 281.431h-13.851v13.852h13.851v-13.852z" fill="#F2F2F2"/><path opacity=".46" d="M436.598 281.431h-13.851v13.852h13.851v-13.852z" fill="#F2F2F2"/><path opacity=".25" d="M450.449 281.431h-13.851v13.852h13.851v-13.852z" fill="#fff"/><path opacity=".16" d="M464.3 281.431h-13.851v13.852H464.3v-13.852z" fill="#F2F2F2"/><path opacity=".11" d="M478.151 281.431H464.3v13.852h13.851v-13.852zm13.851 0h-13.851v13.852h13.851v-13.852z" fill="#F2F2F2"/><path d="M505.853 281.431h-13.851v13.852h13.851v-13.852z" fill="#fff"/><path opacity=".05" d="M519.704 281.431h-13.851v13.852h13.851v-13.852z" fill="#F2F2F2"/><path d="M533.556 281.431h-13.852v13.852h13.852v-13.852z" fill="#fff"/><path opacity=".22" d="M395.045 295.283h-13.852v13.851h13.852v-13.851z" fill="#F2F2F2"/><path opacity=".46" d="M408.896 295.283h-13.852v13.851h13.852v-13.851z" fill="#F2F2F2"/><path opacity=".16" d="M422.747 295.283h-13.851v13.851h13.851v-13.851z" fill="#F2F2F2"/><path d="M436.598 295.283h-13.851v13.851h13.851v-13.851z" fill="#fff"/><path d="M450.449 295.283h-13.851v13.851h13.851v-13.851z" fill="#F2F2F2"/><path opacity=".27" d="M464.3 295.283h-13.851v13.851H464.3v-13.851z" fill="#F2F2F2"/><path opacity=".11" d="M492.002 295.283h-13.851v13.851h13.851v-13.851z" fill="#F2F2F2"/><path opacity=".27" d="M505.853 295.283h-13.851v13.851h13.851v-13.851z" fill="#F2F2F2"/><path opacity=".21" d="M519.704 295.283h-13.851v13.851h13.851v-13.851z" fill="#F2F2F2"/><path opacity=".05" d="M533.556 295.283h-13.852v13.851h13.852v-13.851z" fill="#F2F2F2"/><path opacity=".16" d="M395.045 309.134h-13.852v13.851h13.852v-13.851z" fill="#CCC"/><path d="M408.896 309.134h-13.852v13.851h13.852v-13.851z" fill="#fff"/><path opacity=".11" d="M422.747 309.134h-13.851v13.851h13.851v-13.851z" fill="#F2F2F2"/><path opacity=".21" d="M450.449 309.134h-13.851v13.851h13.851v-13.851z" fill="#F2F2F2"/><path opacity=".46" d="M464.3 309.134h-13.851v13.851H464.3v-13.851z" fill="#F2F2F2"/><path d="M478.151 309.134H464.3v13.851h13.851v-13.851z" fill="#F2F2F2"/><path d="M505.853 309.134h-13.851v13.851h13.851v-13.851z" fill="#fff"/><path opacity=".21" d="M519.704 309.134h-13.851v13.851h13.851v-13.851zm13.852 0h-13.852v13.851h13.852v-13.851z" fill="#F2F2F2"/><path opacity=".22" d="M395.045 322.985h-13.852v13.851h13.852v-13.851z" fill="#F2F2F2"/><path opacity=".42" d="M408.896 322.985h-13.852v13.851h13.852v-13.851z" fill="#F2F2F2"/><path opacity=".21" d="M422.747 322.985h-13.851v13.851h13.851v-13.851z" fill="#F2F2F2"/><path opacity=".05" d="M436.598 322.985h-13.851v13.851h13.851v-13.851z" fill="#E6E6E6"/><path d="M450.449 322.985h-13.851v13.851h13.851v-13.851z" fill="#F2F2F2"/><path opacity=".03" d="M464.3 322.985h-13.851v13.851H464.3v-13.851z" fill="#B3B3B3"/><path d="M478.151 322.985H464.3v13.851h13.851v-13.851z" fill="#fff"/><path opacity=".21" d="M492.002 322.985h-13.851v13.851h13.851v-13.851z" fill="#F2F2F2"/><path opacity=".27" d="M505.853 322.985h-13.851v13.851h13.851v-13.851z" fill="#F2F2F2"/><path d="M519.704 322.985h-13.851v13.851h13.851v-13.851z" fill="#fff"/><path opacity=".46" d="M533.556 322.985h-13.852v13.851h13.852v-13.851z" fill="#F2F2F2"/><path opacity=".22" d="M395.045 336.836h-13.852v13.851h13.852v-13.851z" fill="#fff"/><path opacity=".05" d="M408.896 336.836h-13.852v13.851h13.852v-13.851z" fill="#F2F2F2"/><path opacity=".03" d="M422.747 336.836h-13.851v13.851h13.851v-13.851z" fill="#CCC"/><path opacity=".56" d="M436.598 336.836h-13.851v13.851h13.851v-13.851z" fill="#F2F2F2"/><path opacity=".27" d="M450.449 336.836h-13.851v13.851h13.851v-13.851z" fill="#F2F2F2"/><path d="M464.3 336.836h-13.851v13.851H464.3v-13.851z" fill="#F2F2F2"/><path opacity=".21" d="M478.151 336.836H464.3v13.851h13.851v-13.851zm27.702 0h-13.851v13.851h13.851v-13.851z" fill="#F2F2F2"/><path opacity=".21" d="M519.704 336.836h-13.851v13.851h13.851v-13.851z" fill="#F2F2F2"/><path d="M533.556 336.836h-13.852v13.851h13.852v-13.851zm-138.511 13.851h-13.852v13.851h13.852v-13.851z" fill="#F2F2F2"/><path opacity=".21" d="M408.896 350.687h-13.852v13.851h13.852v-13.851z" fill="#F2F2F2"/><path d="M422.747 350.687h-13.851v13.851h13.851v-13.851z" fill="#fff"/><path opacity=".23" d="M436.598 350.687h-13.851v13.851h13.851v-13.851z" fill="#F2F2F2"/><path opacity=".21" d="M450.449 350.687h-13.851v13.851h13.851v-13.851zm13.851 0h-13.851v13.851H464.3v-13.851z" fill="#F2F2F2"/><path d="M478.151 350.687H464.3v13.851h13.851v-13.851z" fill="#F2F2F2"/><path d="M492.002 350.687h-13.851v13.851h13.851v-13.851z" fill="#fff"/><path opacity=".46" d="M505.853 350.687h-13.851v13.851h13.851v-13.851z" fill="#F2F2F2"/><path d="M519.704 350.687h-13.851v13.851h13.851v-13.851z" fill="#F2F2F2"/><path d="M533.556 350.687h-13.852v13.851h13.852v-13.851z" fill="#fff"/><path opacity=".46" d="M395.045 364.538h-13.852v13.851h13.852v-13.851z" fill="#F2F2F2"/><path opacity=".27" d="M422.747 364.538h-13.851v13.851h13.851v-13.851z" fill="#F2F2F2"/><path d="M436.598 364.538h-13.851v13.851h13.851v-13.851zm13.851 0h-13.851v13.851h13.851v-13.851z" fill="#fff"/><path opacity=".05" d="M464.3 364.538h-13.851v13.851H464.3v-13.851z" fill="#F2F2F2"/><path d="M478.151 364.538H464.3v13.851h13.851v-13.851z" fill="#fff"/><path opacity=".27" d="M492.002 364.538h-13.851v13.851h13.851v-13.851z" fill="#F2F2F2"/><path opacity=".05" d="M505.853 364.538h-13.851v13.851h13.851v-13.851z" fill="#F2F2F2"/><path opacity=".56" d="M519.704 364.538h-13.851v13.851h13.851v-13.851z" fill="#F2F2F2"/><path d="M533.556 364.538h-13.852v13.851h13.852v-13.851z" fill="#fff"/><path opacity=".27" d="M395.045 378.389h-13.852v13.851h13.852v-13.851z" fill="#F2F2F2"/><path opacity=".03" d="M408.896 378.389h-13.852v13.851h13.852v-13.851z" fill="#F2F2F2"/><path opacity=".56" d="M422.747 378.389h-13.851v13.851h13.851v-13.851z" fill="#F2F2F2"/><path opacity=".05" d="M436.598 378.389h-13.851v13.851h13.851v-13.851z" fill="#F2F2F2"/><path d="M450.449 378.389h-13.851v13.851h13.851v-13.851z" fill="#F2F2F2"/><path d="M464.3 378.389h-13.851v13.851H464.3v-13.851z" fill="#fff"/><path opacity=".05" d="M478.151 378.389H464.3v13.851h13.851v-13.851z" fill="#F2F2F2"/><path opacity=".56" d="M492.002 378.389h-13.851v13.851h13.851v-13.851z" fill="#fff"/><path opacity=".27" d="M505.853 378.389h-13.851v13.851h13.851v-13.851z" fill="#F2F2F2"/><path opacity=".46" d="M519.704 378.389h-13.851v13.851h13.851v-13.851z" fill="#F2F2F2"/><path opacity=".05" d="M533.556 378.389h-13.852v13.851h13.852v-13.851z" fill="#E6E6E6"/><path opacity=".32" d="M325.789 392.24h-13.851v13.851h13.851V392.24z" fill="#fff"/><path opacity=".32" d="M339.64 392.24h-13.851v13.851h13.851V392.24zm13.851 0H339.64v13.851h13.851V392.24z" fill="#F2F2F2"/><path opacity=".32" d="M367.342 392.24h-13.851v13.851h13.851V392.24z" fill="#fff"/><path opacity=".39" d="M381.193 392.24h-13.851v13.851h13.851V392.24z" fill="#F2F2F2"/><path d="M395.045 392.24h-13.852v13.851h13.852V392.24z" fill="#fff"/><path d="M408.896 392.24h-13.852v13.851h13.852V392.24z" fill="#F2F2F2"/><path opacity=".56" d="M422.747 392.24h-13.851v13.851h13.851V392.24z" fill="#F2F2F2"/><path d="M436.598 392.24h-13.851v13.851h13.851V392.24z" fill="#fff"/><path opacity=".05" d="M450.449 392.24h-13.851v13.851h13.851V392.24z" fill="#F2F2F2"/><path d="M464.3 392.24h-13.851v13.851H464.3V392.24z" fill="#fff"/><path d="M478.151 392.24H464.3v13.851h13.851V392.24z" fill="#F2F2F2"/><path d="M492.002 392.24h-13.851v13.851h13.851V392.24z" fill="#fff"/><path opacity=".05" d="M505.853 392.24h-13.851v13.851h13.851V392.24z" fill="#F2F2F2"/><path opacity=".05" d="M519.704 392.24h-13.851v13.851h13.851V392.24z" fill="#F2F2F2"/><path opacity=".42" d="M533.556 392.24h-13.852v13.851h13.852V392.24z" fill="#F2F2F2"/><path opacity=".19" d="M381.193 406.091h-13.851v13.852h13.851v-13.852z" fill="#F2F2F2"/><path opacity=".03" d="M395.045 406.091h-13.852v13.852h13.852v-13.852z" fill="#F2F2F2"/><path opacity=".56" d="M408.896 406.091h-13.852v13.852h13.852v-13.852z" fill="#F2F2F2"/><path opacity=".03" d="M422.747 406.091h-13.851v13.852h13.851v-13.852z" fill="#F2F2F2"/><path opacity=".56" d="M436.598 406.091h-13.851v13.852h13.851v-13.852z" fill="#F2F2F2"/><path opacity=".16" d="M450.449 406.091h-13.851v13.852h13.851v-13.852z" fill="#F2F2F2"/><path opacity=".56" d="M464.3 406.091h-13.851v13.852H464.3v-13.852z" fill="#F2F2F2"/><path opacity=".46" d="M478.151 406.091H464.3v13.852h13.851v-13.852z" fill="#F2F2F2"/><path d="M492.002 406.091h-13.851v13.852h13.851v-13.852z" fill="#F2F2F2"/><path opacity=".27" d="M505.853 406.091h-13.851v13.852h13.851v-13.852z" fill="#F2F2F2"/><path opacity=".42" d="M519.704 406.091h-13.851v13.852h13.851v-13.852zm13.852 0h-13.852v13.852h13.852v-13.852z" fill="#F2F2F2"/><path opacity=".31" d="M395.045 419.943h-13.852v13.851h13.852v-13.851z" fill="#F2F2F2"/><path opacity=".03" d="M408.896 419.943h-13.852v13.851h13.852v-13.851z" fill="#E6E6E6"/><path opacity=".31" d="M422.747 419.943h-13.851v13.851h13.851v-13.851z" fill="#F2F2F2"/><path opacity=".46" d="M450.449 419.943h-13.851v13.851h13.851v-13.851z" fill="#F2F2F2"/><path opacity=".31" d="M464.3 419.943h-13.851v13.851H464.3v-13.851zm27.702 0h-13.851v13.851h13.851v-13.851zm13.851 0h-13.851v13.851h13.851v-13.851zm-110.808 13.851h-13.852v13.851h13.852v-13.851zm96.957 0h-13.851v13.851h13.851v-13.851zm13.851 0h-13.851v13.851h13.851v-13.851z" fill="#F2F2F2"/><path opacity=".11" d="M395.045 447.645h-13.852v13.851h13.852v-13.851z" fill="#F2F2F2"/><path opacity=".31" d="M492.002 447.645h-13.851v13.851h13.851v-13.851z" fill="#F2F2F2"/><path opacity=".16" d="M505.853 447.645h-13.851v13.851h13.851v-13.851z" fill="#CCC"/><path opacity=".31" d="M492.002 477.481h-13.851v13.851h13.851v-13.851z" fill="#F2F2F2"/><path d="M325.789 406.091h-13.851v13.852h13.851v-13.852zm13.851 0h-13.851v13.852h13.851v-13.852zm13.851 0H339.64v13.852h13.851v-13.852zm13.851 0h-13.851v13.852h13.851v-13.852z" fill="#fff"/><path opacity=".31" d="M325.789 419.943h-13.851v13.851h13.851v-13.851zm13.851 0h-13.851v13.851h13.851v-13.851zm13.851 0H339.64v13.851h13.851v-13.851zm13.851 0h-13.851v13.851h13.851v-13.851z" fill="#fff"/><path opacity=".42" d="M519.704 419.943h-13.851v13.851h13.851v-13.851z" fill="#fff"/><path opacity=".31" d="M325.789 433.794h-13.851v13.851h13.851v-13.851zm13.851 0h-13.851v13.851h13.851v-13.851zm13.851 0H339.64v13.851h13.851v-13.851zm13.851 0h-13.851v13.851h13.851v-13.851zm41.554 0h-13.852v13.851h13.852v-13.851zm13.851 0h-13.851v13.851h13.851v-13.851zm13.851 0h-13.851v13.851h13.851v-13.851zm13.851 0h-13.851v13.851h13.851v-13.851zm13.851 0h-13.851v13.851H464.3v-13.851zm13.851 0H464.3v13.851h13.851v-13.851zm41.553 0h-13.851v13.851h13.851v-13.851zm13.852 0h-13.852v13.851h13.852v-13.851zm-207.767 13.851h-13.851v13.851h13.851v-13.851zm13.851 0h-13.851v13.851h13.851v-13.851z" fill="#fff"/><path opacity=".19" d="M353.491 447.645H339.64v13.851h13.851v-13.851z" fill="#F2F2F2"/><path opacity=".31" d="M367.342 447.645h-13.851v13.851h13.851v-13.851zm41.554 0h-13.852v13.851h13.852v-13.851zm13.851 0h-13.851v13.851h13.851v-13.851zm13.851 0h-13.851v13.851h13.851v-13.851zm13.851 0h-13.851v13.851h13.851v-13.851zm13.851 0h-13.851v13.851H464.3v-13.851zm13.851 0H464.3v13.851h13.851v-13.851zm41.553 0h-13.851v13.851h13.851v-13.851zm13.852 0h-13.852v13.851h13.852v-13.851zm-207.767 13.851h-13.851v13.851h13.851v-13.851zm27.702 0H339.64v13.851h13.851v-13.851zm13.851 0h-13.851v13.851h13.851v-13.851zm55.405 0h-13.851v13.851h13.851v-13.851zm13.851 0h-13.851v13.851h13.851v-13.851zm13.851 0h-13.851v13.851h13.851v-13.851zm13.851 0h-13.851v13.851H464.3v-13.851zm13.851 0H464.3v13.851h13.851v-13.851zm41.553 0h-13.851v13.851h13.851v-13.851z" fill="#fff"/><path d="M547.407 253.729h-13.851v13.851h13.851v-13.851z" fill="#fff"/><path opacity=".05" d="M561.258 253.729h-13.851v13.851h13.851v-13.851z" fill="#F2F2F2"/><path opacity=".05" d="M575.109 253.729h-13.851v13.851h13.851v-13.851z" fill="#B3B3B3"/><path opacity=".03" d="M588.96 253.729h-13.851v13.851h13.851v-13.851z" fill="#F2F2F2"/><path d="M602.811 253.729H588.96v13.851h13.851v-13.851z" fill="#F2F2F2"/><path opacity=".22" d="M547.407 267.58h-13.851v13.851h13.851V267.58z" fill="#F2F2F2"/><path opacity=".22" d="M561.258 267.58h-13.851v13.851h13.851V267.58z" fill="#CCC"/><path opacity=".22" d="M575.109 267.58h-13.851v13.851h13.851V267.58zm13.851 0h-13.851v13.851h13.851V267.58zm13.851 0H588.96v13.851h13.851V267.58zm-55.404 13.851h-13.851v13.852h13.851v-13.852zm13.851 0h-13.851v13.852h13.851v-13.852zm13.851 0h-13.851v13.852h13.851v-13.852zm13.851 0h-13.851v13.852h13.851v-13.852z" fill="#F2F2F2"/><path opacity=".16" d="M602.811 281.431H588.96v13.852h13.851v-13.852z" fill="gray"/><path opacity=".22" d="M547.407 295.283h-13.851v13.851h13.851v-13.851z" fill="#fff"/><path opacity=".22" d="M561.258 295.283h-13.851v13.851h13.851v-13.851zm13.851 0h-13.851v13.851h13.851v-13.851z" fill="#F2F2F2"/><path opacity=".22" d="M588.96 295.283h-13.851v13.851h13.851v-13.851z" fill="#fff"/><path opacity=".22" d="M547.407 309.134h-13.851v13.851h13.851v-13.851z" fill="#F2F2F2"/><path opacity=".22" d="M561.258 309.134h-13.851v13.851h13.851v-13.851z" fill="#CCC"/><path opacity=".16" d="M575.109 309.134h-13.851v13.851h13.851v-13.851z" fill="#F2F2F2"/><path opacity=".22" d="M588.96 309.134h-13.851v13.851h13.851v-13.851z" fill="#F2F2F2"/><path opacity=".46" d="M602.811 309.134H588.96v13.851h13.851v-13.851z" fill="#F2F2F2"/><path opacity=".22" d="M547.407 322.985h-13.851v13.851h13.851v-13.851zm13.851 0h-13.851v13.851h13.851v-13.851zm13.851 0h-13.851v13.851h13.851v-13.851zm13.851 0h-13.851v13.851h13.851v-13.851zm13.851 0H588.96v13.851h13.851v-13.851zm-55.404 13.851h-13.851v13.851h13.851v-13.851z" fill="#F2F2F2"/><path opacity=".22" d="M561.258 336.836h-13.851v13.851h13.851v-13.851z" fill="#E6E6E6"/><path opacity=".22" d="M575.109 336.836h-13.851v13.851h13.851v-13.851z" fill="#F2F2F2"/><path opacity=".22" d="M588.96 336.836h-13.851v13.851h13.851v-13.851z" fill="#E6E6E6"/><path opacity=".22" d="M602.811 336.836H588.96v13.851h13.851v-13.851z" fill="#F2F2F2"/><path opacity=".46" d="M547.407 350.687h-13.851v13.851h13.851v-13.851z" fill="#F2F2F2"/><path opacity=".32" d="M561.258 350.687h-13.851v13.851h13.851v-13.851zm13.851 0h-13.851v13.851h13.851v-13.851zm13.851 0h-13.851v13.851h13.851v-13.851z" fill="#F2F2F2"/><path opacity=".46" d="M602.811 350.687H588.96v13.851h13.851v-13.851z" fill="#F2F2F2"/><path opacity=".16" d="M547.407 364.538h-13.851v13.851h13.851v-13.851z" fill="#B3B3B3"/><path opacity=".32" d="M561.258 364.538h-13.851v13.851h13.851v-13.851z" fill="#F2F2F2"/><path opacity=".16" d="M575.109 364.538h-13.851v13.851h13.851v-13.851z" fill="#B3B3B3"/><path opacity=".32" d="M588.96 364.538h-13.851v13.851h13.851v-13.851z" fill="#F2F2F2"/><path d="M602.811 364.538H588.96v13.851h13.851v-13.851z" fill="#fff"/><path opacity=".32" d="M547.407 378.389h-13.851v13.851h13.851v-13.851zm13.851 0h-13.851v13.851h13.851v-13.851zm27.702 0h-13.851v13.851h13.851v-13.851z" fill="#F2F2F2"/><path d="M602.811 378.389H588.96v13.851h13.851v-13.851z" fill="#F2F2F2"/><path opacity=".03" d="M616.662 253.729h-13.851v13.851h13.851v-13.851z" fill="#B3B3B3"/><path d="M630.513 253.729h-13.851v13.851h13.851v-13.851z" fill="#F2F2F2"/><path opacity=".53" d="M644.364 253.729h-13.851v13.851h13.851v-13.851z" fill="#F2F2F2"/><path opacity=".11" d="M658.215 253.729h-13.851v13.851h13.851v-13.851z" fill="#F2F2F2"/><path d="M672.067 253.729h-13.852v13.851h13.852v-13.851z" fill="#F2F2F2"/><path d="M685.918 253.729h-13.851v13.851h13.851v-13.851z" fill="#fff"/><path d="M699.769 253.729h-13.851v13.851h13.851v-13.851z" fill="#F2F2F2"/><path opacity=".21" d="M713.62 253.729h-13.851v13.851h13.851v-13.851zm13.851 0H713.62v13.851h13.851v-13.851zm13.851 0h-13.851v13.851h13.851v-13.851zm13.851 0h-13.851v13.851h13.851v-13.851z" fill="#F2F2F2"/><path opacity=".22" d="M616.662 267.58h-13.851v13.851h13.851V267.58z" fill="#F2F2F2"/><path opacity=".46" d="M630.513 267.58h-13.851v13.851h13.851V267.58z" fill="#F2F2F2"/><path d="M658.215 267.58h-13.851v13.851h13.851V267.58z" fill="#F2F2F2"/><path d="M672.067 267.58h-13.852v13.851h13.852V267.58z" fill="#fff"/><path opacity=".05" d="M685.918 267.58h-13.851v13.851h13.851V267.58z" fill="#E6E6E6"/><path opacity=".16" d="M699.769 267.58h-13.851v13.851h13.851V267.58z" fill="#F2F2F2"/><path opacity=".21" d="M713.62 267.58h-13.851v13.851h13.851V267.58z" fill="#B3B3B3"/><path opacity=".21" d="M727.471 267.58H713.62v13.851h13.851V267.58zm13.851 0h-13.851v13.851h13.851V267.58z" fill="#F2F2F2"/><path opacity=".22" d="M616.662 281.431h-13.851v13.852h13.851v-13.852z" fill="#F2F2F2"/><path d="M630.513 281.431h-13.851v13.852h13.851v-13.852z" fill="#F2F2F2"/><path d="M644.364 281.431h-13.851v13.852h13.851v-13.852z" fill="#fff"/><path opacity=".05" d="M658.215 281.431h-13.851v13.852h13.851v-13.852z" fill="#F2F2F2"/><path d="M672.067 281.431h-13.852v13.852h13.852v-13.852z" fill="#fff"/><path opacity=".46" d="M685.918 281.431h-13.851v13.852h13.851v-13.852z" fill="#F2F2F2"/><path opacity=".11" d="M699.769 281.431h-13.851v13.852h13.851v-13.852zm13.851 0h-13.851v13.852h13.851v-13.852z" fill="#F2F2F2"/><path opacity=".46" d="M727.471 281.431H713.62v13.852h13.851v-13.852z" fill="#F2F2F2"/><path d="M741.322 281.431h-13.851v13.852h13.851v-13.852z" fill="#F2F2F2"/><path opacity=".46" d="M755.173 281.431h-13.851v13.852h13.851v-13.852z" fill="#F2F2F2"/><path opacity=".22" d="M616.662 295.283h-13.851v13.851h13.851v-13.851z" fill="#F2F2F2"/><path opacity=".46" d="M644.364 295.283h-13.851v13.851h13.851v-13.851z" fill="#F2F2F2"/><path d="M672.067 295.283h-13.852v13.851h13.852v-13.851zm13.851 0h-13.851v13.851h13.851v-13.851z" fill="#F2F2F2"/><path d="M699.769 295.283h-13.851v13.851h13.851v-13.851z" fill="#fff"/><path opacity=".11" d="M713.62 295.283h-13.851v13.851h13.851v-13.851z" fill="#F2F2F2"/><path d="M727.471 295.283H713.62v13.851h13.851v-13.851z" fill="#F2F2F2"/><path opacity=".21" d="M741.322 295.283h-13.851v13.851h13.851v-13.851z" fill="#F2F2F2"/><path opacity=".22" d="M616.662 309.134h-13.851v13.851h13.851v-13.851z" fill="#CCC"/><path opacity=".16" d="M630.513 309.134h-13.851v13.851h13.851v-13.851z" fill="#F2F2F2"/><path opacity=".11" d="M644.364 309.134h-13.851v13.851h13.851v-13.851z" fill="#F2F2F2"/><path d="M658.215 309.134h-13.851v13.851h13.851v-13.851z" fill="#F2F2F2"/><path opacity=".46" d="M672.067 309.134h-13.852v13.851h13.852v-13.851z" fill="#F2F2F2"/><path opacity=".27" d="M699.769 309.134h-13.851v13.851h13.851v-13.851z" fill="#F2F2F2"/><path d="M727.471 309.134H713.62v13.851h13.851v-13.851z" fill="#fff"/><path opacity=".21" d="M741.322 309.134h-13.851v13.851h13.851v-13.851zm13.851 0h-13.851v13.851h13.851v-13.851z" fill="#F2F2F2"/><path opacity=".22" d="M616.662 322.985h-13.851v13.851h13.851v-13.851z" fill="#F2F2F2"/><path opacity=".42" d="M630.513 322.985h-13.851v13.851h13.851v-13.851z" fill="#F2F2F2"/><path opacity=".21" d="M644.364 322.985h-13.851v13.851h13.851v-13.851z" fill="#F2F2F2"/><path opacity=".46" d="M672.067 322.985h-13.852v13.851h13.852v-13.851z" fill="#F2F2F2"/><path opacity=".03" d="M685.918 322.985h-13.851v13.851h13.851v-13.851z" fill="#B3B3B3"/><path d="M699.769 322.985h-13.851v13.851h13.851v-13.851z" fill="#F2F2F2"/><path opacity=".21" d="M713.62 322.985h-13.851v13.851h13.851v-13.851z" fill="#F2F2F2"/><path opacity=".27" d="M727.471 322.985H713.62v13.851h13.851v-13.851z" fill="#F2F2F2"/><path d="M741.322 322.985h-13.851v13.851h13.851v-13.851z" fill="#fff"/><path opacity=".22" d="M616.662 336.836h-13.851v13.851h13.851v-13.851z" fill="#fff"/><path d="M630.513 336.836h-13.851v13.851h13.851v-13.851z" fill="#F2F2F2"/><path opacity=".03" d="M644.364 336.836h-13.851v13.851h13.851v-13.851z" fill="#CCC"/><path opacity=".56" d="M658.215 336.836h-13.851v13.851h13.851v-13.851z" fill="#F2F2F2"/><path opacity=".16" d="M672.067 336.836h-13.852v13.851h13.852v-13.851zm13.851 0h-13.851v13.851h13.851v-13.851z" fill="#F2F2F2"/><path opacity=".21" d="M699.769 336.836h-13.851v13.851h13.851v-13.851z" fill="#F2F2F2"/><path d="M713.62 336.836h-13.851v13.851h13.851v-13.851z" fill="#F2F2F2"/><path opacity=".21" d="M727.471 336.836H713.62v13.851h13.851v-13.851z" fill="#F2F2F2"/><path opacity=".46" d="M741.322 336.836h-13.851v13.851h13.851v-13.851z" fill="#F2F2F2"/><path opacity=".16" d="M616.662 350.687h-13.851v13.851h13.851v-13.851z" fill="#F2F2F2"/><path opacity=".21" d="M630.513 350.687h-13.851v13.851h13.851v-13.851z" fill="#F2F2F2"/><path d="M644.364 350.687h-13.851v13.851h13.851v-13.851z" fill="#F2F2F2"/><path opacity=".27" d="M658.215 350.687h-13.851v13.851h13.851v-13.851z" fill="#F2F2F2"/><path opacity=".21" d="M672.067 350.687h-13.852v13.851h13.852v-13.851zm13.851 0h-13.851v13.851h13.851v-13.851z" fill="#F2F2F2"/><path d="M699.769 350.687h-13.851v13.851h13.851v-13.851z" fill="#F2F2F2"/><path opacity=".46" d="M713.62 350.687h-13.851v13.851h13.851v-13.851z" fill="#F2F2F2"/><path d="M727.471 350.687H713.62v13.851h13.851v-13.851z" fill="#fff"/><path opacity=".03" d="M616.662 364.538h-13.851v13.851h13.851v-13.851z" fill="#E6E6E6"/><path opacity=".16" d="M644.364 364.538h-13.851v13.851h13.851v-13.851z" fill="#F2F2F2"/><path d="M658.215 364.538h-13.851v13.851h13.851v-13.851z" fill="#fff"/><path d="M672.067 364.538h-13.852v13.851h13.852v-13.851z" fill="#E6E6E6"/><path opacity=".05" d="M685.918 364.538h-13.851v13.851h13.851v-13.851z" fill="#F2F2F2"/><path d="M699.769 364.538h-13.851v13.851h13.851v-13.851z" fill="#fff"/><path d="M713.62 364.538h-13.851v13.851h13.851v-13.851z" fill="#F2F2F2"/><path opacity=".05" d="M727.471 364.538H713.62v13.851h13.851v-13.851z" fill="#F2F2F2"/><path opacity=".56" d="M741.322 364.538h-13.851v13.851h13.851v-13.851z" fill="#F2F2F2"/><path d="M755.173 364.538h-13.851v13.851h13.851v-13.851z" fill="#fff"/><path opacity=".23" d="M616.662 378.389h-13.851v13.851h13.851v-13.851z" fill="#F2F2F2"/><path opacity=".03" d="M630.513 378.389h-13.851v13.851h13.851v-13.851z" fill="#F2F2F2"/><path opacity=".27" d="M644.364 378.389h-13.851v13.851h13.851v-13.851z" fill="#F2F2F2"/><path opacity=".05" d="M658.215 378.389h-13.851v13.851h13.851v-13.851z" fill="#F2F2F2"/><path d="M672.067 378.389h-13.852v13.851h13.852v-13.851z" fill="#F2F2F2"/><path opacity=".23" d="M685.918 378.389h-13.851v13.851h13.851v-13.851z" fill="#F2F2F2"/><path opacity=".05" d="M699.769 378.389h-13.851v13.851h13.851v-13.851z" fill="#F2F2F2"/><path opacity=".56" d="M713.62 378.389h-13.851v13.851h13.851v-13.851z" fill="#F2F2F2"/><path d="M727.471 378.389H713.62v13.851h13.851v-13.851z" fill="#F2F2F2"/><path opacity=".42" d="M741.322 378.389h-13.851v13.851h13.851v-13.851z" fill="#F2F2F2"/><path opacity=".05" d="M755.173 378.389h-13.851v13.851h13.851v-13.851z" fill="#E6E6E6"/><path opacity=".32" d="M547.407 392.24h-13.851v13.851h13.851V392.24z" fill="#fff"/><path opacity=".32" d="M561.258 392.24h-13.851v13.851h13.851V392.24zm13.851 0h-13.851v13.851h13.851V392.24z" fill="#F2F2F2"/><path opacity=".32" d="M588.96 392.24h-13.851v13.851h13.851V392.24z" fill="#fff"/><path opacity=".39" d="M602.811 392.24H588.96v13.851h13.851V392.24z" fill="#F2F2F2"/><path d="M616.662 392.24h-13.851v13.851h13.851V392.24zm13.851 0h-13.851v13.851h13.851V392.24z" fill="#fff"/><path opacity=".56" d="M644.364 392.24h-13.851v13.851h13.851V392.24z" fill="#F2F2F2"/><path d="M658.215 392.24h-13.851v13.851h13.851V392.24z" fill="#fff"/><path opacity=".05" d="M672.067 392.24h-13.852v13.851h13.852V392.24z" fill="#F2F2F2"/><path opacity=".46" d="M685.918 392.24h-13.851v13.851h13.851V392.24z" fill="#F2F2F2"/><path d="M699.769 392.24h-13.851v13.851h13.851V392.24z" fill="#F2F2F2"/><path opacity=".23" d="M713.62 392.24h-13.851v13.851h13.851V392.24z" fill="#CCC"/><path opacity=".05" d="M727.471 392.24H713.62v13.851h13.851V392.24zm13.851 0h-13.851v13.851h13.851V392.24z" fill="#F2F2F2"/><path opacity=".19" d="M602.811 406.091H588.96v13.852h13.851v-13.852z" fill="#F2F2F2"/><path opacity=".03" d="M616.662 406.091h-13.851v13.852h13.851v-13.852z" fill="#F2F2F2"/><path opacity=".56" d="M630.513 406.091h-13.851v13.852h13.851v-13.852z" fill="#F2F2F2"/><path opacity=".03" d="M644.364 406.091h-13.851v13.852h13.851v-13.852z" fill="#F2F2F2"/><path opacity=".27" d="M658.215 406.091h-13.851v13.852h13.851v-13.852zm13.852 0h-13.852v13.852h13.852v-13.852zm13.851 0h-13.851v13.852h13.851v-13.852z" fill="#F2F2F2"/><path opacity=".05" d="M699.769 406.091h-13.851v13.852h13.851v-13.852zm13.851 0h-13.851v13.852h13.851v-13.852z" fill="#F2F2F2"/><path opacity=".31" d="M616.662 419.943h-13.851v13.851h13.851v-13.851z" fill="#F2F2F2"/><path opacity=".03" d="M630.513 419.943h-13.851v13.851h13.851v-13.851z" fill="#E6E6E6"/><path opacity=".31" d="M644.364 419.943h-13.851v13.851h13.851v-13.851zm27.703 0h-13.852v13.851h13.852v-13.851zm13.851 0h-13.851v13.851h13.851v-13.851zm27.702 0h-13.851v13.851h13.851v-13.851zm13.851 0H713.62v13.851h13.851v-13.851zm-110.809 13.851h-13.851v13.851h13.851v-13.851zm96.958 0h-13.851v13.851h13.851v-13.851zm13.851 0H713.62v13.851h13.851v-13.851z" fill="#F2F2F2"/><path opacity=".11" d="M616.662 447.645h-13.851v13.851h13.851v-13.851z" fill="#F2F2F2"/><path opacity=".31" d="M713.62 447.645h-13.851v13.851h13.851v-13.851z" fill="#F2F2F2"/><path opacity=".27" d="M756.672 447.645h-13.851v13.851h13.851v-13.851z" fill="#CCC"/><path opacity=".31" d="M713.62 461.496h-13.851v13.851h13.851v-13.851zm13.851 0H713.62v13.851h13.851v-13.851z" fill="#F2F2F2"/><path d="M547.407 406.091h-13.851v13.852h13.851v-13.852zm13.851 0h-13.851v13.852h13.851v-13.852zm13.851 0h-13.851v13.852h13.851v-13.852zm13.851 0h-13.851v13.852h13.851v-13.852z" fill="#fff"/><path opacity=".31" d="M547.407 419.943h-13.851v13.851h13.851v-13.851zm13.851 0h-13.851v13.851h13.851v-13.851zm13.851 0h-13.851v13.851h13.851v-13.851zm13.851 0h-13.851v13.851h13.851v-13.851z" fill="#fff"/><path opacity=".42" d="M741.322 419.943h-13.851v13.851h13.851v-13.851z" fill="#fff"/><path opacity=".31" d="M547.407 433.794h-13.851v13.851h13.851v-13.851zm13.851 0h-13.851v13.851h13.851v-13.851zm13.851 0h-13.851v13.851h13.851v-13.851zm13.851 0h-13.851v13.851h13.851v-13.851zm41.553 0h-13.851v13.851h13.851v-13.851zm13.851 0h-13.851v13.851h13.851v-13.851zm13.851 0h-13.851v13.851h13.851v-13.851zm13.852 0h-13.852v13.851h13.852v-13.851zm13.851 0h-13.851v13.851h13.851v-13.851zm13.851 0h-13.851v13.851h13.851v-13.851zm41.553 0h-13.851v13.851h13.851v-13.851zm13.851 0h-13.851v13.851h13.851v-13.851zm-207.766 13.851h-13.851v13.851h13.851v-13.851zm13.851 0h-13.851v13.851h13.851v-13.851z" fill="#fff"/><path opacity=".19" d="M575.109 447.645h-13.851v13.851h13.851v-13.851z" fill="#F2F2F2"/><path opacity=".31" d="M588.96 447.645h-13.851v13.851h13.851v-13.851zm41.553 0h-13.851v13.851h13.851v-13.851zm13.851 0h-13.851v13.851h13.851v-13.851zm13.851 0h-13.851v13.851h13.851v-13.851zm13.852 0h-13.852v13.851h13.852v-13.851zm13.851 0h-13.851v13.851h13.851v-13.851zm13.851 0h-13.851v13.851h13.851v-13.851zm70.754 0h-13.851v13.851h13.851v-13.851zm13.851 0h-13.851v13.851h13.851v-13.851zm-236.967 13.851h-13.851v13.851h13.851v-13.851zm27.702 0h-13.851v13.851h13.851v-13.851zm69.255 0h-13.851v13.851h13.851v-13.851zm13.851 0h-13.851v13.851h13.851v-13.851zm13.852 0h-13.852v13.851h13.852v-13.851zm13.851 0h-13.851v13.851h13.851v-13.851zm13.851 0h-13.851v13.851h13.851v-13.851zm41.553 0h-13.851v13.851h13.851v-13.851z" fill="#fff"/><path d="M826.638 350.687h-13.852v13.851h13.852v-13.851z" fill="#F2F2F2"/><path opacity=".46" d="M840.489 350.687h-13.852v13.851h13.852v-13.851z" fill="#F2F2F2"/><path opacity=".31" d="M805.566 226.027h-13.851v13.851h13.851v-13.851z" fill="#F2F2F2"/><path opacity=".31" d="M819.417 226.027h-13.851v13.851h13.851v-13.851z" fill="#CCC"/><path opacity=".42" d="M844.803 170.623h-13.851v13.851h13.851v-13.851zm0 13.851h-13.851v13.851h13.851v-13.851z" fill="#F2F2F2"/><path d="M830.271 115.218h-13.852v13.851h13.852v-13.851zm21.117-83.106h-13.851v13.85h13.851v-13.85zm-13.851 13.851h-13.851v13.85h13.851v-13.85z" fill="#F2F2F2"/><path d="M851.388 45.963h-13.851v13.85h13.851v-13.85z" fill="#E6E6E6"/><path d="M851.388 59.814h-13.851v13.85h13.851v-13.85z" fill="#F2F2F2"/><path opacity=".22" d="M429.967 354.381h-13.851v13.851h13.851v-13.851z" fill="#F2F2F2"/><path opacity=".32" d="M429.967 382.083h-13.851v13.851h13.851v-13.851z" fill="#F2F2F2"/><path opacity=".05" d="M429.967 395.934h-13.851v13.851h13.851v-13.851z" fill="#B3B3B3"/><path opacity=".32" d="M443.818 409.785h-13.851v13.851h13.851v-13.851z" fill="#F2F2F2"/><path opacity=".22" d="M372.564 77.359h-13.851v13.85h13.851V77.36zm0 13.851h-13.851v13.851h13.851V91.21z" fill="#F2F2F2"/><path opacity=".22" d="M386.415 118.912h-13.851v13.851h13.851v-13.851z" fill="#CCC"/><path opacity=".32" d="M392.909 382.083h-13.851v13.851h13.851v-13.851zm13.851 0h-13.851v13.851h13.851v-13.851zm13.851 0H406.76v13.851h13.851v-13.851z" fill="#F2F2F2"/><path opacity=".42" d="M950.314 423.636h-13.851v13.851h13.851v-13.851z" fill="#F2F2F2"/><path d="M922.612 437.487h-13.851v13.852h13.851v-13.852z" fill="#F2F2F2"/><path opacity=".42" d="M936.463 437.487h-13.851v13.852h13.851v-13.852zm13.851 0h-13.851v13.852h13.851v-13.852z" fill="#F2F2F2"/><path opacity=".31" d="M526.788 541.62h-13.851v13.852h13.851V541.62zm13.851 0h-13.851v13.852h13.851V541.62zm110.219 5.813h-13.851v13.852h13.851v-13.852zm-179.429-19.618h-13.851v13.851h13.851v-13.851zm13.851 0h-13.851v13.851h13.851v-13.851z" fill="#F2F2F2"/><path opacity=".31" d="M457.578 529.145h-13.851v13.851h13.851v-13.851z" fill="#fff"/><path d="M986.599 340.348h-13.851v13.851h13.851v-13.851zm-13.851 13.851h-13.851v13.851h13.851v-13.851zm13.851 0h-13.851v13.851h13.851v-13.851z" fill="#F2F2F2"/><path opacity=".22" d="M996 231.356h-13.851v13.851H996v-13.851z" fill="#CCC"/><path d="M989.46 181.219h-13.851v13.851h13.851v-13.851zM33.12 398.369H19.27v13.851h13.85v-13.851zm13.852 0H33.12v13.851h13.85v-13.851zm13.851 0H46.972v13.851h13.85v-13.851zm-46.972-71.823H0v13.851h13.851v-13.851z" fill="#F2F2F2"/><path d="M201.128 412.328h-13.851v13.851h13.851v-13.851z" fill="#E6E6E6"/><path d="M60.823 412.22H46.972v13.851h13.85V412.22z" fill="#F2F2F2"/><path opacity=".21" d="M842.9.716h-13.851v13.85H842.9V.717zm13.851 0H842.9v13.85h13.851V.717zm13.851 0h-13.851v13.85h13.851V.717zm13.851 0h-13.851v13.85h13.851V.717z" fill="#F2F2F2"/><path opacity=".21" d="M842.9 14.567h-13.851v13.85H842.9v-13.85z" fill="#B3B3B3"/><path opacity=".21" d="M856.751 14.567H842.9v13.85h13.851v-13.85zm13.851 0h-13.851v13.85h13.851v-13.85z" fill="#F2F2F2"/><path d="M672.069 17.337h-13.852v13.851h13.852V17.337z" fill="#F2F2F2"/><path opacity=".05" d="M685.92 17.337h-13.851v13.851h13.851V17.337z" fill="#B3B3B3"/><path opacity=".21" d="M74.674 412.22H60.823v13.851h13.851V412.22z" fill="#B3B3B3"/></g></svg>