<svg width="996" height="562" viewBox="0 0 996 562" fill="none" xmlns="http://www.w3.org/2000/svg">
<g style="mix-blend-mode:multiply" opacity="0.5">
<path opacity="0.22" d="M429.967 340.53H416.116V354.381H429.967V340.53Z" fill="#F2F2F2"/>
<path opacity="0.16" d="M443.818 340.53H429.967V354.381H443.818V340.53Z" fill="#CCCCCC"/>
<path d="M325.789 32.1116H311.938V45.9627H325.789V32.1116Z" fill="white"/>
<path opacity="0.05" d="M353.491 32.1116H339.64V45.9627H353.491V32.1116Z" fill="#B3B3B3"/>
<path opacity="0.03" d="M367.342 32.1116H353.491V45.9627H367.342V32.1116Z" fill="#F2F2F2"/>
<path opacity="0.22" d="M353.491 45.9627H339.64V59.8138H353.491V45.9627Z" fill="#F2F2F2"/>
<path opacity="0.22" d="M367.342 45.9627H353.491V59.8138H367.342V45.9627Z" fill="#F2F2F2"/>
<path opacity="0.22" d="M381.193 45.9627H367.342V59.8138H381.193V45.9627Z" fill="#F2F2F2"/>
<path opacity="0.22" d="M339.64 59.8138H325.789V73.6649H339.64V59.8138Z" fill="#F2F2F2"/>
<path opacity="0.22" d="M353.491 59.8138H339.64V73.6649H353.491V59.8138Z" fill="#F2F2F2"/>
<path opacity="0.22" d="M367.342 59.8138H353.491V73.6649H367.342V59.8138Z" fill="#F2F2F2"/>
<path opacity="0.22" d="M325.789 73.6649H311.938V87.516H325.789V73.6649Z" fill="white"/>
<path opacity="0.22" d="M339.64 73.6649H325.789V87.516H339.64V73.6649Z" fill="#F2F2F2"/>
<path opacity="0.22" d="M353.491 73.6649H339.64V87.516H353.491V73.6649Z" fill="#F2F2F2"/>
<path opacity="0.22" d="M367.342 73.6649H353.491V87.516H367.342V73.6649Z" fill="white"/>
<path opacity="0.14" d="M381.193 73.6649H367.342V87.516H381.193V73.6649Z" fill="#F2F2F2"/>
<path opacity="0.22" d="M325.789 87.516H311.938V101.367H325.789V87.516Z" fill="#F2F2F2"/>
<path opacity="0.11" d="M353.491 87.516H339.64V101.367H353.491V87.516Z" fill="#F2F2F2"/>
<path opacity="0.22" d="M367.342 87.516H353.491V101.367H367.342V87.516Z" fill="#F2F2F2"/>
<path opacity="0.14" d="M381.193 87.516H367.342V101.367H381.193V87.516Z" fill="#F2F2F2"/>
<path opacity="0.22" d="M325.789 101.367H311.938V115.218H325.789V101.367Z" fill="#F2F2F2"/>
<path opacity="0.22" d="M339.64 101.367H325.789V115.218H339.64V101.367Z" fill="#F2F2F2"/>
<path opacity="0.22" d="M353.491 101.367H339.64V115.218H353.491V101.367Z" fill="white"/>
<path opacity="0.22" d="M367.342 101.367H353.491V115.218H367.342V101.367Z" fill="#F2F2F2"/>
<path opacity="0.14" d="M381.193 101.367H367.342V115.218H381.193V101.367Z" fill="#F2F2F2"/>
<path opacity="0.22" d="M325.789 115.218H311.938V129.069H325.789V115.218Z" fill="#F2F2F2"/>
<path opacity="0.22" d="M339.64 115.218H325.789V129.069H339.64V115.218Z" fill="#E6E6E6"/>
<path opacity="0.22" d="M353.491 115.218H339.64V129.069H353.491V115.218Z" fill="white"/>
<path opacity="0.22" d="M367.342 115.218H353.491V129.069H367.342V115.218Z" fill="#E6E6E6"/>
<path opacity="0.32" d="M325.789 129.069H311.938V142.92H325.789V129.069Z" fill="#F2F2F2"/>
<path opacity="0.32" d="M339.64 129.069H325.789V142.92H339.64V129.069Z" fill="white"/>
<path opacity="0.32" d="M353.491 129.069H339.64V142.92H353.491V129.069Z" fill="#F2F2F2"/>
<path opacity="0.32" d="M367.342 129.069H353.491V142.92H367.342V129.069Z" fill="#F2F2F2"/>
<path opacity="0.14" d="M381.193 129.069H367.342V142.92H381.193V129.069Z" fill="#F2F2F2"/>
<path opacity="0.05" d="M325.789 142.92H311.938V156.772H325.789V142.92Z" fill="#B3B3B3"/>
<path opacity="0.32" d="M339.64 142.92H325.789V156.772H339.64V142.92Z" fill="#F2F2F2"/>
<path opacity="0.05" d="M353.491 142.92H339.64V156.772H353.491V142.92Z" fill="#B3B3B3"/>
<path opacity="0.32" d="M367.342 142.92H353.491V156.772H367.342V142.92Z" fill="#F2F2F2"/>
<path opacity="0.14" d="M381.193 142.92H367.342V156.772H381.193V142.92Z" fill="white"/>
<path opacity="0.32" d="M325.789 156.771H311.938V170.623H325.789V156.771Z" fill="#F2F2F2"/>
<path opacity="0.32" d="M339.64 156.771H325.789V170.623H339.64V156.771Z" fill="white"/>
<path opacity="0.32" d="M367.342 156.771H353.491V170.623H367.342V156.771Z" fill="#F2F2F2"/>
<path d="M381.193 156.771H367.342V170.623H381.193V156.771Z" fill="#F2F2F2"/>
<path opacity="0.03" d="M395.045 32.1116H381.193V45.9627H395.045V32.1116Z" fill="#B3B3B3"/>
<path opacity="0.53" d="M422.747 32.1116H408.896V45.9627H422.747V32.1116Z" fill="#F2F2F2"/>
<path opacity="0.11" d="M436.598 32.1116H422.747V45.9627H436.598V32.1116Z" fill="#F2F2F2"/>
<path opacity="0.21" d="M492.002 32.1116H478.151V45.9627H492.002V32.1116Z" fill="#F2F2F2"/>
<path opacity="0.21" d="M505.853 32.1116H492.002V45.9627H505.853V32.1116Z" fill="#F2F2F2"/>
<path opacity="0.21" d="M519.704 32.1116H505.853V45.9627H519.704V32.1116Z" fill="#F2F2F2"/>
<path opacity="0.21" d="M533.556 32.1116H519.704V45.9627H533.556V32.1116Z" fill="#F2F2F2"/>
<path opacity="0.22" d="M395.045 45.9627H381.193V59.8138H395.045V45.9627Z" fill="#F2F2F2"/>
<path opacity="0.21" d="M505.853 45.9627H492.002V59.8138H505.853V45.9627Z" fill="#F2F2F2"/>
<path opacity="0.21" d="M519.704 45.9627H505.853V59.8138H519.704V45.9627Z" fill="#F2F2F2"/>
<path opacity="0.21" d="M533.556 45.9627H519.704V59.8138H533.556V45.9627Z" fill="#F2F2F2"/>
<path opacity="0.05" d="M395.045 59.8138H381.193V73.6649H395.045V59.8138Z" fill="#F2F2F2"/>
<path d="M408.896 59.8138H395.044V73.6649H408.896V59.8138Z" fill="#F2F2F2"/>
<path opacity="0.05" d="M408.896 59.8138H422.747V73.6649H408.896" fill="#F2F2F2"/>
<path opacity="0.05" d="M436.598 59.8138H422.747V73.6649H436.598V59.8138Z" fill="#F2F2F2"/>
<path opacity="0.11" d="M478.151 59.8138H464.3V73.6649H478.151V59.8138Z" fill="#F2F2F2"/>
<path opacity="0.11" d="M492.002 59.8138H478.151V73.6649H492.002V59.8138Z" fill="#F2F2F2"/>
<path opacity="0.05" d="M505.853 59.8138H492.002V73.6649H505.853V59.8138Z" fill="#E6E6E6"/>
<path d="M519.704 59.8138H505.853V73.6649H519.704V59.8138Z" fill="white"/>
<path d="M533.556 59.8138H519.704V73.6649H533.556V59.8138Z" fill="white"/>
<path opacity="0.14" d="M395.045 73.6649H381.193V87.516H395.045V73.6649Z" fill="#F2F2F2"/>
<path opacity="0.14" d="M408.896 73.6649H395.044V87.516H408.896V73.6649Z" fill="#F2F2F2"/>
<path opacity="0.14" d="M422.747 73.6649H408.896V87.516H422.747V73.6649Z" fill="#F2F2F2"/>
<path opacity="0.14" d="M436.598 73.6649V87.516H422.747V73.6649" fill="#E6E6E6"/>
<path opacity="0.11" d="M492.002 73.6649H478.151V87.516H492.002V73.6649Z" fill="#F2F2F2"/>
<path d="M505.853 73.6649H492.002V87.516H505.853V73.6649Z" fill="#F2F2F2"/>
<path opacity="0.21" d="M519.704 73.6649H505.853V87.516H519.704V73.6649Z" fill="#F2F2F2"/>
<path d="M533.556 73.6649H519.704V87.516H533.556V73.6649Z" fill="#F2F2F2"/>
<path opacity="0.14" d="M395.045 87.516H381.193V101.367H395.045V87.516Z" fill="#CCCCCC"/>
<path opacity="0.14" d="M408.896 87.516H395.044V101.367H408.896V87.516Z" fill="#F2F2F2"/>
<path opacity="0.14" d="M422.747 87.516H408.896V101.367H422.747V87.516Z" fill="#F2F2F2"/>
<path opacity="0.14" d="M436.598 87.516H422.747V101.367H436.598V87.516Z" fill="#F2F2F2"/>
<path opacity="0.14" d="M450.449 87.516H436.598V101.367H450.449V87.516Z" fill="#F2F2F2"/>
<path opacity="0.14" d="M464.3 87.516H450.449V101.367H464.3V87.516Z" fill="#F2F2F2"/>
<path opacity="0.14" d="M478.151 87.516H464.3V101.367H478.151V87.516Z" fill="#F2F2F2"/>
<path d="M505.853 87.516H492.002V101.367H505.853V87.516Z" fill="#F2F2F2"/>
<path opacity="0.21" d="M519.704 87.516H505.853V101.367H519.704V87.516Z" fill="#F2F2F2"/>
<path opacity="0.21" d="M533.556 87.516H519.704V101.367H533.556V87.516Z" fill="#F2F2F2"/>
<path opacity="0.14" d="M395.045 101.367H381.193V115.218H395.045V101.367Z" fill="#F2F2F2"/>
<path opacity="0.14" d="M450.449 101.367H436.598V115.218H450.449V101.367Z" fill="#F2F2F2"/>
<path opacity="0.14" d="M464.3 101.367H450.449V115.218H464.3V101.367Z" fill="#B3B3B3"/>
<path opacity="0.14" d="M478.151 101.367H464.3V115.218H478.151V101.367Z" fill="#F2F2F2"/>
<path opacity="0.14" d="M492.002 101.367H478.151V115.218H492.002V101.367Z" fill="#F2F2F2"/>
<path opacity="0.14" d="M505.853 101.367H492.002V115.218H505.853V101.367Z" fill="white"/>
<path d="M533.556 101.367H519.704V115.218H533.556V101.367Z" fill="white"/>
<path opacity="0.14" d="M395.045 115.218H381.193V129.069H395.045V115.218Z" fill="white"/>
<path opacity="0.14" d="M408.896 115.218H395.044V129.069H408.896V115.218Z" fill="#F2F2F2"/>
<path opacity="0.14" d="M422.747 115.218H408.896V129.069H422.747V115.218Z" fill="#CCCCCC"/>
<path opacity="0.14" d="M464.3 115.218H450.449V129.069H464.3V115.218Z" fill="#F2F2F2"/>
<path opacity="0.14" d="M478.151 115.218H464.3V129.069H478.151V115.218Z" fill="#F2F2F2"/>
<path opacity="0.14" d="M492.002 115.218H478.151V129.069H492.002V115.218Z" fill="#F2F2F2"/>
<path opacity="0.14" d="M505.853 115.218H492.002V129.069H505.853V115.218Z" fill="#F2F2F2"/>
<path opacity="0.14" d="M519.704 115.218H505.853V129.069H519.704V115.218Z" fill="#F2F2F2"/>
<path opacity="0.14" d="M533.556 115.218H519.704V129.069H533.556V115.218Z" fill="#F2F2F2"/>
<path opacity="0.14" d="M395.045 129.069H381.193V142.92H395.045V129.069Z" fill="#F2F2F2"/>
<path opacity="0.14" d="M408.896 129.069H395.044V142.92H408.896V129.069Z" fill="#F2F2F2"/>
<path opacity="0.14" d="M422.747 129.069H408.896V142.92H422.747V129.069Z" fill="#F2F2F2"/>
<path opacity="0.14" d="M436.598 129.069H422.747V142.92H436.598V129.069Z" fill="#F2F2F2"/>
<path opacity="0.14" d="M450.449 129.069H436.598V142.92H450.449V129.069Z" fill="#F2F2F2"/>
<path opacity="0.14" d="M478.151 129.069H464.3V142.92H478.151V129.069Z" fill="#F2F2F2"/>
<path opacity="0.14" d="M492.002 129.069H478.151V142.92H492.002V129.069Z" fill="#CCCCCC"/>
<path opacity="0.14" d="M505.853 129.069H492.002V142.92H505.853V129.069Z" fill="#F2F2F2"/>
<path opacity="0.14" d="M519.704 129.069H505.853V142.92H519.704V129.069Z" fill="#F2F2F2"/>
<path opacity="0.14" d="M395.045 142.92H381.193V156.772H395.045V142.92Z" fill="#E6E6E6"/>
<path opacity="0.14" d="M422.747 142.92H408.896V156.772H422.747V142.92Z" fill="#F2F2F2"/>
<path opacity="0.14" d="M436.598 142.92H422.747V156.772H436.598V142.92Z" fill="white"/>
<path opacity="0.14" d="M450.449 142.92H436.598V156.772H450.449V142.92Z" fill="#E6E6E6"/>
<path opacity="0.14" d="M478.151 142.92H464.3V156.772H478.151V142.92Z" fill="#F2F2F2"/>
<path opacity="0.14" d="M492.002 142.92H478.151V156.772H492.002V142.92Z" fill="#F2F2F2"/>
<path opacity="0.14" d="M533.556 142.92H519.704V156.772H533.556V142.92Z" fill="#F2F2F2"/>
<path d="M395.045 156.771H381.193V170.623H395.045V156.771Z" fill="#F2F2F2"/>
<path opacity="0.03" d="M408.896 156.771H395.044V170.623H408.896V156.771Z" fill="#F2F2F2"/>
<path opacity="0.14" d="M422.747 156.771H408.896V170.623H422.747V156.771Z" fill="#F2F2F2"/>
<path opacity="0.14" d="M436.598 156.771H422.747V170.623H436.598V156.771Z" fill="#F2F2F2"/>
<path opacity="0.14" d="M450.449 156.771H436.598V170.623H450.449V156.771Z" fill="#F2F2F2"/>
<path opacity="0.14" d="M464.3 156.771H450.449V170.623H464.3V156.771Z" fill="#F2F2F2"/>
<path opacity="0.14" d="M492.002 156.771H478.151V170.623H492.002V156.771Z" fill="#F2F2F2"/>
<path opacity="0.14" d="M505.853 156.771H492.002V170.623H505.853V156.771Z" fill="#F2F2F2"/>
<path opacity="0.14" d="M519.704 156.771H505.853V170.623H519.704V156.771Z" fill="#F2F2F2"/>
<path opacity="0.14" d="M533.556 156.771H519.704V170.623H533.556V156.771Z" fill="#E6E6E6"/>
<path opacity="0.32" d="M325.789 170.623H311.938V184.474H325.789V170.623Z" fill="white"/>
<path opacity="0.32" d="M339.64 170.623H325.789V184.474H339.64V170.623Z" fill="#F2F2F2"/>
<path opacity="0.32" d="M353.491 170.623H339.64V184.474H353.491V170.623Z" fill="#F2F2F2"/>
<path opacity="0.32" d="M367.342 170.623H353.491V184.474H367.342V170.623Z" fill="white"/>
<path opacity="0.39" d="M381.193 170.623H367.342V184.474H381.193V170.623Z" fill="#F2F2F2"/>
<path d="M395.045 170.623H381.193V184.474H395.045V170.623Z" fill="white"/>
<path d="M408.896 170.623H395.044V184.474H408.896V170.623Z" fill="#F2F2F2"/>
<path opacity="0.56" d="M422.747 170.623H408.896V184.474H422.747V170.623Z" fill="#F2F2F2"/>
<path d="M436.598 170.623H422.747V184.474H436.598V170.623Z" fill="white"/>
<path opacity="0.05" d="M450.449 170.623H436.598V184.474H450.449V170.623Z" fill="#F2F2F2"/>
<path opacity="0.05" d="M478.151 170.623H464.3V184.474H478.151V170.623Z" fill="#F2F2F2"/>
<path opacity="0.05" d="M505.853 170.623H492.002V184.474H505.853V170.623Z" fill="#F2F2F2"/>
<path opacity="0.14" d="M533.556 170.623H519.704V184.474H533.556V170.623Z" fill="#F2F2F2"/>
<path opacity="0.19" d="M381.193 184.474H367.342V198.325H381.193V184.474Z" fill="#F2F2F2"/>
<path opacity="0.03" d="M395.045 184.474H381.193V198.325H395.045V184.474Z" fill="#F2F2F2"/>
<path opacity="0.56" d="M408.896 184.474H395.044V198.325H408.896V184.474Z" fill="#F2F2F2"/>
<path opacity="0.03" d="M422.747 184.474H408.896V198.325H422.747V184.474Z" fill="#F2F2F2"/>
<path opacity="0.56" d="M436.598 184.474H422.747V198.325H436.598V184.474Z" fill="#F2F2F2"/>
<path d="M450.449 184.474H436.598V198.325H450.449V184.474Z" fill="#F2F2F2"/>
<path opacity="0.56" d="M464.3 184.474H450.449V198.325H464.3V184.474Z" fill="#F2F2F2"/>
<path opacity="0.05" d="M478.151 184.474H464.3V198.325H478.151V184.474Z" fill="#F2F2F2"/>
<path d="M492.002 184.474H478.151V198.325H492.002V184.474Z" fill="#F2F2F2"/>
<path opacity="0.05" d="M505.853 184.474H492.002V198.325H505.853V184.474Z" fill="#F2F2F2"/>
<path opacity="0.14" d="M519.704 184.474H505.853V198.325H519.704V184.474Z" fill="#F2F2F2"/>
<path opacity="0.31" d="M395.045 198.325H381.193V212.176H395.045V198.325Z" fill="#F2F2F2"/>
<path opacity="0.03" d="M408.896 198.325H395.044V212.176H408.896V198.325Z" fill="#E6E6E6"/>
<path opacity="0.31" d="M422.747 198.325H408.896V212.176H422.747V198.325Z" fill="#F2F2F2"/>
<path opacity="0.31" d="M450.449 198.325H436.598V212.176H450.449V198.325Z" fill="#F2F2F2"/>
<path opacity="0.31" d="M464.3 198.325H450.449V212.176H464.3V198.325Z" fill="#F2F2F2"/>
<path opacity="0.31" d="M492.002 198.325H478.151V212.176H492.002V198.325Z" fill="#F2F2F2"/>
<path opacity="0.31" d="M505.853 198.325H492.002V212.176H505.853V198.325Z" fill="#F2F2F2"/>
<path opacity="0.31" d="M395.045 212.176H381.193V226.027H395.045V212.176Z" fill="#F2F2F2"/>
<path opacity="0.31" d="M505.853 212.176H492.002V226.027H505.853V212.176Z" fill="#F2F2F2"/>
<path opacity="0.11" d="M395.045 226.027H381.193V239.878H395.045V226.027Z" fill="#F2F2F2"/>
<path opacity="0.31" d="M492.002 226.027H478.151V239.878H492.002V226.027Z" fill="#F2F2F2"/>
<path opacity="0.31" d="M505.853 226.027H492.002V239.878H505.853V226.027Z" fill="#CCCCCC"/>
<path opacity="0.31" d="M381.193 238.548H367.342V252.4H381.193V238.548Z" fill="#F2F2F2"/>
<path opacity="0.31" d="M395.045 238.548H381.193V252.4H395.045V238.548Z" fill="#F2F2F2"/>
<path opacity="0.31" d="M505.853 239.878H492.002V253.729H505.853V239.878Z" fill="#F2F2F2"/>
<path d="M325.789 184.474H311.938V198.325H325.789V184.474Z" fill="white"/>
<path d="M339.64 184.474H325.789V198.325H339.64V184.474Z" fill="white"/>
<path d="M353.491 184.474H339.64V198.325H353.491V184.474Z" fill="white"/>
<path d="M367.342 184.474H353.491V198.325H367.342V184.474Z" fill="white"/>
<path opacity="0.31" d="M325.789 198.325H311.938V212.176H325.789V198.325Z" fill="white"/>
<path opacity="0.31" d="M339.64 198.325H325.789V212.176H339.64V198.325Z" fill="white"/>
<path opacity="0.31" d="M339.64 198.325V212.176H353.491V198.325" fill="white"/>
<path opacity="0.31" d="M367.342 198.325H353.491V212.176H367.342V198.325Z" fill="white"/>
<path opacity="0.14" d="M519.704 198.325H505.853V212.176H519.704V198.325Z" fill="white"/>
<path opacity="0.31" d="M325.789 212.176H311.938V226.027H325.789V212.176Z" fill="white"/>
<path opacity="0.31" d="M339.64 212.176H325.789V226.027H339.64V212.176Z" fill="white"/>
<path opacity="0.31" d="M353.491 212.176H339.64V226.027H353.491V212.176Z" fill="white"/>
<path opacity="0.31" d="M367.342 212.176H353.491V226.027H367.342V212.176Z" fill="white"/>
<path opacity="0.31" d="M408.896 212.176H395.044V226.027H408.896V212.176Z" fill="white"/>
<path opacity="0.31" d="M422.747 212.176H408.896V226.027H422.747V212.176Z" fill="white"/>
<path opacity="0.31" d="M436.598 212.176H422.747V226.027H436.598V212.176Z" fill="white"/>
<path opacity="0.31" d="M450.449 212.176H436.598V226.027H450.449V212.176Z" fill="white"/>
<path opacity="0.31" d="M464.3 212.176H450.449V226.027H464.3V212.176Z" fill="white"/>
<path opacity="0.31" d="M478.151 212.176H464.3V226.027H478.151V212.176Z" fill="white"/>
<path opacity="0.31" d="M519.704 212.176H505.853V226.027H519.704V212.176Z" fill="white"/>
<path opacity="0.31" d="M533.556 212.176H519.704V226.027H533.556V212.176Z" fill="white"/>
<path opacity="0.31" d="M325.789 226.027H311.938V239.878H325.789V226.027Z" fill="white"/>
<path opacity="0.31" d="M339.64 226.027H325.789V239.878H339.64V226.027Z" fill="white"/>
<path opacity="0.19" d="M353.491 226.027H339.64V239.878H353.491V226.027Z" fill="#F2F2F2"/>
<path opacity="0.31" d="M367.342 226.027H353.491V239.878H367.342V226.027Z" fill="white"/>
<path opacity="0.31" d="M408.896 226.027H395.044V239.878H408.896V226.027Z" fill="white"/>
<path opacity="0.31" d="M422.747 226.027H408.896V239.878H422.747V226.027Z" fill="white"/>
<path opacity="0.31" d="M436.598 226.027H422.747V239.878H436.598V226.027Z" fill="white"/>
<path opacity="0.31" d="M450.449 226.027H436.598V239.878H450.449V226.027Z" fill="white"/>
<path opacity="0.31" d="M464.3 226.027H450.449V239.878H464.3V226.027Z" fill="white"/>
<path opacity="0.31" d="M478.151 226.027H464.3V239.878H478.151V226.027Z" fill="white"/>
<path opacity="0.31" d="M519.704 226.027H505.853V239.878H519.704V226.027Z" fill="white"/>
<path opacity="0.31" d="M533.556 226.027H519.704V239.878H533.556V226.027Z" fill="white"/>
<path opacity="0.31" d="M325.789 239.878H311.938V253.729H325.789V239.878Z" fill="white"/>
<path opacity="0.31" d="M353.491 239.878H339.64V253.729H353.491V239.878Z" fill="white"/>
<path opacity="0.31" d="M367.342 239.878H353.491V253.729H367.342V239.878Z" fill="white"/>
<path opacity="0.31" d="M422.747 239.878H408.896V253.729H422.747V239.878Z" fill="white"/>
<path opacity="0.31" d="M436.598 239.878H422.747V253.729H436.598V239.878Z" fill="white"/>
<path opacity="0.31" d="M450.449 239.878H436.598V253.729H450.449V239.878Z" fill="white"/>
<path opacity="0.31" d="M464.3 239.878H450.449V253.729H464.3V239.878Z" fill="white"/>
<path opacity="0.31" d="M478.151 239.878H464.3V253.729H478.151V239.878Z" fill="white"/>
<path opacity="0.31" d="M519.704 239.878H505.853V253.729H519.704V239.878Z" fill="white"/>
<path d="M547.407 32.1116H533.556V45.9627H547.407V32.1116Z" fill="white"/>
<path opacity="0.03" d="M588.96 32.1116H575.109V45.9627H588.96V32.1116Z" fill="#F2F2F2"/>
<path d="M602.811 32.1116H588.96V45.9627H602.811V32.1116Z" fill="#F2F2F2"/>
<path opacity="0.22" d="M547.407 45.9627H533.556V59.8138H547.407V45.9627Z" fill="#F2F2F2"/>
<path opacity="0.22" d="M575.109 45.9627H561.258V59.8138H575.109V45.9627Z" fill="#F2F2F2"/>
<path opacity="0.22" d="M588.96 45.9627H575.109V59.8138H588.96V45.9627Z" fill="#F2F2F2"/>
<path opacity="0.22" d="M602.811 45.9627H588.96V59.8138H602.811V45.9627Z" fill="#F2F2F2"/>
<path opacity="0.22" d="M547.407 59.8138H533.556V73.6649H547.407V59.8138Z" fill="#F2F2F2"/>
<path opacity="0.22" d="M561.258 59.8138H547.407V73.6649H561.258V59.8138Z" fill="#F2F2F2"/>
<path opacity="0.22" d="M575.109 59.8138H561.258V73.6649H575.109V59.8138Z" fill="#F2F2F2"/>
<path opacity="0.22" d="M588.96 59.8138H575.109V73.6649H588.96V59.8138Z" fill="#F2F2F2"/>
<path opacity="0.22" d="M602.811 59.8138H588.96V73.6649H602.811V59.8138Z" fill="#808080"/>
<path opacity="0.22" d="M547.407 73.6649H533.556V87.516H547.407V73.6649Z" fill="white"/>
<path opacity="0.22" d="M561.258 73.6649H547.407V87.516H561.258V73.6649Z" fill="#F2F2F2"/>
<path opacity="0.22" d="M575.109 73.6649H561.258V87.516H575.109V73.6649Z" fill="#F2F2F2"/>
<path opacity="0.22" d="M588.96 73.6649H575.109V87.516H588.96V73.6649Z" fill="white"/>
<path opacity="0.22" d="M602.811 73.6649H588.96V87.516H602.811V73.6649Z" fill="#F2F2F2"/>
<path opacity="0.22" d="M547.407 87.516H533.556V101.367H547.407V87.516Z" fill="#F2F2F2"/>
<path opacity="0.22" d="M561.258 87.516H547.407V101.367H561.258V87.516Z" fill="white"/>
<path opacity="0.11" d="M575.109 87.516H561.258V101.367H575.109V87.516Z" fill="#F2F2F2"/>
<path opacity="0.14" d="M588.96 87.516H575.109V101.367H588.96V87.516Z" fill="#F2F2F2"/>
<path opacity="0.14" d="M602.811 87.516H588.96V101.367H602.811V87.516Z" fill="#F2F2F2"/>
<path opacity="0.14" d="M547.407 101.367H533.556V115.218H547.407V101.367Z" fill="#F2F2F2"/>
<path opacity="0.14" d="M561.258 101.367H547.407V115.218H561.258V101.367Z" fill="#F2F2F2"/>
<path opacity="0.14" d="M575.109 101.367H561.258V115.218H575.109V101.367Z" fill="#F2F2F2"/>
<path opacity="0.14" d="M588.96 101.367H575.109V115.218H588.96V101.367Z" fill="#F2F2F2"/>
<path opacity="0.14" d="M602.811 101.367H588.96V115.218H602.811V101.367Z" fill="#F2F2F2"/>
<path opacity="0.14" d="M561.258 115.218H547.407V129.069H561.258V115.218Z" fill="#E6E6E6"/>
<path opacity="0.14" d="M588.96 115.218H575.109V129.069H588.96V115.218Z" fill="#E6E6E6"/>
<path opacity="0.14" d="M602.811 115.218H588.96V129.069H602.811V115.218Z" fill="#F2F2F2"/>
<path opacity="0.14" d="M547.407 129.069H533.556V142.92H547.407V129.069Z" fill="#F2F2F2"/>
<path opacity="0.14" d="M561.258 129.069H547.407V142.92H561.258V129.069Z" fill="#F2F2F2"/>
<path opacity="0.14" d="M575.109 129.069H561.258V142.92H575.109V129.069Z" fill="#F2F2F2"/>
<path opacity="0.14" d="M588.96 129.069H575.109V142.92H588.96V129.069Z" fill="#F2F2F2"/>
<path opacity="0.14" d="M602.811 129.069H588.96V142.92H602.811V129.069Z" fill="#F2F2F2"/>
<path opacity="0.14" d="M547.407 142.92H533.556V156.772H547.407V142.92Z" fill="#B3B3B3"/>
<path opacity="0.14" d="M561.258 142.92H547.407V156.772H561.258V142.92Z" fill="#F2F2F2"/>
<path opacity="0.14" d="M575.109 142.92H561.258V156.772H575.109V142.92Z" fill="#B3B3B3"/>
<path opacity="0.14" d="M588.96 142.92H575.109V156.772H588.96V142.92Z" fill="#F2F2F2"/>
<path opacity="0.14" d="M602.811 142.92H588.96V156.772H602.811V142.92Z" fill="white"/>
<path opacity="0.14" d="M547.407 156.771H533.556V170.623H547.407V156.771Z" fill="#F2F2F2"/>
<path opacity="0.14" d="M561.258 156.771H547.407V170.623H561.258V156.771Z" fill="#F2F2F2"/>
<path opacity="0.14" d="M588.96 156.771H575.109V170.623H588.96V156.771Z" fill="#F2F2F2"/>
<path opacity="0.14" d="M602.811 156.771H588.96V170.623H602.811V156.771Z" fill="#F2F2F2"/>
<path opacity="0.03" d="M616.662 32.1116H602.811V45.9627H616.662V32.1116Z" fill="#B3B3B3"/>
<path opacity="0.11" d="M658.215 32.1116H644.364V45.9627H658.215V32.1116Z" fill="#F2F2F2"/>
<path d="M672.067 32.1116H658.215V45.9627H672.067V32.1116Z" fill="white"/>
<path d="M699.769 32.1116H685.918V45.9627H699.769V32.1116Z" fill="white"/>
<path opacity="0.22" d="M616.662 45.9627H602.811V59.8138H616.662V45.9627Z" fill="#F2F2F2"/>
<path d="M630.513 45.9627H616.662V59.8138H630.513V45.9627Z" fill="#F2F2F2"/>
<path d="M699.769 45.9627H685.918V59.8138H699.769V45.9627Z" fill="white"/>
<path opacity="0.22" d="M616.662 59.8138H602.811V73.6649H616.662V59.8138Z" fill="#F2F2F2"/>
<path d="M658.215 59.8138H644.364V73.6649H658.215V59.8138Z" fill="#F2F2F2"/>
<path d="M658.215 59.8138H672.067V73.6649H658.215" fill="white"/>
<path opacity="0.11" d="M699.769 59.8138H685.918V73.6649H699.769V59.8138Z" fill="#F2F2F2"/>
<path opacity="0.11" d="M713.62 59.8138H699.769V73.6649H713.62V59.8138Z" fill="#F2F2F2"/>
<path opacity="0.16" d="M741.322 59.8138H727.471V73.6649H741.322V59.8138Z" fill="#F2F2F2"/>
<path opacity="0.22" d="M616.662 73.6649H602.811V87.516H616.662V73.6649Z" fill="#F2F2F2"/>
<path opacity="0.42" d="M630.513 73.6649H616.662V87.516H630.513V73.6649Z" fill="#F2F2F2"/>
<path d="M644.364 73.6649H630.513V87.516H644.364V73.6649Z" fill="#F2F2F2"/>
<path d="M672.067 73.6649H658.215V87.516H672.067V73.6649Z" fill="#F2F2F2"/>
<path opacity="0.16" d="M685.918 73.6649H672.067V87.516H685.918V73.6649Z" fill="#F2F2F2"/>
<path opacity="0.11" d="M713.62 73.6649H699.769V87.516H713.62V73.6649Z" fill="#F2F2F2"/>
<path opacity="0.16" d="M727.471 73.6649H713.62V87.516H727.471V73.6649Z" fill="#F2F2F2"/>
<path opacity="0.21" d="M741.322 73.6649H727.471V87.516H741.322V73.6649Z" fill="#F2F2F2"/>
<path opacity="0.14" d="M616.662 87.516H602.811V101.367H616.662V87.516Z" fill="#CCCCCC"/>
<path opacity="0.14" d="M630.513 87.516H616.662V101.367H630.513V87.516Z" fill="#F2F2F2"/>
<path opacity="0.11" d="M644.364 87.516H630.513V101.367H644.364V87.516Z" fill="#F2F2F2"/>
<path d="M658.215 87.516H644.364V101.367H658.215V87.516Z" fill="#F2F2F2"/>
<path opacity="0.16" d="M672.067 87.516H658.215V101.367H672.067V87.516Z" fill="#F2F2F2"/>
<path d="M685.918 87.516H672.067V101.367H685.918V87.516Z" fill="#F2F2F2"/>
<path d="M699.769 87.516H685.918V101.367H699.769V87.516Z" fill="#F2F2F2"/>
<path d="M727.471 87.516H713.62V101.367H727.471V87.516Z" fill="#F2F2F2"/>
<path opacity="0.21" d="M741.322 87.516H727.471V101.367H741.322V87.516Z" fill="#F2F2F2"/>
<path opacity="0.21" d="M755.173 87.516H741.322V101.367H755.173V87.516Z" fill="#F2F2F2"/>
<path opacity="0.14" d="M616.662 101.367H602.811V115.218H616.662V101.367Z" fill="#F2F2F2"/>
<path opacity="0.14" d="M630.513 101.367H616.662V115.218H630.513V101.367Z" fill="#F2F2F2"/>
<path opacity="0.14" d="M644.364 101.367H630.513V115.218H644.364V101.367Z" fill="#F2F2F2"/>
<path opacity="0.16" d="M658.215 101.367H644.364V115.218H658.215V101.367Z" fill="#E6E6E6"/>
<path d="M672.067 101.367H658.215V115.218H672.067V101.367Z" fill="#F2F2F2"/>
<path opacity="0.03" d="M685.918 101.367H672.067V115.218H685.918V101.367Z" fill="#B3B3B3"/>
<path d="M699.769 101.367H685.918V115.218H699.769V101.367Z" fill="#F2F2F2"/>
<path opacity="0.21" d="M713.62 101.367H699.769V115.218H713.62V101.367Z" fill="#F2F2F2"/>
<path opacity="0.14" d="M727.471 101.367H713.62V115.218H727.471V101.367Z" fill="#F2F2F2"/>
<path opacity="0.14" d="M741.322 101.367H727.471V115.218H741.322V101.367Z" fill="#CCCCCC"/>
<path opacity="0.14" d="M616.662 115.218H602.811V129.069H616.662V115.218Z" fill="white"/>
<path opacity="0.14" d="M630.513 115.218H616.662V129.069H630.513V115.218Z" fill="#F2F2F2"/>
<path opacity="0.14" d="M644.364 115.218H630.513V129.069H644.364V115.218Z" fill="#CCCCCC"/>
<path opacity="0.14" d="M658.215 115.218H644.364V129.069H658.215V115.218Z" fill="#F2F2F2"/>
<path opacity="0.14" d="M672.067 115.218H658.215V129.069H672.067V115.218Z" fill="#F2F2F2"/>
<path opacity="0.14" d="M685.918 115.218H672.067V129.069H685.918V115.218Z" fill="#F2F2F2"/>
<path opacity="0.14" d="M699.769 115.218H685.918V129.069H699.769V115.218Z" fill="#F2F2F2"/>
<path opacity="0.14" d="M713.62 115.218H699.769V129.069H713.62V115.218Z" fill="#F2F2F2"/>
<path opacity="0.14" d="M727.471 115.218H713.62V129.069H727.471V115.218Z" fill="#F2F2F2"/>
<path opacity="0.14" d="M741.322 115.218H727.471V129.069H741.322V115.218Z" fill="#F2F2F2"/>
<path opacity="0.14" d="M616.662 129.069H602.811V142.92H616.662V129.069Z" fill="#F2F2F2"/>
<path opacity="0.14" d="M644.364 129.069H630.513V142.92H644.364V129.069Z" fill="#F2F2F2"/>
<path opacity="0.14" d="M658.215 129.069H644.364V142.92H658.215V129.069Z" fill="#F2F2F2"/>
<path opacity="0.14" d="M672.067 129.069H658.215V142.92H672.067V129.069Z" fill="#F2F2F2"/>
<path opacity="0.14" d="M685.918 129.069H672.067V142.92H685.918V129.069Z" fill="#F2F2F2"/>
<path opacity="0.14" d="M699.769 129.069H685.918V142.92H699.769V129.069Z" fill="#F2F2F2"/>
<path opacity="0.14" d="M713.62 129.069H699.769V142.92H713.62V129.069Z" fill="#CCCCCC"/>
<path opacity="0.14" d="M727.471 129.069H713.62V142.92H727.471V129.069Z" fill="#F2F2F2"/>
<path opacity="0.14" d="M741.322 129.069H727.471V142.92H741.322V129.069Z" fill="#F2F2F2"/>
<path opacity="0.14" d="M616.662 142.92H602.811V156.772H616.662V142.92Z" fill="#E6E6E6"/>
<path opacity="0.14" d="M644.364 142.92H630.513V156.772H644.364V142.92Z" fill="#F2F2F2"/>
<path opacity="0.14" d="M658.215 142.92H644.364V156.772H658.215V142.92Z" fill="white"/>
<path opacity="0.14" d="M672.067 142.92H658.215V156.772H672.067V142.92Z" fill="#E6E6E6"/>
<path opacity="0.14" d="M685.918 142.92H672.067V156.772H685.918V142.92Z" fill="#F2F2F2"/>
<path opacity="0.14" d="M699.769 142.92H685.918V156.772H699.769V142.92Z" fill="#F2F2F2"/>
<path opacity="0.14" d="M713.62 142.92H699.769V156.772H713.62V142.92Z" fill="#F2F2F2"/>
<path opacity="0.14" d="M727.471 142.92H713.62V156.772H727.471V142.92Z" fill="#F2F2F2"/>
<path opacity="0.14" d="M741.322 142.92H727.471V156.772H741.322V142.92Z" fill="#F2F2F2"/>
<path opacity="0.14" d="M616.662 156.771H602.811V170.623H616.662V156.771Z" fill="#F2F2F2"/>
<path opacity="0.14" d="M630.513 156.771H616.662V170.623H630.513V156.771Z" fill="#F2F2F2"/>
<path opacity="0.14" d="M644.364 156.771H630.513V170.623H644.364V156.771Z" fill="#F2F2F2"/>
<path opacity="0.14" d="M658.215 156.771H644.364V170.623H658.215V156.771Z" fill="#F2F2F2"/>
<path opacity="0.14" d="M672.067 156.771H658.215V170.623H672.067V156.771Z" fill="#F2F2F2"/>
<path opacity="0.14" d="M685.918 156.771H672.067V170.623H685.918V156.771Z" fill="#F2F2F2"/>
<path opacity="0.14" d="M699.769 156.771H685.918V170.623H699.769V156.771Z" fill="#F2F2F2"/>
<path opacity="0.14" d="M713.62 156.771H699.769V170.623H713.62V156.771Z" fill="#F2F2F2"/>
<path opacity="0.14" d="M727.471 156.771H713.62V170.623H727.471V156.771Z" fill="#F2F2F2"/>
<path opacity="0.42" d="M741.322 156.771H727.471V170.623H741.322V156.771Z" fill="#F2F2F2"/>
<path opacity="0.05" d="M755.173 156.771H741.322V170.623H755.173V156.771Z" fill="#E6E6E6"/>
<path opacity="0.14" d="M547.407 170.623H533.556V184.474H547.407V170.623Z" fill="white"/>
<path opacity="0.14" d="M561.258 170.623H547.407V184.474H561.258V170.623Z" fill="#F2F2F2"/>
<path opacity="0.14" d="M575.109 170.623H561.258V184.474H575.109V170.623Z" fill="#F2F2F2"/>
<path opacity="0.14" d="M588.96 170.623H575.109V184.474H588.96V170.623Z" fill="white"/>
<path opacity="0.14" d="M602.811 170.623H588.96V184.474H602.811V170.623Z" fill="#F2F2F2"/>
<path opacity="0.14" d="M616.662 170.623H602.811V184.474H616.662V170.623Z" fill="white"/>
<path opacity="0.14" d="M630.513 170.623H616.662V184.474H630.513V170.623Z" fill="#F2F2F2"/>
<path opacity="0.14" d="M644.364 170.623H630.513V184.474H644.364V170.623Z" fill="#F2F2F2"/>
<path opacity="0.14" d="M658.215 170.623H644.364V184.474H658.215V170.623Z" fill="white"/>
<path opacity="0.14" d="M672.067 170.623H658.215V184.474H672.067V170.623Z" fill="#F2F2F2"/>
<path opacity="0.14" d="M685.918 170.623H672.067V184.474H685.918V170.623Z" fill="#CCCCCC"/>
<path opacity="0.14" d="M699.769 170.623H685.918V184.474H699.769V170.623Z" fill="#F2F2F2"/>
<path opacity="0.14" d="M713.62 170.623H699.769V184.474H713.62V170.623Z" fill="#CCCCCC"/>
<path opacity="0.05" d="M727.471 170.623H713.62V184.474H727.471V170.623Z" fill="#F2F2F2"/>
<path opacity="0.05" d="M741.322 170.623H727.471V184.474H741.322V170.623Z" fill="#F2F2F2"/>
<path opacity="0.14" d="M602.811 184.474H588.96V198.325H602.811V184.474Z" fill="#F2F2F2"/>
<path opacity="0.14" d="M616.662 184.474H602.811V198.325H616.662V184.474Z" fill="#F2F2F2"/>
<path opacity="0.56" d="M630.513 184.474H616.662V198.325H630.513V184.474Z" fill="#F2F2F2"/>
<path opacity="0.03" d="M644.364 184.474H630.513V198.325H644.364V184.474Z" fill="#F2F2F2"/>
<path opacity="0.14" d="M658.215 184.474H644.364V198.325H658.215V184.474Z" fill="#F2F2F2"/>
<path opacity="0.14" d="M672.067 184.474H658.215V198.325H672.067V184.474Z" fill="#F2F2F2"/>
<path opacity="0.14" d="M685.918 184.474H672.067V198.325H685.918V184.474Z" fill="#F2F2F2"/>
<path opacity="0.14" d="M699.769 184.474H685.918V198.325H699.769V184.474Z" fill="#F2F2F2"/>
<path opacity="0.14" d="M713.62 184.474H699.769V198.325H713.62V184.474Z" fill="#F2F2F2"/>
<path d="M727.471 184.474H713.62V198.325H727.471V184.474Z" fill="#F2F2F2"/>
<path opacity="0.42" d="M741.322 184.474H727.471V198.325H741.322V184.474Z" fill="#F2F2F2"/>
<path opacity="0.31" d="M616.662 198.325H602.811V212.176H616.662V198.325Z" fill="#F2F2F2"/>
<path opacity="0.03" d="M630.513 198.325H616.662V212.176H630.513V198.325Z" fill="#E6E6E6"/>
<path opacity="0.31" d="M644.364 198.325H630.513V212.176H644.364V198.325Z" fill="#F2F2F2"/>
<path opacity="0.31" d="M672.067 198.325H658.215V212.176H672.067V198.325Z" fill="#F2F2F2"/>
<path opacity="0.31" d="M685.918 198.325H672.067V212.176H685.918V198.325Z" fill="#F2F2F2"/>
<path opacity="0.31" d="M713.62 198.325H699.769V212.176H713.62V198.325Z" fill="#F2F2F2"/>
<path opacity="0.31" d="M727.471 198.325H713.62V212.176H727.471V198.325Z" fill="#F2F2F2"/>
<path opacity="0.31" d="M616.662 212.176H602.811V226.027H616.662V212.176Z" fill="#F2F2F2"/>
<path opacity="0.31" d="M713.62 212.176H699.769V226.027H713.62V212.176Z" fill="#F2F2F2"/>
<path opacity="0.31" d="M727.471 212.176H713.62V226.027H727.471V212.176Z" fill="#F2F2F2"/>
<path opacity="0.11" d="M616.662 226.027H602.811V239.878H616.662V226.027Z" fill="#F2F2F2"/>
<path opacity="0.31" d="M602.811 238.548H588.96V252.4H602.811V238.548Z" fill="#F2F2F2"/>
<path opacity="0.31" d="M616.662 238.548H602.811V252.4H616.662V238.548Z" fill="#F2F2F2"/>
<path opacity="0.31" d="M713.62 239.878H699.769V253.729H713.62V239.878Z" fill="#F2F2F2"/>
<path opacity="0.31" d="M727.471 239.878H713.62V253.729H727.471V239.878Z" fill="#F2F2F2"/>
<path opacity="0.14" d="M547.407 184.474H533.556V198.325H547.407V184.474Z" fill="white"/>
<path opacity="0.14" d="M561.258 184.474H547.407V198.325H561.258V184.474Z" fill="white"/>
<path opacity="0.14" d="M575.109 184.474H561.258V198.325H575.109V184.474Z" fill="white"/>
<path opacity="0.14" d="M588.96 184.474H575.109V198.325H588.96V184.474Z" fill="white"/>
<path opacity="0.14" d="M547.407 198.325H533.556V212.176H547.407V198.325Z" fill="white"/>
<path opacity="0.14" d="M561.258 198.325H547.407V212.176H561.258V198.325Z" fill="white"/>
<path opacity="0.14" d="M575.109 198.325H561.258V212.176H575.109V198.325Z" fill="white"/>
<path opacity="0.14" d="M588.96 198.325H575.109V212.176H588.96V198.325Z" fill="white"/>
<path opacity="0.42" d="M741.322 198.325H727.471V212.176H741.322V198.325Z" fill="white"/>
<path opacity="0.31" d="M547.407 212.176H533.556V226.027H547.407V212.176Z" fill="white"/>
<path opacity="0.31" d="M561.258 212.176H547.407V226.027H561.258V212.176Z" fill="white"/>
<path opacity="0.31" d="M575.109 212.176H561.258V226.027H575.109V212.176Z" fill="white"/>
<path opacity="0.31" d="M588.96 212.176H575.109V226.027H588.96V212.176Z" fill="white"/>
<path opacity="0.31" d="M630.513 212.176H616.662V226.027H630.513V212.176Z" fill="white"/>
<path opacity="0.31" d="M644.364 212.176H630.513V226.027H644.364V212.176Z" fill="white"/>
<path opacity="0.31" d="M658.215 212.176H644.364V226.027H658.215V212.176Z" fill="white"/>
<path opacity="0.31" d="M672.067 212.176H658.215V226.027H672.067V212.176Z" fill="white"/>
<path opacity="0.31" d="M685.918 212.176H672.067V226.027H685.918V212.176Z" fill="white"/>
<path opacity="0.31" d="M699.769 212.176H685.918V226.027H699.769V212.176Z" fill="white"/>
<path opacity="0.31" d="M741.322 212.176H727.471V226.027H741.322V212.176Z" fill="white"/>
<path opacity="0.31" d="M755.173 212.176H741.322V226.027H755.173V212.176Z" fill="white"/>
<path opacity="0.31" d="M547.407 226.027H533.556V239.878H547.407V226.027Z" fill="white"/>
<path opacity="0.31" d="M561.258 226.027H547.407V239.878H561.258V226.027Z" fill="white"/>
<path opacity="0.19" d="M575.109 226.027H561.258V239.878H575.109V226.027Z" fill="#F2F2F2"/>
<path opacity="0.31" d="M588.96 226.027H575.109V239.878H588.96V226.027Z" fill="white"/>
<path opacity="0.31" d="M630.513 226.027H616.662V239.878H630.513V226.027Z" fill="white"/>
<path opacity="0.31" d="M644.364 226.027H630.513V239.878H644.364V226.027Z" fill="white"/>
<path opacity="0.31" d="M658.215 226.027H644.364V239.878H658.215V226.027Z" fill="white"/>
<path opacity="0.23" d="M672.067 226.027H658.215V239.878H672.067V226.027Z" fill="white"/>
<path opacity="0.31" d="M685.918 226.027H672.067V239.878H685.918V226.027Z" fill="white"/>
<path opacity="0.31" d="M699.769 226.027H685.918V239.878H699.769V226.027Z" fill="white"/>
<path opacity="0.31" d="M741.322 226.027H727.471V239.878H741.322V226.027Z" fill="white"/>
<path opacity="0.31" d="M755.173 226.027H741.322V239.878H755.173V226.027Z" fill="white"/>
<path opacity="0.31" d="M547.407 239.878H533.556V253.729H547.407V239.878Z" fill="white"/>
<path opacity="0.31" d="M575.109 239.878H561.258V253.729H575.109V239.878Z" fill="white"/>
<path opacity="0.31" d="M588.96 239.878H575.109V253.729H588.96V239.878Z" fill="white"/>
<path opacity="0.31" d="M644.364 239.878H630.513V253.729H644.364V239.878Z" fill="white"/>
<path opacity="0.31" d="M658.215 239.878H644.364V253.729H658.215V239.878Z" fill="white"/>
<path opacity="0.31" d="M672.067 239.878H658.215V253.729H672.067V239.878Z" fill="white"/>
<path opacity="0.31" d="M685.918 239.878H672.067V253.729H685.918V239.878Z" fill="white"/>
<path opacity="0.31" d="M699.769 239.878H685.918V253.729H699.769V239.878Z" fill="white"/>
<path opacity="0.31" d="M741.322 239.878H727.471V253.729H741.322V239.878Z" fill="white"/>
<path d="M325.789 253.729H311.938V267.58H325.789V253.729Z" fill="white"/>
<path opacity="0.16" d="M339.64 253.729H325.789V267.58H339.64V253.729Z" fill="#F2F2F2"/>
<path opacity="0.05" d="M353.491 253.729H339.64V267.58H353.491V253.729Z" fill="white"/>
<path opacity="0.03" d="M367.342 253.729H353.491V267.58H367.342V253.729Z" fill="#F2F2F2"/>
<path opacity="0.16" d="M381.193 253.729H367.342V267.58H381.193V253.729Z" fill="#F2F2F2"/>
<path opacity="0.22" d="M325.789 267.58H311.938V281.431H325.789V267.58Z" fill="#F2F2F2"/>
<path opacity="0.05" d="M339.64 267.58H325.789V281.431H339.64V267.58Z" fill="#CCCCCC"/>
<path opacity="0.22" d="M353.491 267.58H339.64V281.431H353.491V267.58Z" fill="#F2F2F2"/>
<path opacity="0.22" d="M367.342 267.58H353.491V281.431H367.342V267.58Z" fill="#F2F2F2"/>
<path opacity="0.22" d="M381.193 267.58H367.342V281.431H381.193V267.58Z" fill="#F2F2F2"/>
<path opacity="0.22" d="M325.789 281.431H311.938V295.283H325.789V281.431Z" fill="#F2F2F2"/>
<path opacity="0.22" d="M339.64 281.431H325.789V295.283H339.64V281.431Z" fill="white"/>
<path opacity="0.22" d="M353.491 281.431H339.64V295.283H353.491V281.431Z" fill="#F2F2F2"/>
<path opacity="0.22" d="M367.342 281.431H353.491V295.283H367.342V281.431Z" fill="#F2F2F2"/>
<path opacity="0.16" d="M381.193 281.431H367.342V295.283H381.193V281.431Z" fill="#808080"/>
<path opacity="0.22" d="M325.789 295.283H311.938V309.134H325.789V295.283Z" fill="white"/>
<path opacity="0.22" d="M339.64 295.283H325.789V309.134H339.64V295.283Z" fill="#F2F2F2"/>
<path opacity="0.22" d="M353.491 295.283H339.64V309.134H353.491V295.283Z" fill="#F2F2F2"/>
<path opacity="0.22" d="M367.342 295.283H353.491V309.134H367.342V295.283Z" fill="white"/>
<path opacity="0.22" d="M381.193 295.283H367.342V309.134H381.193V295.283Z" fill="#F2F2F2"/>
<path opacity="0.11" d="M353.491 309.134H339.64V322.985H353.491V309.134Z" fill="white"/>
<path opacity="0.16" d="M367.342 309.134H353.491V322.985H367.342V309.134Z" fill="#F2F2F2"/>
<path opacity="0.22" d="M381.193 309.134H367.342V322.985H381.193V309.134Z" fill="#F2F2F2"/>
<path opacity="0.22" d="M339.64 322.985H325.789V336.836H339.64V322.985Z" fill="#F2F2F2"/>
<path opacity="0.22" d="M353.491 322.985H339.64V336.836H353.491V322.985Z" fill="#F2F2F2"/>
<path opacity="0.22" d="M367.342 322.985H353.491V336.836H367.342V322.985Z" fill="#F2F2F2"/>
<path opacity="0.22" d="M381.193 322.985H367.342V336.836H381.193V322.985Z" fill="white"/>
<path opacity="0.22" d="M325.789 336.836H311.938V350.687H325.789V336.836Z" fill="#F2F2F2"/>
<path opacity="0.22" d="M339.64 336.836H325.789V350.687H339.64V336.836Z" fill="white"/>
<path opacity="0.27" d="M353.491 336.836H339.64V350.687H353.491V336.836Z" fill="white"/>
<path opacity="0.22" d="M367.342 336.836H353.491V350.687H367.342V336.836Z" fill="white"/>
<path opacity="0.22" d="M381.193 336.836H367.342V350.687H381.193V336.836Z" fill="#F2F2F2"/>
<path opacity="0.21" d="M381.193 350.687H367.342V364.538H381.193V350.687Z" fill="#F2F2F2"/>
<path opacity="0.32" d="M339.64 364.538H325.789V378.389H339.64V364.538Z" fill="#F2F2F2"/>
<path opacity="0.32" d="M353.491 364.538H339.64V378.389H353.491V364.538Z" fill="white"/>
<path opacity="0.32" d="M367.342 364.538H353.491V378.389H367.342V364.538Z" fill="white"/>
<path d="M381.193 364.538H367.342V378.389H381.193V364.538Z" fill="white"/>
<path opacity="0.32" d="M325.789 378.389H311.938V392.24H325.789V378.389Z" fill="#F2F2F2"/>
<path opacity="0.32" d="M367.342 378.389H353.491V392.24H367.342V378.389Z" fill="#F2F2F2"/>
<path opacity="0.16" d="M381.193 378.389H367.342V392.24H381.193V378.389Z" fill="#F2F2F2"/>
<path opacity="0.03" d="M395.045 253.729H381.193V267.58H395.045V253.729Z" fill="#B3B3B3"/>
<path opacity="0.16" d="M408.896 253.729H395.044V267.58H408.896V253.729Z" fill="#F2F2F2"/>
<path opacity="0.53" d="M422.747 253.729H408.896V267.58H422.747V253.729Z" fill="#F2F2F2"/>
<path opacity="0.11" d="M436.598 253.729H422.747V267.58H436.598V253.729Z" fill="#F2F2F2"/>
<path d="M450.449 253.729H436.598V267.58H450.449V253.729Z" fill="#F2F2F2"/>
<path opacity="0.05" d="M478.151 253.729H464.3V267.58H478.151V253.729Z" fill="#F2F2F2"/>
<path opacity="0.21" d="M492.002 253.729H478.151V267.58H492.002V253.729Z" fill="#F2F2F2"/>
<path opacity="0.21" d="M519.704 253.729H505.853V267.58H519.704V253.729Z" fill="#F2F2F2"/>
<path opacity="0.21" d="M533.556 253.729H519.704V267.58H533.556V253.729Z" fill="#F2F2F2"/>
<path opacity="0.22" d="M395.045 267.58H381.193V281.431H395.045V267.58Z" fill="#F2F2F2"/>
<path opacity="0.05" d="M450.449 267.58H436.598V281.431H450.449V267.58Z" fill="#F2F2F2"/>
<path d="M464.3 267.58H450.449V281.431H464.3V267.58Z" fill="white"/>
<path opacity="0.05" d="M492.002 267.58H478.151V281.431H492.002V267.58Z" fill="#B3B3B3"/>
<path opacity="0.21" d="M505.853 267.58H492.002V281.431H505.853V267.58Z" fill="#F2F2F2"/>
<path opacity="0.21" d="M519.704 267.58H505.853V281.431H519.704V267.58Z" fill="#F2F2F2"/>
<path opacity="0.21" d="M533.556 267.58H519.704V281.431H533.556V267.58Z" fill="#F2F2F2"/>
<path opacity="0.22" d="M395.045 281.431H381.193V295.283H395.045V281.431Z" fill="#F2F2F2"/>
<path d="M408.896 281.431H395.044V295.283H408.896V281.431Z" fill="white"/>
<path d="M422.747 281.431H408.896V295.283H422.747V281.431Z" fill="#F2F2F2"/>
<path opacity="0.46" d="M436.598 281.431H422.747V295.283H436.598V281.431Z" fill="#F2F2F2"/>
<path opacity="0.25" d="M450.449 281.431H436.598V295.283H450.449V281.431Z" fill="white"/>
<path opacity="0.16" d="M464.3 281.431H450.449V295.283H464.3V281.431Z" fill="#F2F2F2"/>
<path opacity="0.11" d="M478.151 281.431H464.3V295.283H478.151V281.431Z" fill="#F2F2F2"/>
<path opacity="0.11" d="M492.002 281.431H478.151V295.283H492.002V281.431Z" fill="#F2F2F2"/>
<path d="M505.853 281.431H492.002V295.283H505.853V281.431Z" fill="white"/>
<path opacity="0.05" d="M519.704 281.431H505.853V295.283H519.704V281.431Z" fill="#F2F2F2"/>
<path d="M533.556 281.431H519.704V295.283H533.556V281.431Z" fill="white"/>
<path opacity="0.22" d="M395.045 295.283H381.193V309.134H395.045V295.283Z" fill="#F2F2F2"/>
<path opacity="0.46" d="M408.896 295.283H395.044V309.134H408.896V295.283Z" fill="#F2F2F2"/>
<path opacity="0.16" d="M422.747 295.283H408.896V309.134H422.747V295.283Z" fill="#F2F2F2"/>
<path d="M436.598 295.283H422.747V309.134H436.598V295.283Z" fill="white"/>
<path d="M450.449 295.283H436.598V309.134H450.449V295.283Z" fill="#F2F2F2"/>
<path opacity="0.27" d="M464.3 295.283H450.449V309.134H464.3V295.283Z" fill="#F2F2F2"/>
<path opacity="0.11" d="M492.002 295.283H478.151V309.134H492.002V295.283Z" fill="#F2F2F2"/>
<path opacity="0.27" d="M505.853 295.283H492.002V309.134H505.853V295.283Z" fill="#F2F2F2"/>
<path opacity="0.21" d="M519.704 295.283H505.853V309.134H519.704V295.283Z" fill="#F2F2F2"/>
<path opacity="0.05" d="M533.556 295.283H519.704V309.134H533.556V295.283Z" fill="#F2F2F2"/>
<path opacity="0.16" d="M395.045 309.134H381.193V322.985H395.045V309.134Z" fill="#CCCCCC"/>
<path d="M408.896 309.134H395.044V322.985H408.896V309.134Z" fill="white"/>
<path opacity="0.11" d="M422.747 309.134H408.896V322.985H422.747V309.134Z" fill="#F2F2F2"/>
<path opacity="0.21" d="M450.449 309.134H436.598V322.985H450.449V309.134Z" fill="#F2F2F2"/>
<path opacity="0.46" d="M464.3 309.134H450.449V322.985H464.3V309.134Z" fill="#F2F2F2"/>
<path d="M478.151 309.134H464.3V322.985H478.151V309.134Z" fill="#F2F2F2"/>
<path d="M505.853 309.134H492.002V322.985H505.853V309.134Z" fill="white"/>
<path opacity="0.21" d="M519.704 309.134H505.853V322.985H519.704V309.134Z" fill="#F2F2F2"/>
<path opacity="0.21" d="M533.556 309.134H519.704V322.985H533.556V309.134Z" fill="#F2F2F2"/>
<path opacity="0.22" d="M395.045 322.985H381.193V336.836H395.045V322.985Z" fill="#F2F2F2"/>
<path opacity="0.42" d="M408.896 322.985H395.044V336.836H408.896V322.985Z" fill="#F2F2F2"/>
<path opacity="0.21" d="M422.747 322.985H408.896V336.836H422.747V322.985Z" fill="#F2F2F2"/>
<path opacity="0.05" d="M436.598 322.985H422.747V336.836H436.598V322.985Z" fill="#E6E6E6"/>
<path d="M450.449 322.985H436.598V336.836H450.449V322.985Z" fill="#F2F2F2"/>
<path opacity="0.03" d="M464.3 322.985H450.449V336.836H464.3V322.985Z" fill="#B3B3B3"/>
<path d="M478.151 322.985H464.3V336.836H478.151V322.985Z" fill="white"/>
<path opacity="0.21" d="M492.002 322.985H478.151V336.836H492.002V322.985Z" fill="#F2F2F2"/>
<path opacity="0.27" d="M505.853 322.985H492.002V336.836H505.853V322.985Z" fill="#F2F2F2"/>
<path d="M519.704 322.985H505.853V336.836H519.704V322.985Z" fill="white"/>
<path opacity="0.46" d="M533.556 322.985H519.704V336.836H533.556V322.985Z" fill="#F2F2F2"/>
<path opacity="0.22" d="M395.045 336.836H381.193V350.687H395.045V336.836Z" fill="white"/>
<path opacity="0.05" d="M408.896 336.836H395.044V350.687H408.896V336.836Z" fill="#F2F2F2"/>
<path opacity="0.03" d="M422.747 336.836H408.896V350.687H422.747V336.836Z" fill="#CCCCCC"/>
<path opacity="0.56" d="M436.598 336.836H422.747V350.687H436.598V336.836Z" fill="#F2F2F2"/>
<path opacity="0.27" d="M450.449 336.836H436.598V350.687H450.449V336.836Z" fill="#F2F2F2"/>
<path d="M464.3 336.836H450.449V350.687H464.3V336.836Z" fill="#F2F2F2"/>
<path opacity="0.21" d="M478.151 336.836H464.3V350.687H478.151V336.836Z" fill="#F2F2F2"/>
<path opacity="0.21" d="M505.853 336.836H492.002V350.687H505.853V336.836Z" fill="#F2F2F2"/>
<path opacity="0.21" d="M519.704 336.836H505.853V350.687H519.704V336.836Z" fill="#F2F2F2"/>
<path d="M533.556 336.836H519.704V350.687H533.556V336.836Z" fill="#F2F2F2"/>
<path d="M395.045 350.687H381.193V364.538H395.045V350.687Z" fill="#F2F2F2"/>
<path opacity="0.21" d="M408.896 350.687H395.044V364.538H408.896V350.687Z" fill="#F2F2F2"/>
<path d="M422.747 350.687H408.896V364.538H422.747V350.687Z" fill="white"/>
<path opacity="0.23" d="M436.598 350.687H422.747V364.538H436.598V350.687Z" fill="#F2F2F2"/>
<path opacity="0.21" d="M450.449 350.687H436.598V364.538H450.449V350.687Z" fill="#F2F2F2"/>
<path opacity="0.21" d="M464.3 350.687H450.449V364.538H464.3V350.687Z" fill="#F2F2F2"/>
<path d="M478.151 350.687H464.3V364.538H478.151V350.687Z" fill="#F2F2F2"/>
<path d="M492.002 350.687H478.151V364.538H492.002V350.687Z" fill="white"/>
<path opacity="0.46" d="M505.853 350.687H492.002V364.538H505.853V350.687Z" fill="#F2F2F2"/>
<path d="M519.704 350.687H505.853V364.538H519.704V350.687Z" fill="#F2F2F2"/>
<path d="M533.556 350.687H519.704V364.538H533.556V350.687Z" fill="white"/>
<path opacity="0.46" d="M395.045 364.538H381.193V378.389H395.045V364.538Z" fill="#F2F2F2"/>
<path opacity="0.27" d="M422.747 364.538H408.896V378.389H422.747V364.538Z" fill="#F2F2F2"/>
<path d="M436.598 364.538H422.747V378.389H436.598V364.538Z" fill="white"/>
<path d="M450.449 364.538H436.598V378.389H450.449V364.538Z" fill="white"/>
<path opacity="0.05" d="M464.3 364.538H450.449V378.389H464.3V364.538Z" fill="#F2F2F2"/>
<path d="M478.151 364.538H464.3V378.389H478.151V364.538Z" fill="white"/>
<path opacity="0.27" d="M492.002 364.538H478.151V378.389H492.002V364.538Z" fill="#F2F2F2"/>
<path opacity="0.05" d="M505.853 364.538H492.002V378.389H505.853V364.538Z" fill="#F2F2F2"/>
<path opacity="0.56" d="M519.704 364.538H505.853V378.389H519.704V364.538Z" fill="#F2F2F2"/>
<path d="M533.556 364.538H519.704V378.389H533.556V364.538Z" fill="white"/>
<path opacity="0.27" d="M395.045 378.389H381.193V392.24H395.045V378.389Z" fill="#F2F2F2"/>
<path opacity="0.03" d="M408.896 378.389H395.044V392.24H408.896V378.389Z" fill="#F2F2F2"/>
<path opacity="0.56" d="M422.747 378.389H408.896V392.24H422.747V378.389Z" fill="#F2F2F2"/>
<path opacity="0.05" d="M436.598 378.389H422.747V392.24H436.598V378.389Z" fill="#F2F2F2"/>
<path d="M450.449 378.389H436.598V392.24H450.449V378.389Z" fill="#F2F2F2"/>
<path d="M464.3 378.389H450.449V392.24H464.3V378.389Z" fill="white"/>
<path opacity="0.05" d="M478.151 378.389H464.3V392.24H478.151V378.389Z" fill="#F2F2F2"/>
<path opacity="0.56" d="M492.002 378.389H478.151V392.24H492.002V378.389Z" fill="white"/>
<path opacity="0.27" d="M505.853 378.389H492.002V392.24H505.853V378.389Z" fill="#F2F2F2"/>
<path opacity="0.46" d="M519.704 378.389H505.853V392.24H519.704V378.389Z" fill="#F2F2F2"/>
<path opacity="0.05" d="M533.556 378.389H519.704V392.24H533.556V378.389Z" fill="#E6E6E6"/>
<path opacity="0.32" d="M325.789 392.24H311.938V406.091H325.789V392.24Z" fill="white"/>
<path opacity="0.32" d="M339.64 392.24H325.789V406.091H339.64V392.24Z" fill="#F2F2F2"/>
<path opacity="0.32" d="M353.491 392.24H339.64V406.091H353.491V392.24Z" fill="#F2F2F2"/>
<path opacity="0.32" d="M367.342 392.24H353.491V406.091H367.342V392.24Z" fill="white"/>
<path opacity="0.39" d="M381.193 392.24H367.342V406.091H381.193V392.24Z" fill="#F2F2F2"/>
<path d="M395.045 392.24H381.193V406.091H395.045V392.24Z" fill="white"/>
<path d="M408.896 392.24H395.044V406.091H408.896V392.24Z" fill="#F2F2F2"/>
<path opacity="0.56" d="M422.747 392.24H408.896V406.091H422.747V392.24Z" fill="#F2F2F2"/>
<path d="M436.598 392.24H422.747V406.091H436.598V392.24Z" fill="white"/>
<path opacity="0.05" d="M450.449 392.24H436.598V406.091H450.449V392.24Z" fill="#F2F2F2"/>
<path d="M464.3 392.24H450.449V406.091H464.3V392.24Z" fill="white"/>
<path d="M478.151 392.24H464.3V406.091H478.151V392.24Z" fill="#F2F2F2"/>
<path d="M492.002 392.24H478.151V406.091H492.002V392.24Z" fill="white"/>
<path opacity="0.05" d="M505.853 392.24H492.002V406.091H505.853V392.24Z" fill="#F2F2F2"/>
<path opacity="0.05" d="M519.704 392.24H505.853V406.091H519.704V392.24Z" fill="#F2F2F2"/>
<path opacity="0.42" d="M533.556 392.24H519.704V406.091H533.556V392.24Z" fill="#F2F2F2"/>
<path opacity="0.19" d="M381.193 406.091H367.342V419.943H381.193V406.091Z" fill="#F2F2F2"/>
<path opacity="0.03" d="M395.045 406.091H381.193V419.943H395.045V406.091Z" fill="#F2F2F2"/>
<path opacity="0.56" d="M408.896 406.091H395.044V419.943H408.896V406.091Z" fill="#F2F2F2"/>
<path opacity="0.03" d="M422.747 406.091H408.896V419.943H422.747V406.091Z" fill="#F2F2F2"/>
<path opacity="0.56" d="M436.598 406.091H422.747V419.943H436.598V406.091Z" fill="#F2F2F2"/>
<path opacity="0.16" d="M450.449 406.091H436.598V419.943H450.449V406.091Z" fill="#F2F2F2"/>
<path opacity="0.56" d="M464.3 406.091H450.449V419.943H464.3V406.091Z" fill="#F2F2F2"/>
<path opacity="0.46" d="M478.151 406.091H464.3V419.943H478.151V406.091Z" fill="#F2F2F2"/>
<path d="M492.002 406.091H478.151V419.943H492.002V406.091Z" fill="#F2F2F2"/>
<path opacity="0.27" d="M505.853 406.091H492.002V419.943H505.853V406.091Z" fill="#F2F2F2"/>
<path opacity="0.42" d="M519.704 406.091H505.853V419.943H519.704V406.091Z" fill="#F2F2F2"/>
<path opacity="0.42" d="M533.556 406.091H519.704V419.943H533.556V406.091Z" fill="#F2F2F2"/>
<path opacity="0.31" d="M395.045 419.943H381.193V433.794H395.045V419.943Z" fill="#F2F2F2"/>
<path opacity="0.03" d="M408.896 419.943H395.044V433.794H408.896V419.943Z" fill="#E6E6E6"/>
<path opacity="0.31" d="M422.747 419.943H408.896V433.794H422.747V419.943Z" fill="#F2F2F2"/>
<path opacity="0.46" d="M450.449 419.943H436.598V433.794H450.449V419.943Z" fill="#F2F2F2"/>
<path opacity="0.31" d="M464.3 419.943H450.449V433.794H464.3V419.943Z" fill="#F2F2F2"/>
<path opacity="0.31" d="M492.002 419.943H478.151V433.794H492.002V419.943Z" fill="#F2F2F2"/>
<path opacity="0.31" d="M505.853 419.943H492.002V433.794H505.853V419.943Z" fill="#F2F2F2"/>
<path opacity="0.31" d="M395.045 433.794H381.193V447.645H395.045V433.794Z" fill="#F2F2F2"/>
<path opacity="0.31" d="M492.002 433.794H478.151V447.645H492.002V433.794Z" fill="#F2F2F2"/>
<path opacity="0.31" d="M505.853 433.794H492.002V447.645H505.853V433.794Z" fill="#F2F2F2"/>
<path opacity="0.11" d="M395.045 447.645H381.193V461.496H395.045V447.645Z" fill="#F2F2F2"/>
<path opacity="0.31" d="M492.002 447.645H478.151V461.496H492.002V447.645Z" fill="#F2F2F2"/>
<path opacity="0.16" d="M505.853 447.645H492.002V461.496H505.853V447.645Z" fill="#CCCCCC"/>
<path opacity="0.31" d="M492.002 477.481H478.151V491.332H492.002V477.481Z" fill="#F2F2F2"/>
<path d="M325.789 406.091H311.938V419.943H325.789V406.091Z" fill="white"/>
<path d="M339.64 406.091H325.789V419.943H339.64V406.091Z" fill="white"/>
<path d="M353.491 406.091H339.64V419.943H353.491V406.091Z" fill="white"/>
<path d="M367.342 406.091H353.491V419.943H367.342V406.091Z" fill="white"/>
<path opacity="0.31" d="M325.789 419.943H311.938V433.794H325.789V419.943Z" fill="white"/>
<path opacity="0.31" d="M339.64 419.943H325.789V433.794H339.64V419.943Z" fill="white"/>
<path opacity="0.31" d="M353.491 419.943H339.64V433.794H353.491V419.943Z" fill="white"/>
<path opacity="0.31" d="M367.342 419.943H353.491V433.794H367.342V419.943Z" fill="white"/>
<path opacity="0.42" d="M519.704 419.943H505.853V433.794H519.704V419.943Z" fill="white"/>
<path opacity="0.31" d="M325.789 433.794H311.938V447.645H325.789V433.794Z" fill="white"/>
<path opacity="0.31" d="M339.64 433.794H325.789V447.645H339.64V433.794Z" fill="white"/>
<path opacity="0.31" d="M353.491 433.794H339.64V447.645H353.491V433.794Z" fill="white"/>
<path opacity="0.31" d="M367.342 433.794H353.491V447.645H367.342V433.794Z" fill="white"/>
<path opacity="0.31" d="M408.896 433.794H395.044V447.645H408.896V433.794Z" fill="white"/>
<path opacity="0.31" d="M422.747 433.794H408.896V447.645H422.747V433.794Z" fill="white"/>
<path opacity="0.31" d="M436.598 433.794H422.747V447.645H436.598V433.794Z" fill="white"/>
<path opacity="0.31" d="M450.449 433.794H436.598V447.645H450.449V433.794Z" fill="white"/>
<path opacity="0.31" d="M464.3 433.794H450.449V447.645H464.3V433.794Z" fill="white"/>
<path opacity="0.31" d="M478.151 433.794H464.3V447.645H478.151V433.794Z" fill="white"/>
<path opacity="0.31" d="M519.704 433.794H505.853V447.645H519.704V433.794Z" fill="white"/>
<path opacity="0.31" d="M533.556 433.794H519.704V447.645H533.556V433.794Z" fill="white"/>
<path opacity="0.31" d="M325.789 447.645H311.938V461.496H325.789V447.645Z" fill="white"/>
<path opacity="0.31" d="M339.64 447.645H325.789V461.496H339.64V447.645Z" fill="white"/>
<path opacity="0.19" d="M353.491 447.645H339.64V461.496H353.491V447.645Z" fill="#F2F2F2"/>
<path opacity="0.31" d="M367.342 447.645H353.491V461.496H367.342V447.645Z" fill="white"/>
<path opacity="0.31" d="M408.896 447.645H395.044V461.496H408.896V447.645Z" fill="white"/>
<path opacity="0.31" d="M422.747 447.645H408.896V461.496H422.747V447.645Z" fill="white"/>
<path opacity="0.31" d="M436.598 447.645H422.747V461.496H436.598V447.645Z" fill="white"/>
<path opacity="0.31" d="M450.449 447.645H436.598V461.496H450.449V447.645Z" fill="white"/>
<path opacity="0.31" d="M464.3 447.645H450.449V461.496H464.3V447.645Z" fill="white"/>
<path opacity="0.31" d="M478.151 447.645H464.3V461.496H478.151V447.645Z" fill="white"/>
<path opacity="0.31" d="M519.704 447.645H505.853V461.496H519.704V447.645Z" fill="white"/>
<path opacity="0.31" d="M533.556 447.645H519.704V461.496H533.556V447.645Z" fill="white"/>
<path opacity="0.31" d="M325.789 461.496H311.938V475.347H325.789V461.496Z" fill="white"/>
<path opacity="0.31" d="M353.491 461.496H339.64V475.347H353.491V461.496Z" fill="white"/>
<path opacity="0.31" d="M367.342 461.496H353.491V475.347H367.342V461.496Z" fill="white"/>
<path opacity="0.31" d="M422.747 461.496H408.896V475.347H422.747V461.496Z" fill="white"/>
<path opacity="0.31" d="M436.598 461.496H422.747V475.347H436.598V461.496Z" fill="white"/>
<path opacity="0.31" d="M450.449 461.496H436.598V475.347H450.449V461.496Z" fill="white"/>
<path opacity="0.31" d="M464.3 461.496H450.449V475.347H464.3V461.496Z" fill="white"/>
<path opacity="0.31" d="M478.151 461.496H464.3V475.347H478.151V461.496Z" fill="white"/>
<path opacity="0.31" d="M519.704 461.496H505.853V475.347H519.704V461.496Z" fill="white"/>
<path d="M547.407 253.729H533.556V267.58H547.407V253.729Z" fill="white"/>
<path opacity="0.05" d="M561.258 253.729H547.407V267.58H561.258V253.729Z" fill="#F2F2F2"/>
<path opacity="0.05" d="M575.109 253.729H561.258V267.58H575.109V253.729Z" fill="#B3B3B3"/>
<path opacity="0.03" d="M588.96 253.729H575.109V267.58H588.96V253.729Z" fill="#F2F2F2"/>
<path d="M602.811 253.729H588.96V267.58H602.811V253.729Z" fill="#F2F2F2"/>
<path opacity="0.22" d="M547.407 267.58H533.556V281.431H547.407V267.58Z" fill="#F2F2F2"/>
<path opacity="0.22" d="M561.258 267.58H547.407V281.431H561.258V267.58Z" fill="#CCCCCC"/>
<path opacity="0.22" d="M575.109 267.58H561.258V281.431H575.109V267.58Z" fill="#F2F2F2"/>
<path opacity="0.22" d="M588.96 267.58H575.109V281.431H588.96V267.58Z" fill="#F2F2F2"/>
<path opacity="0.22" d="M602.811 267.58H588.96V281.431H602.811V267.58Z" fill="#F2F2F2"/>
<path opacity="0.22" d="M547.407 281.431H533.556V295.283H547.407V281.431Z" fill="#F2F2F2"/>
<path opacity="0.22" d="M561.258 281.431H547.407V295.283H561.258V281.431Z" fill="#F2F2F2"/>
<path opacity="0.22" d="M575.109 281.431H561.258V295.283H575.109V281.431Z" fill="#F2F2F2"/>
<path opacity="0.22" d="M588.96 281.431H575.109V295.283H588.96V281.431Z" fill="#F2F2F2"/>
<path opacity="0.16" d="M602.811 281.431H588.96V295.283H602.811V281.431Z" fill="#808080"/>
<path opacity="0.22" d="M547.407 295.283H533.556V309.134H547.407V295.283Z" fill="white"/>
<path opacity="0.22" d="M561.258 295.283H547.407V309.134H561.258V295.283Z" fill="#F2F2F2"/>
<path opacity="0.22" d="M575.109 295.283H561.258V309.134H575.109V295.283Z" fill="#F2F2F2"/>
<path opacity="0.22" d="M588.96 295.283H575.109V309.134H588.96V295.283Z" fill="white"/>
<path opacity="0.22" d="M547.407 309.134H533.556V322.985H547.407V309.134Z" fill="#F2F2F2"/>
<path opacity="0.22" d="M561.258 309.134H547.407V322.985H561.258V309.134Z" fill="#CCCCCC"/>
<path opacity="0.16" d="M575.109 309.134H561.258V322.985H575.109V309.134Z" fill="#F2F2F2"/>
<path opacity="0.22" d="M588.96 309.134H575.109V322.985H588.96V309.134Z" fill="#F2F2F2"/>
<path opacity="0.46" d="M602.811 309.134H588.96V322.985H602.811V309.134Z" fill="#F2F2F2"/>
<path opacity="0.22" d="M547.407 322.985H533.556V336.836H547.407V322.985Z" fill="#F2F2F2"/>
<path opacity="0.22" d="M561.258 322.985H547.407V336.836H561.258V322.985Z" fill="#F2F2F2"/>
<path opacity="0.22" d="M575.109 322.985H561.258V336.836H575.109V322.985Z" fill="#F2F2F2"/>
<path opacity="0.22" d="M588.96 322.985H575.109V336.836H588.96V322.985Z" fill="#F2F2F2"/>
<path opacity="0.22" d="M602.811 322.985H588.96V336.836H602.811V322.985Z" fill="#F2F2F2"/>
<path opacity="0.22" d="M547.407 336.836H533.556V350.687H547.407V336.836Z" fill="#F2F2F2"/>
<path opacity="0.22" d="M561.258 336.836H547.407V350.687H561.258V336.836Z" fill="#E6E6E6"/>
<path opacity="0.22" d="M575.109 336.836H561.258V350.687H575.109V336.836Z" fill="#F2F2F2"/>
<path opacity="0.22" d="M588.96 336.836H575.109V350.687H588.96V336.836Z" fill="#E6E6E6"/>
<path opacity="0.22" d="M602.811 336.836H588.96V350.687H602.811V336.836Z" fill="#F2F2F2"/>
<path opacity="0.46" d="M547.407 350.687H533.556V364.538H547.407V350.687Z" fill="#F2F2F2"/>
<path opacity="0.32" d="M561.258 350.687H547.407V364.538H561.258V350.687Z" fill="#F2F2F2"/>
<path opacity="0.32" d="M575.109 350.687H561.258V364.538H575.109V350.687Z" fill="#F2F2F2"/>
<path opacity="0.32" d="M588.96 350.687H575.109V364.538H588.96V350.687Z" fill="#F2F2F2"/>
<path opacity="0.46" d="M602.811 350.687H588.96V364.538H602.811V350.687Z" fill="#F2F2F2"/>
<path opacity="0.16" d="M547.407 364.538H533.556V378.389H547.407V364.538Z" fill="#B3B3B3"/>
<path opacity="0.32" d="M561.258 364.538H547.407V378.389H561.258V364.538Z" fill="#F2F2F2"/>
<path opacity="0.16" d="M575.109 364.538H561.258V378.389H575.109V364.538Z" fill="#B3B3B3"/>
<path opacity="0.32" d="M588.96 364.538H575.109V378.389H588.96V364.538Z" fill="#F2F2F2"/>
<path d="M602.811 364.538H588.96V378.389H602.811V364.538Z" fill="white"/>
<path opacity="0.32" d="M547.407 378.389H533.556V392.24H547.407V378.389Z" fill="#F2F2F2"/>
<path opacity="0.32" d="M561.258 378.389H547.407V392.24H561.258V378.389Z" fill="#F2F2F2"/>
<path opacity="0.32" d="M588.96 378.389H575.109V392.24H588.96V378.389Z" fill="#F2F2F2"/>
<path d="M602.811 378.389H588.96V392.24H602.811V378.389Z" fill="#F2F2F2"/>
<path opacity="0.03" d="M616.662 253.729H602.811V267.58H616.662V253.729Z" fill="#B3B3B3"/>
<path d="M630.513 253.729H616.662V267.58H630.513V253.729Z" fill="#F2F2F2"/>
<path opacity="0.53" d="M644.364 253.729H630.513V267.58H644.364V253.729Z" fill="#F2F2F2"/>
<path opacity="0.11" d="M658.215 253.729H644.364V267.58H658.215V253.729Z" fill="#F2F2F2"/>
<path d="M672.067 253.729H658.215V267.58H672.067V253.729Z" fill="#F2F2F2"/>
<path d="M685.918 253.729H672.067V267.58H685.918V253.729Z" fill="white"/>
<path d="M699.769 253.729H685.918V267.58H699.769V253.729Z" fill="#F2F2F2"/>
<path opacity="0.21" d="M713.62 253.729H699.769V267.58H713.62V253.729Z" fill="#F2F2F2"/>
<path opacity="0.21" d="M727.471 253.729H713.62V267.58H727.471V253.729Z" fill="#F2F2F2"/>
<path opacity="0.21" d="M741.322 253.729H727.471V267.58H741.322V253.729Z" fill="#F2F2F2"/>
<path opacity="0.21" d="M755.173 253.729H741.322V267.58H755.173V253.729Z" fill="#F2F2F2"/>
<path opacity="0.22" d="M616.662 267.58H602.811V281.431H616.662V267.58Z" fill="#F2F2F2"/>
<path opacity="0.46" d="M630.513 267.58H616.662V281.431H630.513V267.58Z" fill="#F2F2F2"/>
<path d="M658.215 267.58H644.364V281.431H658.215V267.58Z" fill="#F2F2F2"/>
<path d="M672.067 267.58H658.215V281.431H672.067V267.58Z" fill="white"/>
<path opacity="0.05" d="M685.918 267.58H672.067V281.431H685.918V267.58Z" fill="#E6E6E6"/>
<path opacity="0.16" d="M699.769 267.58H685.918V281.431H699.769V267.58Z" fill="#F2F2F2"/>
<path opacity="0.21" d="M713.62 267.58H699.769V281.431H713.62V267.58Z" fill="#B3B3B3"/>
<path opacity="0.21" d="M727.471 267.58H713.62V281.431H727.471V267.58Z" fill="#F2F2F2"/>
<path opacity="0.21" d="M741.322 267.58H727.471V281.431H741.322V267.58Z" fill="#F2F2F2"/>
<path opacity="0.22" d="M616.662 281.431H602.811V295.283H616.662V281.431Z" fill="#F2F2F2"/>
<path d="M630.513 281.431H616.662V295.283H630.513V281.431Z" fill="#F2F2F2"/>
<path d="M644.364 281.431H630.513V295.283H644.364V281.431Z" fill="white"/>
<path opacity="0.05" d="M658.215 281.431H644.364V295.283H658.215V281.431Z" fill="#F2F2F2"/>
<path d="M672.067 281.431H658.215V295.283H672.067V281.431Z" fill="white"/>
<path opacity="0.46" d="M685.918 281.431H672.067V295.283H685.918V281.431Z" fill="#F2F2F2"/>
<path opacity="0.11" d="M699.769 281.431H685.918V295.283H699.769V281.431Z" fill="#F2F2F2"/>
<path opacity="0.11" d="M713.62 281.431H699.769V295.283H713.62V281.431Z" fill="#F2F2F2"/>
<path opacity="0.46" d="M727.471 281.431H713.62V295.283H727.471V281.431Z" fill="#F2F2F2"/>
<path d="M741.322 281.431H727.471V295.283H741.322V281.431Z" fill="#F2F2F2"/>
<path opacity="0.46" d="M755.173 281.431H741.322V295.283H755.173V281.431Z" fill="#F2F2F2"/>
<path opacity="0.22" d="M616.662 295.283H602.811V309.134H616.662V295.283Z" fill="#F2F2F2"/>
<path opacity="0.46" d="M644.364 295.283H630.513V309.134H644.364V295.283Z" fill="#F2F2F2"/>
<path d="M672.067 295.283H658.215V309.134H672.067V295.283Z" fill="#F2F2F2"/>
<path d="M685.918 295.283H672.067V309.134H685.918V295.283Z" fill="#F2F2F2"/>
<path d="M699.769 295.283H685.918V309.134H699.769V295.283Z" fill="white"/>
<path opacity="0.11" d="M713.62 295.283H699.769V309.134H713.62V295.283Z" fill="#F2F2F2"/>
<path d="M727.471 295.283H713.62V309.134H727.471V295.283Z" fill="#F2F2F2"/>
<path opacity="0.21" d="M741.322 295.283H727.471V309.134H741.322V295.283Z" fill="#F2F2F2"/>
<path opacity="0.22" d="M616.662 309.134H602.811V322.985H616.662V309.134Z" fill="#CCCCCC"/>
<path opacity="0.16" d="M630.513 309.134H616.662V322.985H630.513V309.134Z" fill="#F2F2F2"/>
<path opacity="0.11" d="M644.364 309.134H630.513V322.985H644.364V309.134Z" fill="#F2F2F2"/>
<path d="M658.215 309.134H644.364V322.985H658.215V309.134Z" fill="#F2F2F2"/>
<path opacity="0.46" d="M672.067 309.134H658.215V322.985H672.067V309.134Z" fill="#F2F2F2"/>
<path opacity="0.27" d="M699.769 309.134H685.918V322.985H699.769V309.134Z" fill="#F2F2F2"/>
<path d="M727.471 309.134H713.62V322.985H727.471V309.134Z" fill="white"/>
<path opacity="0.21" d="M741.322 309.134H727.471V322.985H741.322V309.134Z" fill="#F2F2F2"/>
<path opacity="0.21" d="M755.173 309.134H741.322V322.985H755.173V309.134Z" fill="#F2F2F2"/>
<path opacity="0.22" d="M616.662 322.985H602.811V336.836H616.662V322.985Z" fill="#F2F2F2"/>
<path opacity="0.42" d="M630.513 322.985H616.662V336.836H630.513V322.985Z" fill="#F2F2F2"/>
<path opacity="0.21" d="M644.364 322.985H630.513V336.836H644.364V322.985Z" fill="#F2F2F2"/>
<path opacity="0.46" d="M672.067 322.985H658.215V336.836H672.067V322.985Z" fill="#F2F2F2"/>
<path opacity="0.03" d="M685.918 322.985H672.067V336.836H685.918V322.985Z" fill="#B3B3B3"/>
<path d="M699.769 322.985H685.918V336.836H699.769V322.985Z" fill="#F2F2F2"/>
<path opacity="0.21" d="M713.62 322.985H699.769V336.836H713.62V322.985Z" fill="#F2F2F2"/>
<path opacity="0.27" d="M727.471 322.985H713.62V336.836H727.471V322.985Z" fill="#F2F2F2"/>
<path d="M741.322 322.985H727.471V336.836H741.322V322.985Z" fill="white"/>
<path opacity="0.22" d="M616.662 336.836H602.811V350.687H616.662V336.836Z" fill="white"/>
<path d="M630.513 336.836H616.662V350.687H630.513V336.836Z" fill="#F2F2F2"/>
<path opacity="0.03" d="M644.364 336.836H630.513V350.687H644.364V336.836Z" fill="#CCCCCC"/>
<path opacity="0.56" d="M658.215 336.836H644.364V350.687H658.215V336.836Z" fill="#F2F2F2"/>
<path opacity="0.16" d="M672.067 336.836H658.215V350.687H672.067V336.836Z" fill="#F2F2F2"/>
<path opacity="0.16" d="M685.918 336.836H672.067V350.687H685.918V336.836Z" fill="#F2F2F2"/>
<path opacity="0.21" d="M699.769 336.836H685.918V350.687H699.769V336.836Z" fill="#F2F2F2"/>
<path d="M713.62 336.836H699.769V350.687H713.62V336.836Z" fill="#F2F2F2"/>
<path opacity="0.21" d="M727.471 336.836H713.62V350.687H727.471V336.836Z" fill="#F2F2F2"/>
<path opacity="0.46" d="M741.322 336.836H727.471V350.687H741.322V336.836Z" fill="#F2F2F2"/>
<path opacity="0.16" d="M616.662 350.687H602.811V364.538H616.662V350.687Z" fill="#F2F2F2"/>
<path opacity="0.21" d="M630.513 350.687H616.662V364.538H630.513V350.687Z" fill="#F2F2F2"/>
<path d="M644.364 350.687H630.513V364.538H644.364V350.687Z" fill="#F2F2F2"/>
<path opacity="0.27" d="M658.215 350.687H644.364V364.538H658.215V350.687Z" fill="#F2F2F2"/>
<path opacity="0.21" d="M672.067 350.687H658.215V364.538H672.067V350.687Z" fill="#F2F2F2"/>
<path opacity="0.21" d="M685.918 350.687H672.067V364.538H685.918V350.687Z" fill="#F2F2F2"/>
<path d="M699.769 350.687H685.918V364.538H699.769V350.687Z" fill="#F2F2F2"/>
<path opacity="0.46" d="M713.62 350.687H699.769V364.538H713.62V350.687Z" fill="#F2F2F2"/>
<path d="M727.471 350.687H713.62V364.538H727.471V350.687Z" fill="white"/>
<path opacity="0.03" d="M616.662 364.538H602.811V378.389H616.662V364.538Z" fill="#E6E6E6"/>
<path opacity="0.16" d="M644.364 364.538H630.513V378.389H644.364V364.538Z" fill="#F2F2F2"/>
<path d="M658.215 364.538H644.364V378.389H658.215V364.538Z" fill="white"/>
<path d="M672.067 364.538H658.215V378.389H672.067V364.538Z" fill="#E6E6E6"/>
<path opacity="0.05" d="M685.918 364.538H672.067V378.389H685.918V364.538Z" fill="#F2F2F2"/>
<path d="M699.769 364.538H685.918V378.389H699.769V364.538Z" fill="white"/>
<path d="M713.62 364.538H699.769V378.389H713.62V364.538Z" fill="#F2F2F2"/>
<path opacity="0.05" d="M727.471 364.538H713.62V378.389H727.471V364.538Z" fill="#F2F2F2"/>
<path opacity="0.56" d="M741.322 364.538H727.471V378.389H741.322V364.538Z" fill="#F2F2F2"/>
<path d="M755.173 364.538H741.322V378.389H755.173V364.538Z" fill="white"/>
<path opacity="0.23" d="M616.662 378.389H602.811V392.24H616.662V378.389Z" fill="#F2F2F2"/>
<path opacity="0.03" d="M630.513 378.389H616.662V392.24H630.513V378.389Z" fill="#F2F2F2"/>
<path opacity="0.27" d="M644.364 378.389H630.513V392.24H644.364V378.389Z" fill="#F2F2F2"/>
<path opacity="0.05" d="M658.215 378.389H644.364V392.24H658.215V378.389Z" fill="#F2F2F2"/>
<path d="M672.067 378.389H658.215V392.24H672.067V378.389Z" fill="#F2F2F2"/>
<path opacity="0.23" d="M685.918 378.389H672.067V392.24H685.918V378.389Z" fill="#F2F2F2"/>
<path opacity="0.05" d="M699.769 378.389H685.918V392.24H699.769V378.389Z" fill="#F2F2F2"/>
<path opacity="0.56" d="M713.62 378.389H699.769V392.24H713.62V378.389Z" fill="#F2F2F2"/>
<path d="M727.471 378.389H713.62V392.24H727.471V378.389Z" fill="#F2F2F2"/>
<path opacity="0.42" d="M741.322 378.389H727.471V392.24H741.322V378.389Z" fill="#F2F2F2"/>
<path opacity="0.05" d="M755.173 378.389H741.322V392.24H755.173V378.389Z" fill="#E6E6E6"/>
<path opacity="0.32" d="M547.407 392.24H533.556V406.091H547.407V392.24Z" fill="white"/>
<path opacity="0.32" d="M561.258 392.24H547.407V406.091H561.258V392.24Z" fill="#F2F2F2"/>
<path opacity="0.32" d="M575.109 392.24H561.258V406.091H575.109V392.24Z" fill="#F2F2F2"/>
<path opacity="0.32" d="M588.96 392.24H575.109V406.091H588.96V392.24Z" fill="white"/>
<path opacity="0.39" d="M602.811 392.24H588.96V406.091H602.811V392.24Z" fill="#F2F2F2"/>
<path d="M616.662 392.24H602.811V406.091H616.662V392.24Z" fill="white"/>
<path d="M630.513 392.24H616.662V406.091H630.513V392.24Z" fill="white"/>
<path opacity="0.56" d="M644.364 392.24H630.513V406.091H644.364V392.24Z" fill="#F2F2F2"/>
<path d="M658.215 392.24H644.364V406.091H658.215V392.24Z" fill="white"/>
<path opacity="0.05" d="M672.067 392.24H658.215V406.091H672.067V392.24Z" fill="#F2F2F2"/>
<path opacity="0.46" d="M685.918 392.24H672.067V406.091H685.918V392.24Z" fill="#F2F2F2"/>
<path d="M699.769 392.24H685.918V406.091H699.769V392.24Z" fill="#F2F2F2"/>
<path opacity="0.23" d="M713.62 392.24H699.769V406.091H713.62V392.24Z" fill="#CCCCCC"/>
<path opacity="0.05" d="M727.471 392.24H713.62V406.091H727.471V392.24Z" fill="#F2F2F2"/>
<path opacity="0.05" d="M741.322 392.24H727.471V406.091H741.322V392.24Z" fill="#F2F2F2"/>
<path opacity="0.19" d="M602.811 406.091H588.96V419.943H602.811V406.091Z" fill="#F2F2F2"/>
<path opacity="0.03" d="M616.662 406.091H602.811V419.943H616.662V406.091Z" fill="#F2F2F2"/>
<path opacity="0.56" d="M630.513 406.091H616.662V419.943H630.513V406.091Z" fill="#F2F2F2"/>
<path opacity="0.03" d="M644.364 406.091H630.513V419.943H644.364V406.091Z" fill="#F2F2F2"/>
<path opacity="0.27" d="M658.215 406.091H644.364V419.943H658.215V406.091Z" fill="#F2F2F2"/>
<path opacity="0.27" d="M672.067 406.091H658.215V419.943H672.067V406.091Z" fill="#F2F2F2"/>
<path opacity="0.27" d="M685.918 406.091H672.067V419.943H685.918V406.091Z" fill="#F2F2F2"/>
<path opacity="0.05" d="M699.769 406.091H685.918V419.943H699.769V406.091Z" fill="#F2F2F2"/>
<path opacity="0.05" d="M713.62 406.091H699.769V419.943H713.62V406.091Z" fill="#F2F2F2"/>
<path opacity="0.31" d="M616.662 419.943H602.811V433.794H616.662V419.943Z" fill="#F2F2F2"/>
<path opacity="0.03" d="M630.513 419.943H616.662V433.794H630.513V419.943Z" fill="#E6E6E6"/>
<path opacity="0.31" d="M644.364 419.943H630.513V433.794H644.364V419.943Z" fill="#F2F2F2"/>
<path opacity="0.31" d="M672.067 419.943H658.215V433.794H672.067V419.943Z" fill="#F2F2F2"/>
<path opacity="0.31" d="M685.918 419.943H672.067V433.794H685.918V419.943Z" fill="#F2F2F2"/>
<path opacity="0.31" d="M713.62 419.943H699.769V433.794H713.62V419.943Z" fill="#F2F2F2"/>
<path opacity="0.31" d="M727.471 419.943H713.62V433.794H727.471V419.943Z" fill="#F2F2F2"/>
<path opacity="0.31" d="M616.662 433.794H602.811V447.645H616.662V433.794Z" fill="#F2F2F2"/>
<path opacity="0.31" d="M713.62 433.794H699.769V447.645H713.62V433.794Z" fill="#F2F2F2"/>
<path opacity="0.31" d="M727.471 433.794H713.62V447.645H727.471V433.794Z" fill="#F2F2F2"/>
<path opacity="0.11" d="M616.662 447.645H602.811V461.496H616.662V447.645Z" fill="#F2F2F2"/>
<path opacity="0.31" d="M713.62 447.645H699.769V461.496H713.62V447.645Z" fill="#F2F2F2"/>
<path opacity="0.27" d="M756.672 447.645H742.821V461.496H756.672V447.645Z" fill="#CCCCCC"/>
<path opacity="0.31" d="M713.62 461.496H699.769V475.347H713.62V461.496Z" fill="#F2F2F2"/>
<path opacity="0.31" d="M727.471 461.496H713.62V475.347H727.471V461.496Z" fill="#F2F2F2"/>
<path d="M547.407 406.091H533.556V419.943H547.407V406.091Z" fill="white"/>
<path d="M561.258 406.091H547.407V419.943H561.258V406.091Z" fill="white"/>
<path d="M575.109 406.091H561.258V419.943H575.109V406.091Z" fill="white"/>
<path d="M588.96 406.091H575.109V419.943H588.96V406.091Z" fill="white"/>
<path opacity="0.31" d="M547.407 419.943H533.556V433.794H547.407V419.943Z" fill="white"/>
<path opacity="0.31" d="M561.258 419.943H547.407V433.794H561.258V419.943Z" fill="white"/>
<path opacity="0.31" d="M575.109 419.943H561.258V433.794H575.109V419.943Z" fill="white"/>
<path opacity="0.31" d="M588.96 419.943H575.109V433.794H588.96V419.943Z" fill="white"/>
<path opacity="0.42" d="M741.322 419.943H727.471V433.794H741.322V419.943Z" fill="white"/>
<path opacity="0.31" d="M547.407 433.794H533.556V447.645H547.407V433.794Z" fill="white"/>
<path opacity="0.31" d="M561.258 433.794H547.407V447.645H561.258V433.794Z" fill="white"/>
<path opacity="0.31" d="M575.109 433.794H561.258V447.645H575.109V433.794Z" fill="white"/>
<path opacity="0.31" d="M588.96 433.794H575.109V447.645H588.96V433.794Z" fill="white"/>
<path opacity="0.31" d="M630.513 433.794H616.662V447.645H630.513V433.794Z" fill="white"/>
<path opacity="0.31" d="M644.364 433.794H630.513V447.645H644.364V433.794Z" fill="white"/>
<path opacity="0.31" d="M658.215 433.794H644.364V447.645H658.215V433.794Z" fill="white"/>
<path opacity="0.31" d="M672.067 433.794H658.215V447.645H672.067V433.794Z" fill="white"/>
<path opacity="0.31" d="M685.918 433.794H672.067V447.645H685.918V433.794Z" fill="white"/>
<path opacity="0.31" d="M699.769 433.794H685.918V447.645H699.769V433.794Z" fill="white"/>
<path opacity="0.31" d="M741.322 433.794H727.471V447.645H741.322V433.794Z" fill="white"/>
<path opacity="0.31" d="M755.173 433.794H741.322V447.645H755.173V433.794Z" fill="white"/>
<path opacity="0.31" d="M547.407 447.645H533.556V461.496H547.407V447.645Z" fill="white"/>
<path opacity="0.31" d="M561.258 447.645H547.407V461.496H561.258V447.645Z" fill="white"/>
<path opacity="0.19" d="M575.109 447.645H561.258V461.496H575.109V447.645Z" fill="#F2F2F2"/>
<path opacity="0.31" d="M588.96 447.645H575.109V461.496H588.96V447.645Z" fill="white"/>
<path opacity="0.31" d="M630.513 447.645H616.662V461.496H630.513V447.645Z" fill="white"/>
<path opacity="0.31" d="M644.364 447.645H630.513V461.496H644.364V447.645Z" fill="white"/>
<path opacity="0.31" d="M658.215 447.645H644.364V461.496H658.215V447.645Z" fill="white"/>
<path opacity="0.31" d="M672.067 447.645H658.215V461.496H672.067V447.645Z" fill="white"/>
<path opacity="0.31" d="M685.918 447.645H672.067V461.496H685.918V447.645Z" fill="white"/>
<path opacity="0.31" d="M699.769 447.645H685.918V461.496H699.769V447.645Z" fill="white"/>
<path opacity="0.31" d="M770.523 447.645H756.672V461.496H770.523V447.645Z" fill="white"/>
<path opacity="0.31" d="M784.374 447.645H770.523V461.496H784.374V447.645Z" fill="white"/>
<path opacity="0.31" d="M547.407 461.496H533.556V475.347H547.407V461.496Z" fill="white"/>
<path opacity="0.31" d="M575.109 461.496H561.258V475.347H575.109V461.496Z" fill="white"/>
<path opacity="0.31" d="M644.364 461.496H630.513V475.347H644.364V461.496Z" fill="white"/>
<path opacity="0.31" d="M658.215 461.496H644.364V475.347H658.215V461.496Z" fill="white"/>
<path opacity="0.31" d="M672.067 461.496H658.215V475.347H672.067V461.496Z" fill="white"/>
<path opacity="0.31" d="M685.918 461.496H672.067V475.347H685.918V461.496Z" fill="white"/>
<path opacity="0.31" d="M699.769 461.496H685.918V475.347H699.769V461.496Z" fill="white"/>
<path opacity="0.31" d="M741.322 461.496H727.471V475.347H741.322V461.496Z" fill="white"/>
<path d="M826.638 350.687H812.786V364.538H826.638V350.687Z" fill="#F2F2F2"/>
<path opacity="0.46" d="M840.489 350.687H826.637V364.538H840.489V350.687Z" fill="#F2F2F2"/>
<path opacity="0.31" d="M805.566 226.027H791.715V239.878H805.566V226.027Z" fill="#F2F2F2"/>
<path opacity="0.31" d="M819.417 226.027H805.566V239.878H819.417V226.027Z" fill="#CCCCCC"/>
<path opacity="0.42" d="M844.803 170.623H830.952V184.474H844.803V170.623Z" fill="#F2F2F2"/>
<path opacity="0.42" d="M844.803 184.474H830.952V198.325H844.803V184.474Z" fill="#F2F2F2"/>
<path d="M830.271 115.218H816.419V129.069H830.271V115.218Z" fill="#F2F2F2"/>
<path d="M851.388 32.1116H837.537V45.9627H851.388V32.1116Z" fill="#F2F2F2"/>
<path d="M837.537 45.9626H823.686V59.8137H837.537V45.9626Z" fill="#F2F2F2"/>
<path d="M851.388 45.9626H837.537V59.8137H851.388V45.9626Z" fill="#E6E6E6"/>
<path d="M851.388 59.8138H837.537V73.6649H851.388V59.8138Z" fill="#F2F2F2"/>
<path opacity="0.22" d="M429.967 354.381H416.116V368.232H429.967V354.381Z" fill="#F2F2F2"/>
<path opacity="0.32" d="M429.967 382.083H416.116V395.934H429.967V382.083Z" fill="#F2F2F2"/>
<path opacity="0.05" d="M429.967 395.934H416.116V409.785H429.967V395.934Z" fill="#B3B3B3"/>
<path opacity="0.32" d="M443.818 409.785H429.967V423.636H443.818V409.785Z" fill="#F2F2F2"/>
<path opacity="0.22" d="M372.564 77.3586H358.713V91.2097H372.564V77.3586Z" fill="#F2F2F2"/>
<path opacity="0.22" d="M372.564 91.2098H358.713V105.061H372.564V91.2098Z" fill="#F2F2F2"/>
<path opacity="0.22" d="M386.415 118.912H372.564V132.763H386.415V118.912Z" fill="#CCCCCC"/>
<path opacity="0.32" d="M392.909 382.083H379.058V395.934H392.909V382.083Z" fill="#F2F2F2"/>
<path opacity="0.32" d="M406.76 382.083H392.909V395.934H406.76V382.083Z" fill="#F2F2F2"/>
<path opacity="0.32" d="M420.611 382.083H406.76V395.934H420.611V382.083Z" fill="#F2F2F2"/>
<path opacity="0.42" d="M950.314 423.636H936.463V437.487H950.314V423.636Z" fill="#F2F2F2"/>
<path d="M922.612 437.487H908.761V451.339H922.612V437.487Z" fill="#F2F2F2"/>
<path opacity="0.42" d="M936.463 437.487H922.612V451.339H936.463V437.487Z" fill="#F2F2F2"/>
<path opacity="0.42" d="M950.314 437.487H936.463V451.339H950.314V437.487Z" fill="#F2F2F2"/>
<path opacity="0.31" d="M526.788 541.62H512.937V555.472H526.788V541.62Z" fill="#F2F2F2"/>
<path opacity="0.31" d="M540.639 541.62H526.788V555.472H540.639V541.62Z" fill="#F2F2F2"/>
<path opacity="0.31" d="M650.858 547.433H637.007V561.285H650.858V547.433Z" fill="#F2F2F2"/>
<path opacity="0.31" d="M471.429 527.815H457.578V541.666H471.429V527.815Z" fill="#F2F2F2"/>
<path opacity="0.31" d="M485.28 527.815H471.429V541.666H485.28V527.815Z" fill="#F2F2F2"/>
<path opacity="0.31" d="M457.578 529.145H443.727V542.996H457.578V529.145Z" fill="white"/>
<path d="M986.599 340.348H972.748V354.199H986.599V340.348Z" fill="#F2F2F2"/>
<path d="M972.748 354.199H958.897V368.05H972.748V354.199Z" fill="#F2F2F2"/>
<path d="M986.599 354.199H972.748V368.05H986.599V354.199Z" fill="#F2F2F2"/>
<path opacity="0.22" d="M996 231.356H982.149V245.207H996V231.356Z" fill="#CCCCCC"/>
<path d="M989.46 181.219H975.609V195.07H989.46V181.219Z" fill="#F2F2F2"/>
<path d="M33.1206 398.369H19.2695V412.22H33.1206V398.369Z" fill="#F2F2F2"/>
<path d="M46.9718 398.369H33.1207V412.22H46.9718V398.369Z" fill="#F2F2F2"/>
<path d="M60.8228 398.369H46.9717V412.22H60.8228V398.369Z" fill="#F2F2F2"/>
<path d="M13.8511 326.546H0V340.397H13.8511V326.546Z" fill="#F2F2F2"/>
<path d="M201.128 412.328H187.277V426.179H201.128V412.328Z" fill="#E6E6E6"/>
<path d="M60.8228 412.22H46.9717V426.071H60.8228V412.22Z" fill="#F2F2F2"/>
<path opacity="0.21" d="M842.9 0.715515H829.049V14.5666H842.9V0.715515Z" fill="#F2F2F2"/>
<path opacity="0.21" d="M856.751 0.715515H842.9V14.5666H856.751V0.715515Z" fill="#F2F2F2"/>
<path opacity="0.21" d="M870.602 0.715515H856.751V14.5666H870.602V0.715515Z" fill="#F2F2F2"/>
<path opacity="0.21" d="M884.453 0.715515H870.602V14.5666H884.453V0.715515Z" fill="#F2F2F2"/>
<path opacity="0.21" d="M842.9 14.5666H829.049V28.4177H842.9V14.5666Z" fill="#B3B3B3"/>
<path opacity="0.21" d="M856.751 14.5666H842.9V28.4177H856.751V14.5666Z" fill="#F2F2F2"/>
<path opacity="0.21" d="M870.602 14.5666H856.751V28.4177H870.602V14.5666Z" fill="#F2F2F2"/>
<path d="M672.069 17.3369H658.217V31.188H672.069V17.3369Z" fill="#F2F2F2"/>
<path opacity="0.05" d="M685.92 17.3369H672.069V31.188H685.92V17.3369Z" fill="#B3B3B3"/>
<path opacity="0.21" d="M74.674 412.22H60.8229V426.071H74.674V412.22Z" fill="#B3B3B3"/>
</g>
</svg>
