<svg width="33" height="45" fill="none" xmlns="http://www.w3.org/2000/svg"><path fill="#FF843F" d="M17 0h16v16.8H17z"/><path d="M22.454 45H3.546C1.595 45 0 43.397 0 41.437V10.564C0 8.602 1.595 7 3.545 7h18.91C24.404 7 26 8.603 26 10.563v30.874C26 43.398 24.404 45 22.454 45zM3.546 9.375c-.65 0-1.181.534-1.181 1.188v30.874c0 .654.531 1.188 1.181 1.188h18.91c.65 0 1.181-.534 1.181-1.188V10.564c0-.654-.531-1.188-1.181-1.188H3.544z" fill="#200B73"/><path d="M11.818 35.5h-7.09v2.375h7.09V35.5z" fill="#200B73"/><path d="M9.455 33.125H7.09v7.125h2.364v-7.125zm10.635 3.563a1.178 1.178 0 01-1.087-1.639c.06-.143.142-.273.249-.392.449-.44 1.24-.44 1.678 0 .106.119.19.25.248.392a1.178 1.178 0 01-.248 1.294c-.225.226-.52.344-.84.344zm-2.363 2.375a1.16 1.16 0 01-.449-.084 1.728 1.728 0 01-.39-.26 1.226 1.226 0 01-.248-.393 1.187 1.187 0 01-.095-.451c0-.154.036-.309.095-.451a1.37 1.37 0 01.248-.392l.177-.143a.895.895 0 01.213-.107.71.71 0 01.225-.07.993.993 0 01.46 0 .729.729 0 01.213.07c.071.024.142.06.213.107l.177.143c.107.119.19.25.248.392.06.142.095.297.095.451 0 .154-.035.309-.095.451a1.37 1.37 0 01-.248.392c-.224.226-.52.344-.839.344zm3.546-8.313H4.727v-19h16.546v19zM7.09 28.375h11.818v-14.25H7.091v14.25z" fill="#200B73"/></svg>