<svg width="40" height="43" fill="none" xmlns="http://www.w3.org/2000/svg"><path fill="#FF843F" d="M24 0h16v16.8H24z"/><path d="M33.754 43H2.246A2.255 2.255 0 010 40.75l.011-.168 2.235-14.35V9.248A2.254 2.254 0 014.493 7h27.014a2.254 2.254 0 012.247 2.25v16.98L36 40.751C36 41.988 35 43 33.754 43zM2.258 40.75h31.484l-2.235-14.428V9.248H4.493L4.482 26.49 2.258 40.75z" fill="#200B73"/><path d="M27.025 31.753H24.78v-2.249h2.246v2.25zm-4.493 0h-2.246v-2.249h2.246v2.25zm-4.493 0h-2.246v-2.249h2.246v2.25zm-4.493 0H11.3v-2.249h2.246v2.25zm-4.493 0H6.807v-2.249h2.246v2.25zM23.655 43H12.424v-6.748h11.232V43zm-8.985-2.25h6.74v-2.249h-6.74v2.25zm17.972-15.744H2.314v2.249h30.328v-2.25z" fill="#200B73"/><path d="M29.272 34.003h-2.247v-2.25h2.247v2.25zm-4.493 0h-2.247v-2.25h2.247v2.25zm-4.493 0h-2.247v-2.25h2.247v2.25zm-4.493 0h-2.247v-2.25h2.247v2.25zm-4.493 0H9.053v-2.25H11.3v2.25zm6.75-20.243c-.146 0-.292-.035-.426-.09a1.049 1.049 0 01-.371-.237 1.183 1.183 0 01-.326-.799c0-.146.023-.292.09-.427a1.05 1.05 0 01.236-.371c.101-.101.225-.18.37-.236.203-.09.427-.113.64-.068a.677.677 0 01.214.068.627.627 0 01.191.101c.068.034.124.09.18.135.101.101.18.225.236.371.056.135.09.281.09.427 0 .293-.124.585-.326.799-.056.045-.112.09-.18.135a.627.627 0 01-.19.101.68.68 0 01-.214.068c-.079.01-.157.022-.213.022z" fill="#200B73"/></svg>