<svg width="43" height="40" fill="none" xmlns="http://www.w3.org/2000/svg"><path fill="#FF843F" d="M27 0h16v16.8H27z"/><path d="M35.625 35.286H2.375C1.069 35.286 0 34.225 0 32.929V9.357C0 8.061 1.069 7 2.375 7h33.25C36.931 7 38 8.06 38 9.357V32.93c0 1.296-1.069 2.357-2.375 2.357zM2.375 9.357V32.93h33.25V9.357H2.375z" fill="#200B73"/><path d="M36.813 28.214H1.187v2.357h35.626v-2.357zm-21.388 5.893H13.05v4.714h2.375v-4.714zm9.513 0h-2.375v4.714h2.375v-4.714z" fill="#200B73"/><path d="M27.313 37.643H10.688V40h16.624v-2.357zm-13.063-16.5c-.309 0-.617-.13-.843-.342a1.36 1.36 0 01-.25-.39.981.981 0 01-.095-.447c0-.082.012-.153.024-.236a.743.743 0 01.072-.212.888.888 0 01.106-.212c.036-.059.095-.118.143-.177.332-.33.855-.436 1.294-.247.143.059.273.141.392.247.214.224.345.519.345.837 0 .153-.036.306-.096.448a1.36 1.36 0 01-.249.389c-.119.106-.25.188-.392.247a1.19 1.19 0 01-.451.095zm3.563-1.179c0-.648.534-1.178 1.187-1.178s1.188.53 1.188 1.178c0 .649-.535 1.179-1.188 1.179-.653 0-1.188-.53-1.188-1.179zm5.937 1.179c-.083 0-.154-.012-.238-.024a.76.76 0 01-.213-.07.905.905 0 01-.214-.107 220.1 220.1 0 00-.178-.14 1.36 1.36 0 01-.25-.39 1.165 1.165 0 01-.095-.448c0-.082.012-.153.024-.235a.743.743 0 01.072-.213.888.888 0 01.106-.212c.036-.059.095-.118.143-.176.06-.048.119-.107.178-.142a.901.901 0 01.214-.106.756.756 0 01.213-.07c.238-.048.476-.024.69.07.142.059.272.141.391.248.214.223.345.53.345.836 0 .154-.036.307-.095.448a1.36 1.36 0 01-.25.39c-.119.105-.25.188-.392.247a1.19 1.19 0 01-.451.094z" fill="#200B73"/></svg>