<svg width="28" height="46" fill="none" xmlns="http://www.w3.org/2000/svg"><path fill="#FF843F" d="M12 0h16v16.8H12z"/><path d="M18.412 46H3.588A3.592 3.592 0 010 42.401V10.6A3.592 3.592 0 013.588 7h14.824A3.592 3.592 0 0122 10.599V42.4a3.592 3.592 0 01-3.588 3.6zM3.588 9.44c-.633 0-1.156.524-1.156 1.159V42.4c0 .635.523 1.16 1.156 1.16h14.824c.633 0 1.156-.525 1.156-1.16V10.6c0-.635-.523-1.16-1.156-1.16H3.588z" fill="#200B73"/><path d="M11.067 41.157c-.085 0-.17-.012-.243-.024-.073-.025-.158-.05-.231-.074a2.81 2.81 0 01-.207-.11.778.778 0 01-.182-.158 1.067 1.067 0 01-.268-.39 1.218 1.218 0 01-.097-.464c0-.33.133-.634.364-.866a.776.776 0 01.183-.159c.06-.036.134-.073.207-.11a1.66 1.66 0 01.23-.06c.402-.086.816.048 1.095.329.231.22.353.537.353.866 0 .159-.024.317-.085.464a1.24 1.24 0 01-.268.39 1.207 1.207 0 01-.851.366z" fill="#200B73"/></svg>