<svg width="668" height="468" fill="none" xmlns="http://www.w3.org/2000/svg"><g filter="url(#filter0_d)"><path d="M649.82 459.898h13.851v-13.851H649.82v13.851z" fill="#fff"/><path opacity=".05" d="M622.118 459.898h13.851v-13.851h-13.851v13.851z" fill="#B3B3B3"/><path opacity=".03" d="M608.267 459.898h13.851v-13.851h-13.851v13.851z" fill="#F2F2F2"/><path opacity=".22" d="M622.118 446.047h13.851v-13.851h-13.851v13.851zm-13.851 0h13.851v-13.851h-13.851v13.851zm-13.851 0h13.851v-13.851h-13.851v13.851zm41.553-13.851h13.851v-13.851h-13.851v13.851zm-13.851 0h13.851v-13.851h-13.851v13.851zm-13.851 0h13.851v-13.851h-13.851v13.851z" fill="#F2F2F2"/><path opacity=".22" d="M649.82 418.345h13.851v-13.851H649.82v13.851z" fill="#fff"/><path opacity=".22" d="M635.969 418.345h13.851v-13.851h-13.851v13.851zm-13.851 0h13.851v-13.851h-13.851v13.851z" fill="#F2F2F2"/><path opacity=".22" d="M608.267 418.345h13.851v-13.851h-13.851v13.851z" fill="#fff"/><path opacity=".14" d="M594.416 418.345h13.851v-13.851h-13.851v13.851z" fill="#F2F2F2"/><path opacity=".22" d="M649.82 404.494h13.851v-13.851H649.82v13.851z" fill="#F2F2F2"/><path opacity=".11" d="M622.118 404.494h13.851v-13.851h-13.851v13.851z" fill="#F2F2F2"/><path opacity=".22" d="M608.267 404.494h13.851v-13.851h-13.851v13.851z" fill="#F2F2F2"/><path opacity=".14" d="M594.416 404.494h13.851v-13.851h-13.851v13.851z" fill="#F2F2F2"/><path opacity=".22" d="M649.82 390.643h13.851v-13.852H649.82v13.852zm-13.851 0h13.851v-13.852h-13.851v13.852z" fill="#F2F2F2"/><path opacity=".22" d="M622.118 390.643h13.851v-13.852h-13.851v13.852z" fill="#fff"/><path opacity=".22" d="M608.267 390.643h13.851v-13.852h-13.851v13.852z" fill="#F2F2F2"/><path opacity=".14" d="M594.416 390.643h13.851v-13.852h-13.851v13.852z" fill="#F2F2F2"/><path opacity=".22" d="M649.82 376.792h13.851V362.94H649.82v13.852z" fill="#F2F2F2"/><path opacity=".22" d="M635.969 376.791h13.851V362.94h-13.851v13.851z" fill="#E6E6E6"/><path opacity=".22" d="M622.118 376.791h13.851V362.94h-13.851v13.851z" fill="#fff"/><path opacity=".22" d="M608.267 376.791h13.851V362.94h-13.851v13.851z" fill="#E6E6E6"/><path opacity=".32" d="M649.82 362.94h13.851v-13.851H649.82v13.851z" fill="#F2F2F2"/><path opacity=".32" d="M635.969 362.94h13.851v-13.851h-13.851v13.851z" fill="#fff"/><path opacity=".32" d="M622.118 362.94h13.851v-13.851h-13.851v13.851zm-13.851 0h13.851v-13.851h-13.851v13.851z" fill="#F2F2F2"/><path opacity=".14" d="M594.416 362.94h13.851v-13.851h-13.851v13.851z" fill="#F2F2F2"/><path opacity=".05" d="M649.82 349.089h13.851v-13.851H649.82v13.851z" fill="#B3B3B3"/><path opacity=".32" d="M635.969 349.089h13.851v-13.851h-13.851v13.851z" fill="#F2F2F2"/><path opacity=".05" d="M622.118 349.089h13.851v-13.851h-13.851v13.851z" fill="#B3B3B3"/><path opacity=".32" d="M608.267 349.089h13.851v-13.851h-13.851v13.851z" fill="#F2F2F2"/><path opacity=".14" d="M594.416 349.089h13.851v-13.851h-13.851v13.851z" fill="#fff"/><path opacity=".32" d="M649.82 335.238h13.851v-13.851H649.82v13.851z" fill="#F2F2F2"/><path opacity=".32" d="M635.969 335.238h13.851v-13.851h-13.851v13.851z" fill="#fff"/><path opacity=".32" d="M608.267 335.238h13.851v-13.851h-13.851v13.851z" fill="#F2F2F2"/><path d="M594.416 335.238h13.851v-13.851h-13.851v13.851z" fill="#F2F2F2"/><path opacity=".03" d="M580.565 459.898h13.851v-13.851h-13.851v13.851z" fill="#B3B3B3"/><path opacity=".53" d="M552.863 459.898h13.851v-13.851h-13.851v13.851z" fill="#F2F2F2"/><path opacity=".11" d="M539.011 459.898h13.852v-13.851h-13.852v13.851z" fill="#F2F2F2"/><path opacity=".21" d="M483.607 459.898h13.851v-13.851h-13.851v13.851zm-13.851 0h13.851v-13.851h-13.851v13.851zm-13.851 0h13.851v-13.851h-13.851v13.851zm-13.851 0h13.851v-13.851h-13.851v13.851z" fill="#F2F2F2"/><path opacity=".22" d="M580.565 446.047h13.851v-13.851h-13.851v13.851z" fill="#F2F2F2"/><path opacity=".21" d="M469.756 446.047h13.851v-13.851h-13.851v13.851zm-13.851 0h13.851v-13.851h-13.851v13.851zm-13.851 0h13.851v-13.851h-13.851v13.851z" fill="#F2F2F2"/><path opacity=".05" d="M580.565 432.196h13.851v-13.851h-13.851v13.851z" fill="#F2F2F2"/><path d="M566.714 432.196h13.851v-13.851h-13.851v13.851z" fill="#F2F2F2"/><path opacity=".05" d="M566.714 432.196h-13.851v-13.851h13.851m-27.703 13.851h13.852v-13.851h-13.852v13.851z" fill="#F2F2F2"/><path opacity=".11" d="M497.458 432.196h13.851v-13.851h-13.851v13.851zm-13.851 0h13.851v-13.851h-13.851v13.851z" fill="#F2F2F2"/><path opacity=".05" d="M469.756 432.196h13.851v-13.851h-13.851v13.851z" fill="#E6E6E6"/><path d="M455.905 432.196h13.851v-13.851h-13.851v13.851zm-13.851 0h13.851v-13.851h-13.851v13.851z" fill="#fff"/><path opacity=".14" d="M580.565 418.345h13.851v-13.851h-13.851v13.851zm-13.851 0h13.851v-13.851h-13.851v13.851zm-13.851 0h13.851v-13.851h-13.851v13.851z" fill="#F2F2F2"/><path opacity=".14" d="M539.011 418.345v-13.851h13.852v13.851" fill="#E6E6E6"/><path opacity=".11" d="M483.607 418.345h13.851v-13.851h-13.851v13.851z" fill="#F2F2F2"/><path d="M469.756 418.345h13.851v-13.851h-13.851v13.851z" fill="#F2F2F2"/><path opacity=".21" d="M455.905 418.345h13.851v-13.851h-13.851v13.851z" fill="#F2F2F2"/><path d="M442.054 418.345h13.851v-13.851h-13.851v13.851z" fill="#F2F2F2"/><path opacity=".14" d="M580.565 404.494h13.851v-13.851h-13.851v13.851z" fill="#CCC"/><path opacity=".14" d="M566.714 404.494h13.851v-13.851h-13.851v13.851zm-13.851 0h13.851v-13.851h-13.851v13.851zm-13.852 0h13.852v-13.851h-13.852v13.851zm-13.851 0h13.851v-13.851H525.16v13.851z" fill="#F2F2F2"/><path opacity=".14" d="M511.309 404.494h13.851v-13.851h-13.851v13.851zm-13.851 0h13.851v-13.851h-13.851v13.851z" fill="#F2F2F2"/><path d="M469.756 404.494h13.851v-13.851h-13.851v13.851z" fill="#F2F2F2"/><path opacity=".21" d="M455.905 404.494h13.851v-13.851h-13.851v13.851zm-13.851 0h13.851v-13.851h-13.851v13.851z" fill="#F2F2F2"/><path opacity=".14" d="M580.565 390.643h13.851v-13.852h-13.851v13.852zm-55.405 0h13.851v-13.852H525.16v13.852z" fill="#F2F2F2"/><path opacity=".14" d="M511.309 390.643h13.851v-13.852h-13.851v13.852z" fill="#B3B3B3"/><path opacity=".14" d="M497.458 390.643h13.851v-13.852h-13.851v13.852zm-13.851 0h13.851v-13.852h-13.851v13.852z" fill="#F2F2F2"/><path opacity=".14" d="M469.756 390.643h13.851v-13.852h-13.851v13.852z" fill="#fff"/><path d="M442.054 390.643h13.851v-13.852h-13.851v13.852z" fill="#fff"/><path opacity=".14" d="M580.565 376.791h13.851V362.94h-13.851v13.851z" fill="#fff"/><path opacity=".14" d="M566.714 376.791h13.851V362.94h-13.851v13.851z" fill="#F2F2F2"/><path opacity=".14" d="M552.863 376.791h13.851V362.94h-13.851v13.851z" fill="#CCC"/><path opacity=".14" d="M511.309 376.791h13.851V362.94h-13.851v13.851zm-13.851 0h13.851V362.94h-13.851v13.851zm-13.851 0h13.851V362.94h-13.851v13.851zm-13.851 0h13.851V362.94h-13.851v13.851zm-13.851 0h13.851V362.94h-13.851v13.851zm-13.851 0h13.851V362.94h-13.851v13.851zm138.511-13.851h13.851v-13.851h-13.851v13.851zm-13.851 0h13.851v-13.851h-13.851v13.851zm-13.851 0h13.851v-13.851h-13.851v13.851zm-13.852 0h13.852v-13.851h-13.852v13.851zm-13.851 0h13.851v-13.851H525.16v13.851zm-27.702 0h13.851v-13.851h-13.851v13.851z" fill="#F2F2F2"/><path opacity=".14" d="M483.607 362.94h13.851v-13.851h-13.851v13.851z" fill="#CCC"/><path opacity=".14" d="M469.756 362.94h13.851v-13.851h-13.851v13.851zm-13.851 0h13.851v-13.851h-13.851v13.851z" fill="#F2F2F2"/><path opacity=".14" d="M580.565 349.089h13.851v-13.851h-13.851v13.851z" fill="#E6E6E6"/><path opacity=".14" d="M552.863 349.089h13.851v-13.851h-13.851v13.851z" fill="#F2F2F2"/><path opacity=".14" d="M539.011 349.089h13.852v-13.851h-13.852v13.851z" fill="#fff"/><path opacity=".14" d="M525.16 349.089h13.851v-13.851H525.16v13.851z" fill="#E6E6E6"/><path opacity=".14" d="M497.458 349.089h13.851v-13.851h-13.851v13.851zm-13.851 0h13.851v-13.851h-13.851v13.851zm-41.553 0h13.851v-13.851h-13.851v13.851z" fill="#F2F2F2"/><path d="M580.565 335.238h13.851v-13.851h-13.851v13.851z" fill="#F2F2F2"/><path opacity=".03" d="M566.714 335.238h13.851v-13.851h-13.851v13.851z" fill="#F2F2F2"/><path opacity=".14" d="M552.863 335.238h13.851v-13.851h-13.851v13.851zm-13.852 0h13.852v-13.851h-13.852v13.851zm-13.851 0h13.851v-13.851H525.16v13.851z" fill="#F2F2F2"/><path opacity=".14" d="M511.309 335.238h13.851v-13.851h-13.851v13.851zm-27.702 0h13.851v-13.851h-13.851v13.851zm-13.851 0h13.851v-13.851h-13.851v13.851zm-13.851 0h13.851v-13.851h-13.851v13.851z" fill="#F2F2F2"/><path opacity=".14" d="M442.054 335.238h13.851v-13.851h-13.851v13.851z" fill="#E6E6E6"/><path opacity=".32" d="M649.82 321.387h13.851v-13.851H649.82v13.851z" fill="#fff"/><path opacity=".32" d="M635.969 321.387h13.851v-13.851h-13.851v13.851zm-13.851 0h13.851v-13.851h-13.851v13.851z" fill="#F2F2F2"/><path opacity=".32" d="M608.267 321.387h13.851v-13.851h-13.851v13.851z" fill="#fff"/><path opacity=".39" d="M594.416 321.387h13.851v-13.851h-13.851v13.851z" fill="#F2F2F2"/><path d="M580.565 321.387h13.851v-13.851h-13.851v13.851z" fill="#fff"/><path d="M566.714 321.387h13.851v-13.851h-13.851v13.851z" fill="#F2F2F2"/><path opacity=".56" d="M552.863 321.387h13.851v-13.851h-13.851v13.851z" fill="#F2F2F2"/><path d="M539.011 321.387h13.852v-13.851h-13.852v13.851z" fill="#fff"/><path opacity=".05" d="M525.16 321.387h13.851v-13.851H525.16v13.851zm-27.702 0h13.851v-13.851h-13.851v13.851zm-27.702 0h13.851v-13.851h-13.851v13.851z" fill="#F2F2F2"/><path opacity=".14" d="M442.054 321.387h13.851v-13.851h-13.851v13.851z" fill="#F2F2F2"/><path opacity=".19" d="M594.416 307.536h13.851v-13.851h-13.851v13.851z" fill="#F2F2F2"/><path opacity=".03" d="M580.565 307.536h13.851v-13.851h-13.851v13.851z" fill="#F2F2F2"/><path opacity=".56" d="M566.714 307.536h13.851v-13.851h-13.851v13.851z" fill="#F2F2F2"/><path opacity=".03" d="M552.863 307.536h13.851v-13.851h-13.851v13.851z" fill="#F2F2F2"/><path opacity=".56" d="M539.011 307.536h13.852v-13.851h-13.852v13.851z" fill="#F2F2F2"/><path d="M525.16 307.536h13.851v-13.851H525.16v13.851z" fill="#F2F2F2"/><path opacity=".56" d="M511.309 307.536h13.851v-13.851h-13.851v13.851z" fill="#F2F2F2"/><path opacity=".05" d="M497.458 307.536h13.851v-13.851h-13.851v13.851z" fill="#F2F2F2"/><path d="M483.607 307.536h13.851v-13.851h-13.851v13.851z" fill="#F2F2F2"/><path opacity=".05" d="M469.756 307.536h13.851v-13.851h-13.851v13.851z" fill="#F2F2F2"/><path opacity=".14" d="M455.905 307.536h13.851v-13.851h-13.851v13.851z" fill="#F2F2F2"/><path opacity=".31" d="M580.565 293.685h13.851v-13.851h-13.851v13.851z" fill="#F2F2F2"/><path opacity=".03" d="M566.714 293.685h13.851v-13.851h-13.851v13.851z" fill="#E6E6E6"/><path opacity=".31" d="M552.863 293.685h13.851v-13.851h-13.851v13.851zm-27.703 0h13.851v-13.851H525.16v13.851z" fill="#F2F2F2"/><path opacity=".31" d="M511.309 293.685h13.851v-13.851h-13.851v13.851zm-27.702 0h13.851v-13.851h-13.851v13.851zm-13.851 0h13.851v-13.851h-13.851v13.851zm110.809-13.851h13.851v-13.851h-13.851v13.851zm-110.809 0h13.851v-13.851h-13.851v13.851z" fill="#F2F2F2"/><path opacity=".11" d="M580.565 265.983h13.851v-13.851h-13.851v13.851z" fill="#F2F2F2"/><path opacity=".31" d="M483.607 265.983h13.851v-13.851h-13.851v13.851z" fill="#F2F2F2"/><path opacity=".31" d="M469.756 265.983h13.851v-13.852h-13.851v13.852z" fill="#CCC"/><path opacity=".31" d="M594.416 253.461h13.851V239.61h-13.851v13.851zm-13.851 0h13.851V239.61h-13.851v13.851zm-110.809-1.33h13.851V238.28h-13.851v13.851z" fill="#F2F2F2"/><path d="M649.82 307.536h13.851v-13.851H649.82v13.851zm-13.851 0h13.851v-13.851h-13.851v13.851zm-13.851 0h13.851v-13.851h-13.851v13.851zm-13.851 0h13.851v-13.851h-13.851v13.851z" fill="#fff"/><path opacity=".31" d="M649.82 293.685h13.851v-13.851H649.82v13.851zm-13.851 0h13.851v-13.851h-13.851v13.851zm0 0v-13.851h-13.851v13.851m-13.851 0h13.851v-13.851h-13.851v13.851z" fill="#fff"/><path opacity=".14" d="M455.905 293.685h13.851v-13.851h-13.851v13.851z" fill="#fff"/><path opacity=".31" d="M649.82 279.834h13.851v-13.851H649.82v13.851zm-13.851 0h13.851v-13.851h-13.851v13.851zm-13.851 0h13.851v-13.851h-13.851v13.851zm-13.851 0h13.851v-13.851h-13.851v13.851zm-41.553 0h13.851v-13.851h-13.851v13.851zm-13.851 0h13.851v-13.851h-13.851v13.851zm-13.852 0h13.852v-13.851h-13.852v13.851zm-13.851 0h13.851v-13.851H525.16v13.851z" fill="#fff"/><path opacity=".31" d="M511.309 279.834h13.851v-13.851h-13.851v13.851zm-13.851 0h13.851v-13.851h-13.851v13.851zm-41.553 0h13.851v-13.851h-13.851v13.851zm-13.851 0h13.851v-13.851h-13.851v13.851zm207.766-13.851h13.851v-13.851H649.82v13.851zm-13.851 0h13.851v-13.851h-13.851v13.851z" fill="#fff"/><path opacity=".19" d="M622.118 265.983h13.851v-13.851h-13.851v13.851z" fill="#F2F2F2"/><path opacity=".31" d="M608.267 265.983h13.851v-13.851h-13.851v13.851zm-41.553 0h13.851v-13.851h-13.851v13.851zm-13.851 0h13.851v-13.851h-13.851v13.851zm-13.852 0h13.852v-13.851h-13.852v13.851zm-13.851 0h13.851v-13.851H525.16v13.851z" fill="#fff"/><path opacity=".31" d="M511.309 265.983h13.851v-13.851h-13.851v13.851zm-13.851 0h13.851v-13.851h-13.851v13.851zm-41.553 0h13.851v-13.852h-13.851v13.852zm-13.851 0h13.851v-13.852h-13.851v13.852zm207.766-13.851h13.851V238.28H649.82v13.852zm-27.702-.001h13.851V238.28h-13.851v13.851zm-13.851 0h13.851V238.28h-13.851v13.851zm-55.404 0h13.851V238.28h-13.851v13.851zm-13.852 0h13.852V238.28h-13.852v13.851zm-13.851 0h13.851V238.28H525.16v13.851z" fill="#fff"/><path opacity=".31" d="M511.309 252.131h13.851V238.28h-13.851v13.851zm-13.851 0h13.851V238.28h-13.851v13.851zm-41.553 0h13.851V238.28h-13.851v13.851z" fill="#fff"/><path d="M428.203 459.898h13.851v-13.851h-13.851v13.851z" fill="#fff"/><path opacity=".03" d="M386.649 459.898H400.5v-13.851h-13.851v13.851z" fill="#F2F2F2"/><path d="M372.798 459.898h13.851v-13.851h-13.851v13.851z" fill="#F2F2F2"/><path opacity=".22" d="M428.203 446.047h13.851v-13.851h-13.851v13.851zm-27.703 0h13.852v-13.851H400.5v13.851zm-13.851 0H400.5v-13.851h-13.851v13.851zm-13.851 0h13.851v-13.851h-13.851v13.851zm55.405-13.851h13.851v-13.851h-13.851v13.851zm-13.851 0h13.851v-13.851h-13.851v13.851zm-13.852 0h13.852v-13.851H400.5v13.851zm-13.851 0H400.5v-13.851h-13.851v13.851z" fill="#F2F2F2"/><path opacity=".22" d="M372.798 432.196h13.851v-13.851h-13.851v13.851z" fill="gray"/><path opacity=".22" d="M428.203 418.345h13.851v-13.851h-13.851v13.851z" fill="#fff"/><path opacity=".22" d="M414.352 418.345h13.851v-13.851h-13.851v13.851zm-13.852 0h13.852v-13.851H400.5v13.851z" fill="#F2F2F2"/><path opacity=".22" d="M386.649 418.345H400.5v-13.851h-13.851v13.851z" fill="#fff"/><path opacity=".22" d="M372.798 418.345h13.851v-13.851h-13.851v13.851zm55.405-13.851h13.851v-13.851h-13.851v13.851z" fill="#F2F2F2"/><path opacity=".22" d="M414.352 404.494h13.851v-13.851h-13.851v13.851z" fill="#fff"/><path opacity=".11" d="M400.5 404.494h13.852v-13.851H400.5v13.851z" fill="#F2F2F2"/><path opacity=".14" d="M386.649 404.494H400.5v-13.851h-13.851v13.851zm-13.851 0h13.851v-13.851h-13.851v13.851zm55.405-13.851h13.851v-13.852h-13.851v13.852zm-13.851 0h13.851v-13.852h-13.851v13.852zm-13.852 0h13.852v-13.852H400.5v13.852zm-13.851 0H400.5v-13.852h-13.851v13.852zm-13.851 0h13.851v-13.852h-13.851v13.852z" fill="#F2F2F2"/><path opacity=".14" d="M414.352 376.791h13.851V362.94h-13.851v13.851zm-27.703 0H400.5V362.94h-13.851v13.851z" fill="#E6E6E6"/><path opacity=".14" d="M372.798 376.791h13.851V362.94h-13.851v13.851zm55.405-13.851h13.851v-13.851h-13.851v13.851zm-13.851 0h13.851v-13.851h-13.851v13.851zm-13.852 0h13.852v-13.851H400.5v13.851zm-13.851 0H400.5v-13.851h-13.851v13.851zm-13.851 0h13.851v-13.851h-13.851v13.851z" fill="#F2F2F2"/><path opacity=".14" d="M428.203 349.089h13.851v-13.851h-13.851v13.851z" fill="#B3B3B3"/><path opacity=".14" d="M414.352 349.089h13.851v-13.851h-13.851v13.851z" fill="#F2F2F2"/><path opacity=".14" d="M400.5 349.089h13.852v-13.851H400.5v13.851z" fill="#B3B3B3"/><path opacity=".14" d="M386.649 349.089H400.5v-13.851h-13.851v13.851z" fill="#F2F2F2"/><path opacity=".14" d="M372.798 349.089h13.851v-13.851h-13.851v13.851z" fill="#fff"/><path opacity=".14" d="M428.203 335.238h13.851v-13.851h-13.851v13.851zm-13.851 0h13.851v-13.851h-13.851v13.851zm-27.703 0H400.5v-13.851h-13.851v13.851zm-13.851 0h13.851v-13.851h-13.851v13.851z" fill="#F2F2F2"/><path opacity=".03" d="M358.947 459.898h13.851v-13.851h-13.851v13.851z" fill="#B3B3B3"/><path opacity=".11" d="M317.394 459.898h13.851v-13.851h-13.851v13.851z" fill="#F2F2F2"/><path d="M303.543 459.898h13.851v-13.851h-13.851v13.851zm-27.702 0h13.851v-13.851h-13.851v13.851z" fill="#fff"/><path opacity=".22" d="M358.947 446.047h13.851v-13.851h-13.851v13.851z" fill="#F2F2F2"/><path d="M345.096 446.047h13.851v-13.851h-13.851v13.851z" fill="#F2F2F2"/><path d="M275.841 446.047h13.851v-13.851h-13.851v13.851z" fill="#fff"/><path opacity=".22" d="M358.947 432.196h13.851v-13.851h-13.851v13.851z" fill="#F2F2F2"/><path d="M317.394 432.196h13.851v-13.851h-13.851v13.851z" fill="#F2F2F2"/><path d="M317.394 432.196h-13.851v-13.851h13.851" fill="#fff"/><path opacity=".11" d="M275.841 432.196h13.851v-13.851h-13.851v13.851zm-13.852 0h13.852v-13.851h-13.852v13.851z" fill="#F2F2F2"/><path opacity=".16" d="M234.287 432.196h13.851v-13.851h-13.851v13.851z" fill="#F2F2F2"/><path opacity=".22" d="M358.947 418.345h13.851v-13.851h-13.851v13.851z" fill="#F2F2F2"/><path opacity=".42" d="M345.096 418.345h13.851v-13.851h-13.851v13.851z" fill="#F2F2F2"/><path d="M331.245 418.345h13.851v-13.851h-13.851v13.851zm-27.702 0h13.851v-13.851h-13.851v13.851z" fill="#F2F2F2"/><path opacity=".16" d="M289.692 418.345h13.851v-13.851h-13.851v13.851z" fill="#F2F2F2"/><path opacity=".11" d="M261.989 418.345h13.852v-13.851h-13.852v13.851z" fill="#F2F2F2"/><path opacity=".16" d="M248.138 418.345h13.851v-13.851h-13.851v13.851z" fill="#F2F2F2"/><path opacity=".21" d="M234.287 418.345h13.851v-13.851h-13.851v13.851z" fill="#F2F2F2"/><path opacity=".14" d="M358.947 404.494h13.851v-13.851h-13.851v13.851z" fill="#CCC"/><path opacity=".14" d="M345.096 404.494h13.851v-13.851h-13.851v13.851z" fill="#F2F2F2"/><path opacity=".11" d="M331.245 404.494h13.851v-13.851h-13.851v13.851z" fill="#F2F2F2"/><path d="M317.394 404.494h13.851v-13.851h-13.851v13.851z" fill="#F2F2F2"/><path opacity=".16" d="M303.543 404.494h13.851v-13.851h-13.851v13.851z" fill="#F2F2F2"/><path d="M289.692 404.494h13.851v-13.851h-13.851v13.851zm-13.851 0h13.851v-13.851h-13.851v13.851zm-27.703 0h13.851v-13.851h-13.851v13.851z" fill="#F2F2F2"/><path opacity=".21" d="M234.287 404.494h13.851v-13.851h-13.851v13.851zm-13.851 0h13.851v-13.851h-13.851v13.851z" fill="#F2F2F2"/><path opacity=".14" d="M358.947 390.643h13.851v-13.852h-13.851v13.852zm-13.851 0h13.851v-13.852h-13.851v13.852zm-13.851 0h13.851v-13.852h-13.851v13.852z" fill="#F2F2F2"/><path opacity=".16" d="M317.394 390.643h13.851v-13.852h-13.851v13.852z" fill="#E6E6E6"/><path d="M303.543 390.643h13.851v-13.852h-13.851v13.852z" fill="#F2F2F2"/><path opacity=".03" d="M289.692 390.642h13.851v-13.851h-13.851v13.851z" fill="#B3B3B3"/><path d="M275.841 390.642h13.851v-13.851h-13.851v13.851z" fill="#F2F2F2"/><path opacity=".21" d="M261.989 390.642h13.852v-13.851h-13.852v13.851z" fill="#F2F2F2"/><path opacity=".14" d="M248.138 390.642h13.851v-13.851h-13.851v13.851z" fill="#F2F2F2"/><path opacity=".14" d="M234.287 390.642h13.851v-13.851h-13.851v13.851z" fill="#CCC"/><path opacity=".14" d="M358.947 376.791h13.851V362.94h-13.851v13.851z" fill="#fff"/><path opacity=".14" d="M345.096 376.791h13.851V362.94h-13.851v13.851z" fill="#F2F2F2"/><path opacity=".14" d="M331.245 376.791h13.851V362.94h-13.851v13.851z" fill="#CCC"/><path opacity=".14" d="M317.394 376.791h13.851V362.94h-13.851v13.851zm-13.851 0h13.851V362.94h-13.851v13.851zm-13.851 0h13.851V362.94h-13.851v13.851zm-13.851 0h13.851V362.94h-13.851v13.851zm-13.852 0h13.852V362.94h-13.852v13.851zm-13.851 0h13.851V362.94h-13.851v13.851zm-13.851 0h13.851V362.94h-13.851v13.851zm124.66-13.851h13.851v-13.851h-13.851v13.851zm-27.702 0h13.851v-13.851h-13.851v13.851zm-13.851 0h13.851v-13.851h-13.851v13.851zm-13.851 0h13.851v-13.851h-13.851v13.851zm-13.851 0h13.851v-13.851h-13.851v13.851zm-13.851 0h13.851v-13.851h-13.851v13.851z" fill="#F2F2F2"/><path opacity=".14" d="M261.989 362.94h13.852v-13.851h-13.852v13.851z" fill="#CCC"/><path opacity=".14" d="M248.138 362.94h13.851v-13.851h-13.851v13.851zm-13.851 0h13.851v-13.851h-13.851v13.851z" fill="#F2F2F2"/><path opacity=".14" d="M358.947 349.089h13.851v-13.851h-13.851v13.851z" fill="#E6E6E6"/><path opacity=".14" d="M331.245 349.089h13.851v-13.851h-13.851v13.851z" fill="#F2F2F2"/><path opacity=".14" d="M317.394 349.089h13.851v-13.851h-13.851v13.851z" fill="#fff"/><path opacity=".14" d="M303.543 349.089h13.851v-13.851h-13.851v13.851z" fill="#E6E6E6"/><path opacity=".14" d="M289.692 349.089h13.851v-13.851h-13.851v13.851zm-13.851 0h13.851v-13.851h-13.851v13.851zm-13.852 0h13.852v-13.851h-13.852v13.851zm-13.851 0h13.851v-13.851h-13.851v13.851zm-13.851 0h13.851v-13.851h-13.851v13.851zm124.66-13.851h13.851v-13.851h-13.851v13.851zm-13.851 0h13.851v-13.851h-13.851v13.851zm-13.851 0h13.851v-13.851h-13.851v13.851zm-13.851 0h13.851v-13.851h-13.851v13.851zm-13.851 0h13.851v-13.851h-13.851v13.851zm-13.851 0h13.851v-13.851h-13.851v13.851zm-13.851 0h13.851v-13.851h-13.851v13.851zm-13.852 0h13.852v-13.851h-13.852v13.851zm-13.851 0h13.851v-13.851h-13.851v13.851z" fill="#F2F2F2"/><path opacity=".42" d="M234.287 335.238h13.851v-13.851h-13.851v13.851z" fill="#F2F2F2"/><path opacity=".05" d="M220.436 335.238h13.851v-13.851h-13.851v13.851z" fill="#E6E6E6"/><path opacity=".14" d="M428.203 321.387h13.851v-13.851h-13.851v13.851z" fill="#fff"/><path opacity=".14" d="M414.352 321.387h13.851v-13.851h-13.851v13.851zm-13.852 0h13.852v-13.851H400.5v13.851z" fill="#F2F2F2"/><path opacity=".14" d="M386.649 321.387H400.5v-13.851h-13.851v13.851z" fill="#fff"/><path opacity=".14" d="M372.798 321.387h13.851v-13.851h-13.851v13.851z" fill="#F2F2F2"/><path opacity=".14" d="M358.947 321.387h13.851v-13.851h-13.851v13.851z" fill="#fff"/><path opacity=".14" d="M345.096 321.387h13.851v-13.851h-13.851v13.851zm-13.851 0h13.851v-13.851h-13.851v13.851z" fill="#F2F2F2"/><path opacity=".14" d="M317.394 321.387h13.851v-13.851h-13.851v13.851z" fill="#fff"/><path opacity=".14" d="M303.543 321.387h13.851v-13.851h-13.851v13.851z" fill="#F2F2F2"/><path opacity=".14" d="M289.692 321.387h13.851v-13.851h-13.851v13.851z" fill="#CCC"/><path opacity=".14" d="M275.841 321.387h13.851v-13.851h-13.851v13.851z" fill="#F2F2F2"/><path opacity=".14" d="M261.989 321.387h13.852v-13.851h-13.852v13.851z" fill="#CCC"/><path opacity=".05" d="M248.138 321.387h13.851v-13.851h-13.851v13.851zm-13.851 0h13.851v-13.851h-13.851v13.851z" fill="#F2F2F2"/><path opacity=".14" d="M372.798 307.536h13.851v-13.851h-13.851v13.851zm-13.851 0h13.851v-13.851h-13.851v13.851z" fill="#F2F2F2"/><path opacity=".56" d="M345.096 307.536h13.851v-13.851h-13.851v13.851z" fill="#F2F2F2"/><path opacity=".03" d="M331.245 307.536h13.851v-13.851h-13.851v13.851z" fill="#F2F2F2"/><path opacity=".14" d="M317.394 307.536h13.851v-13.851h-13.851v13.851zm-13.851 0h13.851v-13.851h-13.851v13.851zm-13.851 0h13.851v-13.851h-13.851v13.851zm-13.851 0h13.851v-13.851h-13.851v13.851zm-13.852 0h13.852v-13.851h-13.852v13.851z" fill="#F2F2F2"/><path d="M248.138 307.536h13.851v-13.851h-13.851v13.851z" fill="#F2F2F2"/><path opacity=".42" d="M234.287 307.536h13.851v-13.851h-13.851v13.851z" fill="#F2F2F2"/><path opacity=".31" d="M358.947 293.685h13.851v-13.851h-13.851v13.851z" fill="#F2F2F2"/><path opacity=".03" d="M345.096 293.685h13.851v-13.851h-13.851v13.851z" fill="#E6E6E6"/><path opacity=".31" d="M331.245 293.685h13.851v-13.851h-13.851v13.851zm-27.702 0h13.851v-13.851h-13.851v13.851zm-13.851 0h13.851v-13.851h-13.851v13.851zm-27.703 0h13.852v-13.851h-13.852v13.851zm-13.851 0h13.851v-13.851h-13.851v13.851zm110.809-13.851h13.851v-13.851h-13.851v13.851zm-96.958 0h13.852v-13.851h-13.852v13.851zm-13.851 0h13.851v-13.851h-13.851v13.851z" fill="#F2F2F2"/><path opacity=".11" d="M358.947 265.983h13.851v-13.852h-13.851v13.852z" fill="#F2F2F2"/><path opacity=".31" d="M372.798 253.461h13.851V239.61h-13.851v13.851zm-13.851 0h13.851V239.61h-13.851v13.851zm-96.958-1.33h13.852V238.28h-13.852v13.851zm-13.851 0h13.851V238.28h-13.851v13.851z" fill="#F2F2F2"/><path opacity=".14" d="M428.203 307.536h13.851v-13.851h-13.851v13.851zm-13.851 0h13.851v-13.851h-13.851v13.851zm-13.852 0h13.852v-13.851H400.5v13.851zm-13.851 0H400.5v-13.851h-13.851v13.851zm41.554-13.851h13.851v-13.851h-13.851v13.851zm-13.851 0h13.851v-13.851h-13.851v13.851zm-13.852 0h13.852v-13.851H400.5v13.851zm-13.851 0H400.5v-13.851h-13.851v13.851z" fill="#fff"/><path opacity=".42" d="M234.287 293.685h13.851v-13.851h-13.851v13.851z" fill="#fff"/><path opacity=".31" d="M428.203 279.834h13.851v-13.851h-13.851v13.851zm-13.851 0h13.851v-13.851h-13.851v13.851zm-13.852 0h13.852v-13.851H400.5v13.851zm-13.851 0H400.5v-13.851h-13.851v13.851zm-41.553 0h13.851v-13.851h-13.851v13.851zm-13.851 0h13.851v-13.851h-13.851v13.851zm-13.851 0h13.851v-13.851h-13.851v13.851zm-13.851 0h13.851v-13.851h-13.851v13.851zm-13.851 0h13.851v-13.851h-13.851v13.851zm-13.851 0h13.851v-13.851h-13.851v13.851zm-41.554 0h13.851v-13.851h-13.851v13.851zm-13.851 0h13.851v-13.851h-13.851v13.851zm207.767-13.851h13.851v-13.852h-13.851v13.852zm-13.851 0h13.851v-13.852h-13.851v13.852z" fill="#fff"/><path opacity=".19" d="M400.5 265.983h13.852v-13.852H400.5v13.852z" fill="#F2F2F2"/><path opacity=".31" d="M386.649 265.983H400.5v-13.852h-13.851v13.852zm-41.553 0h13.851v-13.852h-13.851v13.852zm-13.851 0h13.851v-13.852h-13.851v13.852zm-13.851 0h13.851v-13.852h-13.851v13.852z" fill="#fff"/><path opacity=".23" d="M303.543 265.983h13.851v-13.852h-13.851v13.852z" fill="#fff"/><path opacity=".31" d="M289.692 265.983h13.851v-13.852h-13.851v13.852zm-13.851 0h13.851v-13.852h-13.851v13.852zm-41.554 0h13.851v-13.852h-13.851v13.852zm-13.851 0h13.851v-13.852h-13.851v13.852zm207.767-13.852h13.851V238.28h-13.851v13.851zm-27.703 0h13.852V238.28H400.5v13.851zm-13.851 0H400.5V238.28h-13.851v13.851zm-55.404 0h13.851V238.28h-13.851v13.851zm-13.851 0h13.851V238.28h-13.851v13.851zm-13.851 0h13.851V238.28h-13.851v13.851zm-13.851 0h13.851V238.28h-13.851v13.851zm-13.851 0h13.851V238.28h-13.851v13.851zm-41.554 0h13.851V238.28h-13.851v13.851z" fill="#fff"/><path d="M649.82 238.28h13.851v-13.851H649.82v13.851z" fill="#fff"/><path opacity=".16" d="M635.969 238.28h13.851v-13.851h-13.851v13.851z" fill="#F2F2F2"/><path opacity=".05" d="M622.118 238.28h13.851v-13.851h-13.851v13.851z" fill="#fff"/><path opacity=".03" d="M608.267 238.28h13.851v-13.851h-13.851v13.851z" fill="#F2F2F2"/><path opacity=".16" d="M594.416 238.28h13.851v-13.851h-13.851v13.851z" fill="#F2F2F2"/><path opacity=".22" d="M649.82 224.429h13.851v-13.851H649.82v13.851z" fill="#F2F2F2"/><path opacity=".05" d="M635.969 224.429h13.851v-13.851h-13.851v13.851z" fill="#CCC"/><path opacity=".22" d="M622.118 224.429h13.851v-13.851h-13.851v13.851zm-13.851 0h13.851v-13.851h-13.851v13.851zm-13.851 0h13.851v-13.851h-13.851v13.851zm55.404-13.851h13.851v-13.851H649.82v13.851z" fill="#F2F2F2"/><path opacity=".22" d="M635.969 210.578h13.851v-13.851h-13.851v13.851z" fill="#fff"/><path opacity=".22" d="M622.118 210.578h13.851v-13.851h-13.851v13.851zm-13.851 0h13.851v-13.851h-13.851v13.851z" fill="#F2F2F2"/><path opacity=".16" d="M594.416 210.578h13.851v-13.851h-13.851v13.851z" fill="gray"/><path opacity=".22" d="M649.82 196.727h13.851v-13.851H649.82v13.851z" fill="#fff"/><path opacity=".22" d="M635.969 196.727h13.851v-13.851h-13.851v13.851zm-13.851 0h13.851v-13.851h-13.851v13.851z" fill="#F2F2F2"/><path opacity=".22" d="M608.267 196.727h13.851v-13.851h-13.851v13.851z" fill="#fff"/><path opacity=".22" d="M594.416 196.727h13.851v-13.851h-13.851v13.851z" fill="#F2F2F2"/><path opacity=".11" d="M622.118 182.876h13.851v-13.851h-13.851v13.851z" fill="#fff"/><path opacity=".16" d="M608.267 182.876h13.851v-13.851h-13.851v13.851z" fill="#F2F2F2"/><path opacity=".22" d="M594.416 182.876h13.851v-13.851h-13.851v13.851zm41.553-13.851h13.851v-13.851h-13.851v13.851zm-13.851 0h13.851v-13.851h-13.851v13.851zm-13.851 0h13.851v-13.851h-13.851v13.851z" fill="#F2F2F2"/><path opacity=".22" d="M594.416 169.025h13.851v-13.851h-13.851v13.851z" fill="#fff"/><path opacity=".22" d="M649.82 155.174h13.851v-13.851H649.82v13.851z" fill="#F2F2F2"/><path opacity=".22" d="M635.969 155.174h13.851v-13.851h-13.851v13.851z" fill="#fff"/><path opacity=".27" d="M622.118 155.174h13.851v-13.851h-13.851v13.851z" fill="#fff"/><path opacity=".22" d="M608.267 155.174h13.851v-13.851h-13.851v13.851z" fill="#fff"/><path opacity=".22" d="M594.416 155.174h13.851v-13.851h-13.851v13.851z" fill="#F2F2F2"/><path opacity=".21" d="M594.416 141.323h13.851v-13.851h-13.851v13.851z" fill="#F2F2F2"/><path opacity=".32" d="M635.969 127.472h13.851V113.62h-13.851v13.852z" fill="#F2F2F2"/><path opacity=".32" d="M622.118 127.472h13.851V113.62h-13.851v13.852zm-13.851 0h13.851V113.62h-13.851v13.852z" fill="#fff"/><path d="M594.416 127.472h13.851V113.62h-13.851v13.852z" fill="#fff"/><path opacity=".32" d="M649.82 113.62h13.851V99.77H649.82v13.85zm-41.553 0h13.851V99.77h-13.851v13.85z" fill="#F2F2F2"/><path opacity=".16" d="M594.416 113.62h13.851V99.77h-13.851v13.85z" fill="#F2F2F2"/><path opacity=".03" d="M580.565 238.28h13.851v-13.851h-13.851v13.851z" fill="#B3B3B3"/><path opacity=".16" d="M566.714 238.28h13.851v-13.851h-13.851v13.851z" fill="#F2F2F2"/><path opacity=".53" d="M552.863 238.28h13.851v-13.851h-13.851v13.851z" fill="#F2F2F2"/><path opacity=".11" d="M539.011 238.28h13.852v-13.851h-13.852v13.851z" fill="#F2F2F2"/><path d="M525.16 238.28h13.851v-13.851H525.16v13.851z" fill="#F2F2F2"/><path opacity=".05" d="M497.458 238.28h13.851v-13.851h-13.851v13.851z" fill="#F2F2F2"/><path opacity=".21" d="M483.607 238.28h13.851v-13.851h-13.851v13.851zm-27.702 0h13.851v-13.851h-13.851v13.851zm-13.851 0h13.851v-13.851h-13.851v13.851z" fill="#F2F2F2"/><path opacity=".22" d="M580.565 224.429h13.851v-13.851h-13.851v13.851z" fill="#F2F2F2"/><path opacity=".05" d="M525.16 224.429h13.851v-13.851H525.16v13.851z" fill="#F2F2F2"/><path d="M511.309 224.429h13.851v-13.851h-13.851v13.851z" fill="#fff"/><path opacity=".05" d="M483.607 224.429h13.851v-13.851h-13.851v13.851z" fill="#B3B3B3"/><path opacity=".21" d="M469.756 224.429h13.851v-13.851h-13.851v13.851zm-13.851 0h13.851v-13.851h-13.851v13.851zm-13.851 0h13.851v-13.851h-13.851v13.851z" fill="#F2F2F2"/><path opacity=".22" d="M580.565 210.578h13.851v-13.851h-13.851v13.851z" fill="#F2F2F2"/><path d="M566.714 210.578h13.851v-13.851h-13.851v13.851z" fill="#fff"/><path d="M552.863 210.578h13.851v-13.851h-13.851v13.851z" fill="#F2F2F2"/><path opacity=".46" d="M539.011 210.578h13.852v-13.851h-13.852v13.851z" fill="#F2F2F2"/><path opacity=".25" d="M525.16 210.578h13.851v-13.851H525.16v13.851z" fill="#fff"/><path opacity=".16" d="M511.309 210.578h13.851v-13.851h-13.851v13.851z" fill="#F2F2F2"/><path opacity=".11" d="M497.458 210.578h13.851v-13.851h-13.851v13.851zm-13.851 0h13.851v-13.851h-13.851v13.851z" fill="#F2F2F2"/><path d="M469.756 210.578h13.851v-13.851h-13.851v13.851z" fill="#fff"/><path opacity=".05" d="M455.905 210.578h13.851v-13.851h-13.851v13.851z" fill="#F2F2F2"/><path d="M442.054 210.578h13.851v-13.851h-13.851v13.851z" fill="#fff"/><path opacity=".22" d="M580.565 196.727h13.851v-13.851h-13.851v13.851z" fill="#F2F2F2"/><path opacity=".46" d="M566.714 196.727h13.851v-13.851h-13.851v13.851z" fill="#F2F2F2"/><path opacity=".16" d="M552.863 196.727h13.851v-13.851h-13.851v13.851z" fill="#F2F2F2"/><path d="M539.011 196.727h13.852v-13.851h-13.852v13.851z" fill="#fff"/><path d="M525.16 196.727h13.851v-13.851H525.16v13.851z" fill="#F2F2F2"/><path opacity=".27" d="M511.309 196.727h13.851v-13.851h-13.851v13.851z" fill="#F2F2F2"/><path opacity=".11" d="M483.607 196.727h13.851v-13.851h-13.851v13.851z" fill="#F2F2F2"/><path opacity=".27" d="M469.756 196.727h13.851v-13.851h-13.851v13.851z" fill="#F2F2F2"/><path opacity=".21" d="M455.905 196.727h13.851v-13.851h-13.851v13.851z" fill="#F2F2F2"/><path opacity=".05" d="M442.054 196.727h13.851v-13.851h-13.851v13.851z" fill="#F2F2F2"/><path opacity=".16" d="M580.565 182.876h13.851v-13.851h-13.851v13.851z" fill="#CCC"/><path d="M566.714 182.876h13.851v-13.851h-13.851v13.851z" fill="#fff"/><path opacity=".11" d="M552.863 182.876h13.851v-13.851h-13.851v13.851z" fill="#F2F2F2"/><path opacity=".21" d="M525.16 182.876h13.851v-13.851H525.16v13.851z" fill="#F2F2F2"/><path opacity=".46" d="M511.309 182.876h13.851v-13.851h-13.851v13.851z" fill="#F2F2F2"/><path d="M497.458 182.876h13.851v-13.851h-13.851v13.851z" fill="#F2F2F2"/><path d="M469.756 182.876h13.851v-13.851h-13.851v13.851z" fill="#fff"/><path opacity=".21" d="M455.905 182.876h13.851v-13.851h-13.851v13.851zm-13.851 0h13.851v-13.851h-13.851v13.851z" fill="#F2F2F2"/><path opacity=".22" d="M580.565 169.025h13.851v-13.851h-13.851v13.851z" fill="#F2F2F2"/><path opacity=".42" d="M566.714 169.025h13.851v-13.851h-13.851v13.851z" fill="#F2F2F2"/><path opacity=".21" d="M552.863 169.025h13.851v-13.851h-13.851v13.851z" fill="#F2F2F2"/><path opacity=".05" d="M539.011 169.025h13.852v-13.851h-13.852v13.851z" fill="#E6E6E6"/><path d="M525.16 169.025h13.851v-13.851H525.16v13.851z" fill="#F2F2F2"/><path opacity=".03" d="M511.309 169.025h13.851v-13.851h-13.851v13.851z" fill="#B3B3B3"/><path d="M497.458 169.025h13.851v-13.851h-13.851v13.851z" fill="#fff"/><path opacity=".21" d="M483.607 169.025h13.851v-13.851h-13.851v13.851z" fill="#F2F2F2"/><path opacity=".27" d="M469.756 169.025h13.851v-13.851h-13.851v13.851z" fill="#F2F2F2"/><path d="M455.905 169.025h13.851v-13.851h-13.851v13.851z" fill="#fff"/><path opacity=".46" d="M442.054 169.025h13.851v-13.851h-13.851v13.851z" fill="#F2F2F2"/><path opacity=".22" d="M580.565 155.174h13.851v-13.851h-13.851v13.851z" fill="#fff"/><path opacity=".05" d="M566.714 155.174h13.851v-13.851h-13.851v13.851z" fill="#F2F2F2"/><path opacity=".03" d="M552.863 155.174h13.851v-13.851h-13.851v13.851z" fill="#CCC"/><path opacity=".56" d="M539.011 155.174h13.852v-13.851h-13.852v13.851z" fill="#F2F2F2"/><path opacity=".27" d="M525.16 155.174h13.851v-13.851H525.16v13.851z" fill="#F2F2F2"/><path d="M511.309 155.174h13.851v-13.851h-13.851v13.851z" fill="#F2F2F2"/><path opacity=".21" d="M497.458 155.174h13.851v-13.851h-13.851v13.851zm-27.702 0h13.851v-13.851h-13.851v13.851zm-13.851 0h13.851v-13.851h-13.851v13.851z" fill="#F2F2F2"/><path d="M442.054 155.174h13.851v-13.851h-13.851v13.851zm138.511-13.851h13.851v-13.851h-13.851v13.851z" fill="#F2F2F2"/><path opacity=".21" d="M566.714 141.323h13.851v-13.851h-13.851v13.851z" fill="#F2F2F2"/><path d="M552.863 141.323h13.851v-13.851h-13.851v13.851z" fill="#fff"/><path opacity=".23" d="M539.011 141.323h13.852v-13.851h-13.852v13.851z" fill="#F2F2F2"/><path opacity=".21" d="M525.16 141.323h13.851v-13.851H525.16v13.851z" fill="#F2F2F2"/><path opacity=".21" d="M511.309 141.323h13.851v-13.851h-13.851v13.851z" fill="#F2F2F2"/><path d="M497.458 141.323h13.851v-13.851h-13.851v13.851z" fill="#F2F2F2"/><path d="M483.607 141.323h13.851v-13.851h-13.851v13.851z" fill="#fff"/><path opacity=".46" d="M469.756 141.323h13.851v-13.851h-13.851v13.851z" fill="#F2F2F2"/><path d="M455.905 141.323h13.851v-13.851h-13.851v13.851z" fill="#F2F2F2"/><path d="M442.054 141.323h13.851v-13.851h-13.851v13.851z" fill="#fff"/><path opacity=".46" d="M580.565 127.472h13.851V113.62h-13.851v13.852z" fill="#F2F2F2"/><path opacity=".27" d="M552.863 127.472h13.851V113.62h-13.851v13.852z" fill="#F2F2F2"/><path d="M539.011 127.472h13.852V113.62h-13.852v13.852zm-13.851 0h13.851V113.62H525.16v13.852z" fill="#fff"/><path opacity=".05" d="M511.309 127.472h13.851V113.62h-13.851v13.852z" fill="#F2F2F2"/><path d="M497.458 127.472h13.851V113.62h-13.851v13.852z" fill="#fff"/><path opacity=".27" d="M483.607 127.472h13.851V113.62h-13.851v13.852z" fill="#F2F2F2"/><path opacity=".05" d="M469.756 127.472h13.851V113.62h-13.851v13.852z" fill="#F2F2F2"/><path opacity=".56" d="M455.905 127.472h13.851V113.62h-13.851v13.852z" fill="#F2F2F2"/><path d="M442.054 127.472h13.851V113.62h-13.851v13.852z" fill="#fff"/><path opacity=".27" d="M580.565 113.62h13.851V99.77h-13.851v13.85z" fill="#F2F2F2"/><path opacity=".03" d="M566.714 113.62h13.851V99.77h-13.851v13.85z" fill="#F2F2F2"/><path opacity=".56" d="M552.863 113.62h13.851V99.77h-13.851v13.85z" fill="#F2F2F2"/><path opacity=".05" d="M539.011 113.62h13.852V99.77h-13.852v13.85z" fill="#F2F2F2"/><path d="M525.16 113.62h13.851V99.77H525.16v13.85z" fill="#F2F2F2"/><path d="M511.309 113.62h13.851V99.77h-13.851v13.85z" fill="#fff"/><path opacity=".05" d="M497.458 113.62h13.851V99.77h-13.851v13.85z" fill="#F2F2F2"/><path opacity=".56" d="M483.607 113.62h13.851V99.77h-13.851v13.85z" fill="#fff"/><path opacity=".27" d="M469.756 113.62h13.851V99.77h-13.851v13.85z" fill="#F2F2F2"/><path opacity=".46" d="M455.905 113.62h13.851V99.77h-13.851v13.85z" fill="#F2F2F2"/><path opacity=".05" d="M442.054 113.62h13.851V99.77h-13.851v13.85z" fill="#E6E6E6"/><path opacity=".32" d="M649.82 99.77h13.851V85.917H649.82V99.77z" fill="#fff"/><path opacity=".32" d="M635.969 99.77h13.851V85.917h-13.851V99.77zm-13.851 0h13.851V85.917h-13.851V99.77z" fill="#F2F2F2"/><path opacity=".32" d="M608.267 99.77h13.851V85.917h-13.851V99.77z" fill="#fff"/><path opacity=".39" d="M594.416 99.77h13.851V85.917h-13.851V99.77z" fill="#F2F2F2"/><path d="M580.565 99.77h13.851V85.917h-13.851V99.77z" fill="#fff"/><path d="M566.714 99.77h13.851V85.917h-13.851V99.77z" fill="#F2F2F2"/><path opacity=".56" d="M552.863 99.77h13.851V85.917h-13.851V99.77z" fill="#F2F2F2"/><path d="M539.011 99.77h13.852V85.917h-13.852V99.77z" fill="#fff"/><path opacity=".05" d="M525.16 99.77h13.851V85.917H525.16V99.77z" fill="#F2F2F2"/><path d="M511.309 99.77h13.851V85.917h-13.851V99.77z" fill="#fff"/><path d="M497.458 99.77h13.851V85.917h-13.851V99.77z" fill="#F2F2F2"/><path d="M483.607 99.77h13.851V85.917h-13.851V99.77z" fill="#fff"/><path opacity=".05" d="M469.756 99.77h13.851V85.917h-13.851V99.77zm-13.851 0h13.851V85.917h-13.851V99.77z" fill="#F2F2F2"/><path opacity=".42" d="M442.054 99.77h13.851V85.917h-13.851V99.77z" fill="#F2F2F2"/><path opacity=".19" d="M594.416 85.918h13.851v-13.85h-13.851v13.85z" fill="#F2F2F2"/><path opacity=".03" d="M580.565 85.918h13.851v-13.85h-13.851v13.85z" fill="#F2F2F2"/><path opacity=".56" d="M566.714 85.918h13.851v-13.85h-13.851v13.85z" fill="#F2F2F2"/><path opacity=".03" d="M552.863 85.918h13.851v-13.85h-13.851v13.85z" fill="#F2F2F2"/><path opacity=".56" d="M539.011 85.918h13.852v-13.85h-13.852v13.85z" fill="#F2F2F2"/><path opacity=".16" d="M525.16 85.918h13.851v-13.85H525.16v13.85z" fill="#F2F2F2"/><path opacity=".56" d="M511.309 85.918h13.851v-13.85h-13.851v13.85z" fill="#F2F2F2"/><path opacity=".46" d="M497.458 85.918h13.851v-13.85h-13.851v13.85z" fill="#F2F2F2"/><path d="M483.607 85.918h13.851v-13.85h-13.851v13.85z" fill="#F2F2F2"/><path opacity=".27" d="M469.756 85.918h13.851v-13.85h-13.851v13.85z" fill="#F2F2F2"/><path opacity=".42" d="M455.905 85.918h13.851v-13.85h-13.851v13.85zm-13.851 0h13.851v-13.85h-13.851v13.85z" fill="#F2F2F2"/><path opacity=".31" d="M580.565 72.067h13.851V58.216h-13.851v13.851z" fill="#F2F2F2"/><path opacity=".03" d="M566.714 72.067h13.851V58.216h-13.851v13.851z" fill="#E6E6E6"/><path opacity=".31" d="M552.863 72.067h13.851V58.216h-13.851v13.851z" fill="#F2F2F2"/><path opacity=".46" d="M525.16 72.067h13.851V58.216H525.16v13.851z" fill="#F2F2F2"/><path opacity=".31" d="M511.309 72.067h13.851V58.216h-13.851v13.851zm-27.702 0h13.851V58.216h-13.851v13.851zm-13.851 0h13.851V58.216h-13.851v13.851zm110.809-13.851h13.851V44.365h-13.851v13.851zm-96.958 0h13.851V44.365h-13.851v13.851zm-13.851 0h13.851V44.365h-13.851v13.851z" fill="#F2F2F2"/><path opacity=".11" d="M580.565 44.365h13.851V30.514h-13.851v13.85z" fill="#F2F2F2"/><path opacity=".31" d="M483.607 44.365h13.851V30.514h-13.851v13.85z" fill="#F2F2F2"/><path opacity=".16" d="M469.756 44.365h13.851V30.514h-13.851v13.85z" fill="#CCC"/><path opacity=".31" d="M483.607 14.528h13.851V.678h-13.851v13.85z" fill="#F2F2F2"/><path d="M649.82 85.918h13.851v-13.85H649.82v13.85zm-13.851 0h13.851v-13.85h-13.851v13.85zm-13.851 0h13.851v-13.85h-13.851v13.85zm-13.851 0h13.851v-13.85h-13.851v13.85z" fill="#fff"/><path opacity=".31" d="M649.82 72.067h13.851v-13.85H649.82v13.85zm-13.851 0h13.851V58.216h-13.851v13.851zm-13.851 0h13.851V58.216h-13.851v13.851zm-13.851 0h13.851V58.216h-13.851v13.851z" fill="#fff"/><path opacity=".42" d="M455.905 72.067h13.851V58.216h-13.851v13.851z" fill="#fff"/><path opacity=".31" d="M649.82 58.216h13.851V44.365H649.82v13.851zm-13.851 0h13.851V44.365h-13.851v13.851zm-13.851 0h13.851V44.365h-13.851v13.851zm-13.851 0h13.851V44.365h-13.851v13.851zm-41.553 0h13.851V44.365h-13.851v13.851zm-13.851 0h13.851V44.365h-13.851v13.851zm-13.852 0h13.852V44.365h-13.852v13.851zm-13.851 0h13.851V44.365H525.16v13.851z" fill="#fff"/><path opacity=".31" d="M511.309 58.216h13.851V44.365h-13.851v13.851zm-13.851 0h13.851V44.365h-13.851v13.851zm-41.553 0h13.851V44.365h-13.851v13.851zm-13.851 0h13.851V44.365h-13.851v13.851zM649.82 44.365h13.851V30.514H649.82v13.85zm-13.851 0h13.851V30.514h-13.851v13.85z" fill="#fff"/><path opacity=".19" d="M622.118 44.365h13.851V30.514h-13.851v13.85z" fill="#F2F2F2"/><path opacity=".31" d="M608.267 44.365h13.851V30.514h-13.851v13.85zm-41.553 0h13.851V30.514h-13.851v13.85zm-13.851 0h13.851V30.514h-13.851v13.85zm-13.852 0h13.852V30.514h-13.852v13.85zm-13.851 0h13.851V30.514H525.16v13.85z" fill="#fff"/><path opacity=".31" d="M511.309 44.365h13.851V30.514h-13.851v13.85zm-13.851 0h13.851V30.514h-13.851v13.85zm-41.553 0h13.851V30.514h-13.851v13.85zm-13.851 0h13.851V30.514h-13.851v13.85zM649.82 30.514h13.851V16.663H649.82v13.85zm-27.702 0h13.851V16.663h-13.851v13.85zm-13.851 0h13.851V16.663h-13.851v13.85zm-55.404 0h13.851V16.663h-13.851v13.85zm-13.852 0h13.852V16.663h-13.852v13.85zm-13.851 0h13.851V16.663H525.16v13.85z" fill="#fff"/><path opacity=".31" d="M511.309 30.514h13.851V16.663h-13.851v13.85zm-13.851 0h13.851V16.663h-13.851v13.85zm-41.553 0h13.851V16.663h-13.851v13.85z" fill="#fff"/><path d="M428.203 238.28h13.851v-13.851h-13.851v13.851z" fill="#fff"/><path opacity=".05" d="M414.352 238.28h13.851v-13.851h-13.851v13.851z" fill="#F2F2F2"/><path opacity=".05" d="M400.5 238.28h13.852v-13.851H400.5v13.851z" fill="#B3B3B3"/><path opacity=".03" d="M386.649 238.28H400.5v-13.851h-13.851v13.851z" fill="#F2F2F2"/><path d="M372.798 238.28h13.851v-13.851h-13.851v13.851z" fill="#F2F2F2"/><path opacity=".22" d="M428.203 224.429h13.851v-13.851h-13.851v13.851z" fill="#F2F2F2"/><path opacity=".22" d="M414.352 224.429h13.851v-13.851h-13.851v13.851z" fill="#CCC"/><path opacity=".22" d="M400.5 224.429h13.852v-13.851H400.5v13.851zm-13.851 0H400.5v-13.851h-13.851v13.851zm-13.851 0h13.851v-13.851h-13.851v13.851zm55.405-13.851h13.851v-13.851h-13.851v13.851zm-13.851 0h13.851v-13.851h-13.851v13.851zm-13.852 0h13.852v-13.851H400.5v13.851zm-13.851 0H400.5v-13.851h-13.851v13.851z" fill="#F2F2F2"/><path opacity=".16" d="M372.798 210.578h13.851v-13.851h-13.851v13.851z" fill="gray"/><path opacity=".22" d="M428.203 196.727h13.851v-13.851h-13.851v13.851z" fill="#fff"/><path opacity=".22" d="M414.352 196.727h13.851v-13.851h-13.851v13.851zm-13.852 0h13.852v-13.851H400.5v13.851z" fill="#F2F2F2"/><path opacity=".22" d="M386.649 196.727H400.5v-13.851h-13.851v13.851z" fill="#fff"/><path opacity=".22" d="M428.203 182.876h13.851v-13.851h-13.851v13.851z" fill="#F2F2F2"/><path opacity=".22" d="M414.352 182.876h13.851v-13.851h-13.851v13.851z" fill="#CCC"/><path opacity=".16" d="M400.5 182.876h13.852v-13.851H400.5v13.851z" fill="#F2F2F2"/><path opacity=".22" d="M386.649 182.876H400.5v-13.851h-13.851v13.851z" fill="#F2F2F2"/><path opacity=".46" d="M372.798 182.876h13.851v-13.851h-13.851v13.851z" fill="#F2F2F2"/><path opacity=".22" d="M428.203 169.025h13.851v-13.851h-13.851v13.851zm-13.851 0h13.851v-13.851h-13.851v13.851zm-13.852 0h13.852v-13.851H400.5v13.851zm-13.851 0H400.5v-13.851h-13.851v13.851zm-13.851 0h13.851v-13.851h-13.851v13.851zm55.405-13.851h13.851v-13.851h-13.851v13.851z" fill="#F2F2F2"/><path opacity=".22" d="M414.352 155.174h13.851v-13.851h-13.851v13.851z" fill="#E6E6E6"/><path opacity=".22" d="M400.5 155.174h13.852v-13.851H400.5v13.851z" fill="#F2F2F2"/><path opacity=".22" d="M386.649 155.174H400.5v-13.851h-13.851v13.851z" fill="#E6E6E6"/><path opacity=".22" d="M372.798 155.174h13.851v-13.851h-13.851v13.851z" fill="#F2F2F2"/><path opacity=".46" d="M428.203 141.323h13.851v-13.851h-13.851v13.851z" fill="#F2F2F2"/><path opacity=".32" d="M414.352 141.323h13.851v-13.851h-13.851v13.851zm-13.852 0h13.852v-13.851H400.5v13.851zm-13.851 0H400.5v-13.851h-13.851v13.851z" fill="#F2F2F2"/><path opacity=".46" d="M372.798 141.323h13.851v-13.851h-13.851v13.851z" fill="#F2F2F2"/><path opacity=".16" d="M428.203 127.472h13.851V113.62h-13.851v13.852z" fill="#B3B3B3"/><path opacity=".32" d="M414.352 127.472h13.851V113.62h-13.851v13.852z" fill="#F2F2F2"/><path opacity=".16" d="M400.5 127.472h13.852V113.62H400.5v13.852z" fill="#B3B3B3"/><path opacity=".32" d="M386.649 127.472H400.5V113.62h-13.851v13.852z" fill="#F2F2F2"/><path d="M372.798 127.472h13.851V113.62h-13.851v13.852z" fill="#fff"/><path opacity=".32" d="M428.203 113.62h13.851V99.77h-13.851v13.85zm-13.851 0h13.851V99.77h-13.851v13.85zm-27.703 0H400.5V99.77h-13.851v13.85z" fill="#F2F2F2"/><path d="M372.798 113.62h13.851V99.77h-13.851v13.85z" fill="#F2F2F2"/><path opacity=".03" d="M358.947 238.28h13.851v-13.851h-13.851v13.851z" fill="#B3B3B3"/><path d="M345.096 238.28h13.851v-13.851h-13.851v13.851z" fill="#F2F2F2"/><path opacity=".53" d="M331.245 238.28h13.851v-13.851h-13.851v13.851z" fill="#F2F2F2"/><path opacity=".11" d="M317.394 238.28h13.851v-13.851h-13.851v13.851z" fill="#F2F2F2"/><path d="M303.543 238.28h13.851v-13.851h-13.851v13.851z" fill="#F2F2F2"/><path d="M289.692 238.28h13.851v-13.851h-13.851v13.851z" fill="#fff"/><path d="M275.841 238.28h13.851v-13.851h-13.851v13.851z" fill="#F2F2F2"/><path opacity=".21" d="M261.989 238.28h13.852v-13.851h-13.852v13.851z" fill="#F2F2F2"/><path opacity=".21" d="M248.138 238.28h13.851v-13.851h-13.851v13.851zm-13.851 0h13.851v-13.851h-13.851v13.851zm-13.851 0h13.851v-13.851h-13.851v13.851z" fill="#F2F2F2"/><path opacity=".22" d="M358.947 224.429h13.851v-13.851h-13.851v13.851z" fill="#F2F2F2"/><path opacity=".46" d="M345.096 224.429h13.851v-13.851h-13.851v13.851z" fill="#F2F2F2"/><path d="M317.394 224.429h13.851v-13.851h-13.851v13.851z" fill="#F2F2F2"/><path d="M303.543 224.429h13.851v-13.851h-13.851v13.851z" fill="#fff"/><path opacity=".05" d="M289.692 224.429h13.851v-13.851h-13.851v13.851z" fill="#E6E6E6"/><path opacity=".16" d="M275.841 224.429h13.851v-13.851h-13.851v13.851z" fill="#F2F2F2"/><path opacity=".21" d="M261.989 224.429h13.852v-13.851h-13.852v13.851z" fill="#B3B3B3"/><path opacity=".21" d="M248.138 224.429h13.851v-13.851h-13.851v13.851zm-13.851 0h13.851v-13.851h-13.851v13.851z" fill="#F2F2F2"/><path opacity=".22" d="M358.947 210.578h13.851v-13.851h-13.851v13.851z" fill="#F2F2F2"/><path d="M345.096 210.578h13.851v-13.851h-13.851v13.851z" fill="#F2F2F2"/><path d="M331.245 210.578h13.851v-13.851h-13.851v13.851z" fill="#fff"/><path opacity=".05" d="M317.394 210.578h13.851v-13.851h-13.851v13.851z" fill="#F2F2F2"/><path d="M303.543 210.578h13.851v-13.851h-13.851v13.851z" fill="#fff"/><path opacity=".46" d="M289.692 210.578h13.851v-13.851h-13.851v13.851z" fill="#F2F2F2"/><path opacity=".11" d="M275.841 210.578h13.851v-13.851h-13.851v13.851zm-13.852 0h13.852v-13.851h-13.852v13.851z" fill="#F2F2F2"/><path opacity=".46" d="M248.138 210.578h13.851v-13.851h-13.851v13.851z" fill="#F2F2F2"/><path d="M234.287 210.578h13.851v-13.851h-13.851v13.851z" fill="#F2F2F2"/><path opacity=".46" d="M220.436 210.578h13.851v-13.851h-13.851v13.851z" fill="#F2F2F2"/><path opacity=".22" d="M358.947 196.727h13.851v-13.851h-13.851v13.851z" fill="#F2F2F2"/><path opacity=".46" d="M331.245 196.727h13.851v-13.851h-13.851v13.851z" fill="#F2F2F2"/><path d="M303.543 196.727h13.851v-13.851h-13.851v13.851zm-13.851 0h13.851v-13.851h-13.851v13.851z" fill="#F2F2F2"/><path d="M275.841 196.727h13.851v-13.851h-13.851v13.851z" fill="#fff"/><path opacity=".11" d="M261.989 196.727h13.852v-13.851h-13.852v13.851z" fill="#F2F2F2"/><path d="M248.138 196.727h13.851v-13.851h-13.851v13.851z" fill="#F2F2F2"/><path opacity=".21" d="M234.287 196.727h13.851v-13.851h-13.851v13.851z" fill="#F2F2F2"/><path opacity=".22" d="M358.947 182.876h13.851v-13.851h-13.851v13.851z" fill="#CCC"/><path opacity=".16" d="M345.096 182.876h13.851v-13.851h-13.851v13.851z" fill="#F2F2F2"/><path opacity=".11" d="M331.245 182.876h13.851v-13.851h-13.851v13.851z" fill="#F2F2F2"/><path d="M317.394 182.876h13.851v-13.851h-13.851v13.851z" fill="#F2F2F2"/><path opacity=".46" d="M303.543 182.876h13.851v-13.851h-13.851v13.851z" fill="#F2F2F2"/><path opacity=".27" d="M275.841 182.876h13.851v-13.851h-13.851v13.851z" fill="#F2F2F2"/><path d="M248.138 182.876h13.851v-13.851h-13.851v13.851z" fill="#fff"/><path opacity=".21" d="M234.287 182.876h13.851v-13.851h-13.851v13.851zm-13.851 0h13.851v-13.851h-13.851v13.851z" fill="#F2F2F2"/><path opacity=".22" d="M358.947 169.025h13.851v-13.851h-13.851v13.851z" fill="#F2F2F2"/><path opacity=".42" d="M345.096 169.025h13.851v-13.851h-13.851v13.851z" fill="#F2F2F2"/><path opacity=".21" d="M331.245 169.025h13.851v-13.851h-13.851v13.851z" fill="#F2F2F2"/><path opacity=".46" d="M303.543 169.025h13.851v-13.851h-13.851v13.851z" fill="#F2F2F2"/><path opacity=".03" d="M289.692 169.025h13.851v-13.851h-13.851v13.851z" fill="#B3B3B3"/><path d="M275.841 169.025h13.851v-13.851h-13.851v13.851z" fill="#F2F2F2"/><path opacity=".21" d="M261.989 169.025h13.852v-13.851h-13.852v13.851z" fill="#F2F2F2"/><path opacity=".27" d="M248.138 169.025h13.851v-13.851h-13.851v13.851z" fill="#F2F2F2"/><path d="M234.287 169.025h13.851v-13.851h-13.851v13.851z" fill="#fff"/><path opacity=".22" d="M358.947 155.174h13.851v-13.851h-13.851v13.851z" fill="#fff"/><path d="M345.096 155.174h13.851v-13.851h-13.851v13.851z" fill="#F2F2F2"/><path opacity=".03" d="M331.245 155.174h13.851v-13.851h-13.851v13.851z" fill="#CCC"/><path opacity=".56" d="M317.394 155.174h13.851v-13.851h-13.851v13.851z" fill="#F2F2F2"/><path opacity=".16" d="M303.543 155.174h13.851v-13.851h-13.851v13.851zm-13.851 0h13.851v-13.851h-13.851v13.851z" fill="#F2F2F2"/><path opacity=".21" d="M275.841 155.174h13.851v-13.851h-13.851v13.851z" fill="#F2F2F2"/><path d="M261.989 155.174h13.852v-13.851h-13.852v13.851z" fill="#F2F2F2"/><path opacity=".21" d="M248.138 155.174h13.851v-13.851h-13.851v13.851z" fill="#F2F2F2"/><path opacity=".46" d="M234.287 155.174h13.851v-13.851h-13.851v13.851z" fill="#F2F2F2"/><path opacity=".16" d="M358.947 141.323h13.851v-13.851h-13.851v13.851z" fill="#F2F2F2"/><path opacity=".21" d="M345.096 141.323h13.851v-13.851h-13.851v13.851z" fill="#F2F2F2"/><path d="M331.245 141.323h13.851v-13.851h-13.851v13.851z" fill="#F2F2F2"/><path opacity=".27" d="M317.394 141.323h13.851v-13.851h-13.851v13.851z" fill="#F2F2F2"/><path opacity=".21" d="M303.543 141.323h13.851v-13.851h-13.851v13.851zm-13.851 0h13.851v-13.851h-13.851v13.851z" fill="#F2F2F2"/><path d="M275.841 141.323h13.851v-13.851h-13.851v13.851z" fill="#F2F2F2"/><path opacity=".46" d="M261.989 141.323h13.852v-13.851h-13.852v13.851z" fill="#F2F2F2"/><path d="M248.138 141.323h13.851v-13.851h-13.851v13.851z" fill="#fff"/><path opacity=".03" d="M358.947 127.472h13.851V113.62h-13.851v13.852z" fill="#E6E6E6"/><path opacity=".16" d="M331.245 127.472h13.851V113.62h-13.851v13.852z" fill="#F2F2F2"/><path d="M317.394 127.472h13.851V113.62h-13.851v13.852z" fill="#fff"/><path d="M303.543 127.472h13.851V113.62h-13.851v13.852z" fill="#E6E6E6"/><path opacity=".05" d="M289.692 127.472h13.851V113.62h-13.851v13.852z" fill="#F2F2F2"/><path d="M275.841 127.472h13.851V113.62h-13.851v13.852z" fill="#fff"/><path d="M261.989 127.472h13.852V113.62h-13.852v13.852z" fill="#F2F2F2"/><path opacity=".05" d="M248.138 127.472h13.851V113.62h-13.851v13.852z" fill="#F2F2F2"/><path opacity=".56" d="M234.287 127.472h13.851V113.62h-13.851v13.852z" fill="#F2F2F2"/><path d="M220.436 127.472h13.851V113.62h-13.851v13.852z" fill="#fff"/><path opacity=".23" d="M358.947 113.62h13.851V99.77h-13.851v13.85z" fill="#F2F2F2"/><path opacity=".03" d="M345.096 113.62h13.851V99.77h-13.851v13.85z" fill="#F2F2F2"/><path opacity=".27" d="M331.245 113.62h13.851V99.77h-13.851v13.85z" fill="#F2F2F2"/><path opacity=".05" d="M317.394 113.62h13.851V99.77h-13.851v13.85z" fill="#F2F2F2"/><path d="M303.543 113.62h13.851V99.77h-13.851v13.85z" fill="#F2F2F2"/><path opacity=".23" d="M289.692 113.62h13.851V99.77h-13.851v13.85z" fill="#F2F2F2"/><path opacity=".05" d="M275.841 113.62h13.851V99.77h-13.851v13.85z" fill="#F2F2F2"/><path opacity=".56" d="M261.989 113.62h13.852V99.77h-13.852v13.85z" fill="#F2F2F2"/><path d="M248.138 113.62h13.851V99.77h-13.851v13.85z" fill="#F2F2F2"/><path opacity=".42" d="M234.287 113.62h13.851V99.77h-13.851v13.85z" fill="#F2F2F2"/><path opacity=".05" d="M220.436 113.62h13.851V99.77h-13.851v13.85z" fill="#E6E6E6"/><path opacity=".32" d="M428.203 99.77h13.851V85.917h-13.851V99.77z" fill="#fff"/><path opacity=".32" d="M414.352 99.77h13.851V85.917h-13.851V99.77zm-13.852 0h13.852V85.917H400.5V99.77z" fill="#F2F2F2"/><path opacity=".32" d="M386.649 99.77H400.5V85.917h-13.851V99.77z" fill="#fff"/><path opacity=".39" d="M372.798 99.77h13.851V85.917h-13.851V99.77z" fill="#F2F2F2"/><path d="M358.947 99.77h13.851V85.917h-13.851V99.77zm-13.851 0h13.851V85.917h-13.851V99.77z" fill="#fff"/><path opacity=".56" d="M331.245 99.77h13.851V85.917h-13.851V99.77z" fill="#F2F2F2"/><path d="M317.394 99.77h13.851V85.917h-13.851V99.77z" fill="#fff"/><path opacity=".05" d="M303.543 99.77h13.851V85.917h-13.851V99.77z" fill="#F2F2F2"/><path opacity=".46" d="M289.692 99.77h13.851V85.917h-13.851V99.77z" fill="#F2F2F2"/><path d="M275.841 99.77h13.851V85.917h-13.851V99.77z" fill="#F2F2F2"/><path opacity=".23" d="M261.989 99.77h13.852V85.917h-13.852V99.77z" fill="#CCC"/><path opacity=".05" d="M248.138 99.77h13.852V85.917h-13.852V99.77zm-13.851 0h13.851V85.917h-13.851V99.77z" fill="#F2F2F2"/><path opacity=".19" d="M372.798 85.918h13.851v-13.85h-13.851v13.85z" fill="#F2F2F2"/><path opacity=".03" d="M358.947 85.918h13.851v-13.85h-13.851v13.85z" fill="#F2F2F2"/><path opacity=".56" d="M345.096 85.918h13.851v-13.85h-13.851v13.85z" fill="#F2F2F2"/><path opacity=".03" d="M331.245 85.918h13.851v-13.85h-13.851v13.85z" fill="#F2F2F2"/><path opacity=".27" d="M317.394 85.918h13.851v-13.85h-13.851v13.85zm-13.851 0h13.851v-13.85h-13.851v13.85zm-13.851 0h13.851v-13.85h-13.851v13.85z" fill="#F2F2F2"/><path opacity=".05" d="M275.841 85.918h13.851v-13.85h-13.851v13.85zm-13.852 0h13.852v-13.85h-13.852v13.85z" fill="#F2F2F2"/><path opacity=".31" d="M358.947 72.067h13.851V58.216h-13.851v13.851z" fill="#F2F2F2"/><path opacity=".03" d="M345.096 72.067h13.851V58.216h-13.851v13.851z" fill="#E6E6E6"/><path opacity=".31" d="M331.245 72.067h13.851V58.216h-13.851v13.851zm-27.702 0h13.851V58.216h-13.851v13.851zm-13.851 0h13.851V58.216h-13.851v13.851zm-27.703 0h13.852V58.216h-13.852v13.851z" fill="#F2F2F2"/><path opacity=".31" d="M248.138 72.067h13.852V58.216h-13.852v13.851zm110.809-13.851h13.851V44.365h-13.851v13.851zm-96.958 0h13.852V44.365h-13.852v13.851z" fill="#F2F2F2"/><path opacity=".31" d="M248.138 58.216h13.852V44.365h-13.852v13.851z" fill="#F2F2F2"/><path opacity=".11" d="M358.947 44.365h13.851V30.514h-13.851v13.85z" fill="#F2F2F2"/><path opacity=".31" d="M261.989 44.365h13.852V30.514h-13.852v13.85z" fill="#F2F2F2"/><path opacity=".27" d="M218.937 44.365h13.852V30.514h-13.852v13.85z" fill="#CCC"/><path opacity=".31" d="M261.989 30.514h13.852V16.663h-13.852v13.85z" fill="#F2F2F2"/><path opacity=".31" d="M248.138 30.514h13.852V16.663h-13.852v13.85z" fill="#F2F2F2"/><path d="M428.203 85.918h13.851v-13.85h-13.851v13.85zm-13.851 0h13.851v-13.85h-13.851v13.85zm-13.852 0h13.852v-13.85H400.5v13.85zm-13.851 0H400.5v-13.85h-13.851v13.85z" fill="#fff"/><path opacity=".31" d="M428.203 72.067h13.851V58.216h-13.851v13.851zm-13.851 0h13.851V58.216h-13.851v13.851zm-13.852 0h13.852V58.216H400.5v13.851zm-13.851 0H400.5V58.216h-13.851v13.851z" fill="#fff"/><path opacity=".42" d="M234.287 72.067h13.851V58.216h-13.851v13.851z" fill="#fff"/><path opacity=".31" d="M428.203 58.216h13.851V44.365h-13.851v13.851zm-13.851 0h13.851V44.365h-13.851v13.851zm-13.852 0h13.852V44.365H400.5v13.851zm-13.851 0H400.5V44.365h-13.851v13.851zm-41.553 0h13.851V44.365h-13.851v13.851zm-13.851 0h13.851V44.365h-13.851v13.851zm-13.851 0h13.851V44.365h-13.851v13.851zm-13.851 0h13.851V44.365h-13.851v13.851zm-13.851 0h13.851V44.365h-13.851v13.851zm-13.851 0h13.851V44.365h-13.851v13.851zm-41.554 0h13.851V44.365h-13.851v13.851zm-13.851 0h13.851V44.365h-13.851v13.851zm207.767-13.851h13.851V30.514h-13.851v13.85zm-13.851 0h13.851V30.514h-13.851v13.85z" fill="#fff"/><path opacity=".19" d="M400.5 44.365h13.852V30.514H400.5v13.85z" fill="#F2F2F2"/><path opacity=".31" d="M386.649 44.365H400.5V30.514h-13.851v13.85zm-41.553 0h13.851V30.514h-13.851v13.85zm-13.851 0h13.851V30.514h-13.851v13.85zm-13.851 0h13.851V30.514h-13.851v13.85zm-13.851 0h13.851V30.514h-13.851v13.85zm-13.851 0h13.851V30.514h-13.851v13.85zm-13.851 0h13.851V30.514h-13.851v13.85zm-70.755 0h13.852V30.514h-13.852v13.85zm-13.851 0h13.851V30.514h-13.851v13.85zm236.968-13.851h13.851V16.663h-13.851v13.85zm-27.703 0h13.852V16.663H400.5v13.85zm-69.255 0h13.851V16.663h-13.851v13.85zm-13.851 0h13.851V16.663h-13.851v13.85zm-13.851 0h13.851V16.663h-13.851v13.85zm-13.851 0h13.851V16.663h-13.851v13.85zm-13.851 0h13.851V16.663h-13.851v13.85zm-41.554 0h13.851V16.663h-13.851v13.85z" fill="#fff"/><path d="M148.972 141.323h13.851v-13.852h-13.851v13.852z" fill="#F2F2F2"/><path opacity=".46" d="M135.121 141.323h13.851v-13.852h-13.851v13.852z" fill="#F2F2F2"/><path opacity=".31" d="M170.044 265.983h13.851v-13.852h-13.851v13.852z" fill="#F2F2F2"/><path opacity=".31" d="M156.193 265.983h13.851v-13.852h-13.851v13.852z" fill="#CCC"/><path opacity=".42" d="M130.806 321.387h13.851v-13.851h-13.851v13.851zm0-13.851h13.851v-13.851h-13.851v13.851z" fill="#F2F2F2"/><path d="M145.339 376.791h13.851V362.94h-13.851v13.851zm-21.118 83.107h13.852v-13.851h-13.852v13.851zm13.851-13.851h13.852v-13.851h-13.852v13.851z" fill="#F2F2F2"/><path d="M124.221 446.047h13.852v-13.851h-13.852v13.851z" fill="#E6E6E6"/><path d="M124.221 432.196h13.852v-13.851h-13.852v13.851z" fill="#F2F2F2"/></g><defs><filter id="filter0_d" x="-4" y=".677" width="671.671" height="467.221" filterUnits="userSpaceOnUse" color-interpolation-filters="sRGB"><feFlood flood-opacity="0" result="BackgroundImageFix"/><feColorMatrix in="SourceAlpha" values="0 0 0 0 0 0 0 0 0 0 0 0 0 0 0 0 0 0 127 0" result="hardAlpha"/><feOffset dy="4"/><feGaussianBlur stdDeviation="2"/><feComposite in2="hardAlpha" operator="out"/><feColorMatrix values="0 0 0 0 0 0 0 0 0 0 0 0 0 0 0 0 0 0 0.25 0"/><feBlend in2="BackgroundImageFix" result="effect1_dropShadow"/><feBlend in="SourceGraphic" in2="effect1_dropShadow" result="shape"/></filter></defs></svg>