<svg width="37" height="28" viewBox="0 0 37 28" fill="none" xmlns="http://www.w3.org/2000/svg">
<g clip-path="url(#clip0)">
<path d="M19.0456 26.3831C18.7252 26.6353 18.2751 26.6338 17.9713 26.3542L12.8891 22.1292C12.8875 22.128 12.8857 22.1268 12.8842 22.1255L9.38919 19.1889C8.76359 18.6959 8.42565 18.0517 8.35844 17.2776C8.35844 17.2573 8.35782 17.1132 8.35628 17.093C8.25946 15.9327 7.74146 14.9295 6.7995 14.0949L6.58274 13.9152L12.9723 6.33821L15.5808 6.80697C15.6234 6.81404 15.6662 6.81865 15.7082 6.81865C16.0467 6.81865 16.3477 6.57659 16.4099 6.23346C16.4802 5.8458 16.2225 5.47657 15.834 5.40622L14.0315 5.08214L14.6164 4.38853C14.7379 4.24446 14.7974 4.05708 14.7807 3.86969C14.7641 3.68078 14.6728 3.50783 14.5276 3.3868L10.6638 0.164768C10.3623 -0.0889647 9.91151 -0.045652 9.65899 0.252622L3.35974 7.74111C3.10659 8.04246 3.14575 8.49064 3.44792 8.74284C3.75039 8.99657 4.20087 8.95479 4.45339 8.65498L10.2951 1.71143L13.063 4.01929L12.1984 5.04467C12.1546 5.08491 12.1158 5.13099 12.0828 5.18167L4.49039 14.1843L1.71817 11.8736L2.6925 10.7033C2.94441 10.4007 2.90217 9.95221 2.59846 9.70155C2.29475 9.45212 1.84613 9.49267 1.59299 9.79524L0.165093 11.5102C-0.08589 11.8116 -0.0445733 12.2582 0.256977 12.5092L4.1207 15.7309C4.2539 15.8434 4.4167 15.8968 4.57796 15.8968C4.78208 15.8968 4.98373 15.8117 5.12556 15.6431L5.66453 15.0038L5.86834 15.1731C6.51799 15.7481 6.86672 16.4156 6.93024 17.1523C6.93024 17.1725 6.93085 17.3166 6.93239 17.3369C7.03507 18.5665 7.56386 19.5652 8.48639 20.2904L11.969 23.2173C11.9709 23.2188 11.9727 23.2206 11.9746 23.2225L17.0291 27.4229C17.4444 27.8063 17.9732 27.9995 18.5085 27.9995C19.004 27.9995 19.5059 27.8336 19.9293 27.5022C20.2388 27.2586 20.2916 26.8116 20.048 26.5032C19.8044 26.1926 19.3551 26.1395 19.0456 26.3831Z" fill="#200B73" stroke="#200B73" stroke-width="0.3"/>
<path d="M21.8184 24.4598C21.5116 24.6991 21.0509 24.6905 20.7426 24.4309L16.1229 20.5825C15.8192 20.3319 15.369 20.3737 15.1174 20.6719C14.8642 20.9745 14.9046 21.423 15.2071 21.6752L19.8241 25.5208C20.248 25.8784 20.7747 26.0572 21.3013 26.0572C21.7962 26.0572 22.2911 25.8987 22.6996 25.5786C23.0098 25.3365 23.0641 24.8896 22.8205 24.5796C22.5781 24.2712 22.1273 24.2162 21.8184 24.4598Z" fill="#200B73" stroke="#200B73" stroke-width="0.3"/>
<path d="M27.422 17.2772L23.726 14.1811C23.4266 13.9317 22.9752 13.9679 22.7205 14.2677C22.4665 14.5691 22.5056 15.0172 22.8075 15.271L26.5121 18.3744C26.682 18.5114 26.7872 18.7176 26.8066 18.951C26.8275 19.1946 26.7495 19.4367 26.5636 19.6502C26.4261 19.829 26.2229 19.9398 25.9907 19.9629C25.749 19.9887 25.5119 19.9125 25.3201 19.7451L20.2388 15.5189C19.9385 15.2682 19.488 15.31 19.2333 15.6098C18.9808 15.9111 19.0215 16.3593 19.3246 16.6115L24.3936 20.8276C24.811 21.1907 25.3522 21.3897 25.9056 21.3897C25.9815 21.3897 26.0567 21.387 26.1329 21.3781C26.7622 21.316 27.3178 21.0091 27.6687 20.5508C28.0788 20.0839 28.2835 19.4566 28.2302 18.8312C28.1771 18.2172 27.8799 17.6492 27.422 17.2772Z" fill="#200B73" stroke="#200B73" stroke-width="0.3"/>
<path d="M26.4112 21.4414C26.0286 21.5366 25.7964 21.9228 25.891 22.3034C25.9626 22.5903 25.8883 22.9073 25.711 23.1278C25.5368 23.3269 25.2929 23.4507 25.0419 23.4667C24.8886 23.4811 24.6592 23.4522 24.4379 23.259L18.3899 18.2387C18.0847 17.985 17.636 18.0283 17.3844 18.3297C17.1319 18.631 17.1726 19.0807 17.4757 19.3314L23.5104 24.3403C23.9205 24.6991 24.4394 24.8923 24.9833 24.8923C25.0339 24.8923 25.0854 24.8908 25.1365 24.8865C25.7622 24.8447 26.3643 24.5449 26.8062 24.0405C27.2792 23.451 27.4552 22.6741 27.277 21.9605C27.1817 21.5784 26.7948 21.3449 26.4112 21.4414Z" fill="#200B73" stroke="#200B73" stroke-width="0.3"/>
<path d="M36.8358 11.5114L35.4079 9.79614C35.1563 9.49356 34.707 9.45301 34.4024 9.70245C34.0987 9.95311 34.0567 10.4016 34.3083 10.7042L35.2827 11.8745L32.5105 14.1852L24.9218 5.18686C24.8872 5.13218 24.8456 5.08273 24.7978 5.04003L23.9379 4.02049L26.7058 1.71263L32.5475 8.65587C32.8006 8.95568 33.2498 8.999 33.5529 8.74373C33.8554 8.49153 33.8943 8.04335 33.6411 7.74201L27.3416 0.254124C27.0906 -0.0444576 26.6401 -0.0877704 26.337 0.165962L22.473 3.38769C22.3274 3.50872 22.2365 3.68167 22.2198 3.87058C22.2032 4.05797 22.2624 4.24535 22.3842 4.38942L22.9657 5.07904L20.6233 5.49067C19.0998 5.75884 17.8316 6.35262 16.6365 7.36018L11.6394 11.5028C11.6388 11.5031 11.6385 11.5038 11.6378 11.5041C11.6348 11.5065 11.6314 11.5087 11.6283 11.5114C10.695 12.3156 10.5836 13.7053 11.3875 14.6899C11.7809 15.1423 12.3294 15.4163 12.9313 15.4581C12.9856 15.4624 13.0398 15.464 13.0941 15.464C13.6272 15.464 14.1338 15.2781 14.5241 14.9393L17.6756 12.3411C18.6068 13.1589 19.7831 13.5788 20.9597 13.5788C22.0795 13.5788 23.2 13.1982 24.1093 12.4229C24.4087 12.1664 24.4435 11.7179 24.1867 11.4196C23.9292 11.1198 23.4791 11.0894 23.1803 11.3419C21.737 12.574 19.5404 12.3848 18.2744 10.9275C18.2738 10.9269 18.2732 10.926 18.2726 10.925C18.2701 10.922 18.2673 10.9195 18.2648 10.9167C18.2648 10.9167 18.2648 10.9164 18.2645 10.9164L18.2642 10.9161C18.2485 10.898 18.2322 10.8805 18.2152 10.8645C18.2124 10.8621 18.2097 10.8596 18.2069 10.8571C18.1924 10.8436 18.1776 10.8307 18.1622 10.8187C18.156 10.8138 18.1498 10.8098 18.1434 10.8052C18.131 10.7963 18.1187 10.7871 18.1057 10.7791C18.0962 10.773 18.0863 10.7678 18.0765 10.7622C18.0666 10.7564 18.0567 10.7506 18.0465 10.7453C18.0342 10.7389 18.0213 10.7337 18.0086 10.7281C18.0006 10.7247 17.9926 10.7208 17.9846 10.7177C17.9701 10.7122 17.9556 10.7072 17.9408 10.7026C17.9337 10.7005 17.9269 10.6977 17.9198 10.6959C17.9044 10.6916 17.889 10.6882 17.8736 10.6848C17.8668 10.6833 17.86 10.6814 17.8532 10.6802C17.8378 10.6774 17.8224 10.6756 17.807 10.6738C17.7996 10.6728 17.7925 10.6716 17.7851 10.671C17.7703 10.6698 17.7555 10.6695 17.7407 10.6688C17.7324 10.6685 17.7243 10.6682 17.7163 10.6682C17.7024 10.6682 17.6886 10.6695 17.6747 10.6704C17.6654 10.671 17.6565 10.6713 17.6473 10.6722C17.6343 10.6738 17.6214 10.6759 17.6084 10.6781C17.5985 10.6796 17.589 10.6808 17.5791 10.683C17.5665 10.6854 17.5538 10.6891 17.5412 10.6922C17.5316 10.6946 17.5218 10.6971 17.5122 10.6999C17.4989 10.7039 17.4863 10.7088 17.4734 10.7137C17.4647 10.7171 17.4561 10.7198 17.4475 10.7235C17.433 10.7297 17.4188 10.7367 17.4046 10.7438C17.3981 10.7472 17.3913 10.7499 17.3849 10.7533C17.3679 10.7622 17.3516 10.7724 17.3352 10.7831C17.3318 10.7853 17.3284 10.7871 17.325 10.7896C17.3022 10.8049 17.28 10.8212 17.2588 10.8393C17.2572 10.8406 17.256 10.8421 17.2541 10.8436L13.601 13.8562C13.4456 13.9901 13.2486 14.0623 13.0324 14.0408C12.8117 14.0248 12.6116 13.9256 12.4821 13.7769C12.1811 13.408 12.2172 12.8861 12.5631 12.5878C12.5641 12.5869 12.565 12.586 12.5659 12.585L17.5541 8.45068C18.567 7.59732 19.5898 7.1175 20.8709 6.89234L24.027 6.33787L30.4181 13.9167L30.1841 14.1111C29.2597 14.9313 28.7417 15.9346 28.6446 17.0948C28.643 17.1151 28.6424 17.2591 28.6424 17.2794C28.6424 17.6612 28.944 17.9122 29.3266 17.9282C29.3352 17.9282 29.3433 17.9282 29.3519 17.9282C29.7231 17.9282 30.037 17.5851 30.0682 17.2134C30.1332 16.4291 30.4915 15.7432 31.1156 15.1896L31.3363 15.0063L31.875 15.6452C32.0168 15.8138 32.2185 15.8989 32.4226 15.8989C32.5838 15.8989 32.7466 15.8455 32.8798 15.7331L36.7436 12.5113C37.0454 12.2597 37.0867 11.8128 36.8358 11.5114Z" fill="#200B73" stroke="#200B73" stroke-width="0.3"/>
</g>
<defs>
<clipPath id="clip0">
<rect width="37" height="28" fill="white"/>
</clipPath>
</defs>
</svg>
