<svg width="541" height="461" fill="none" xmlns="http://www.w3.org/2000/svg"><path d="M526.211 460.173h13.851v-13.851h-13.851v13.851z" fill="#fff"/><path opacity=".05" d="M498.509 460.173h13.851v-13.851h-13.851v13.851z" fill="#B3B3B3"/><path opacity=".03" d="M484.658 460.173h13.851v-13.851h-13.851v13.851z" fill="#F2F2F2"/><path opacity=".22" d="M498.509 446.322h13.851v-13.851h-13.851v13.851zm-13.851 0h13.851v-13.851h-13.851v13.851zm-13.852 0h13.852v-13.851h-13.852v13.851zm41.554-13.851h13.851V418.62H512.36v13.851zm-13.851 0h13.851V418.62h-13.851v13.851zm-13.851 0h13.851V418.62h-13.851v13.851z" fill="#F2F2F2"/><path opacity=".22" d="M526.211 418.62h13.851v-13.851h-13.851v13.851z" fill="#fff"/><path opacity=".22" d="M512.36 418.62h13.851v-13.851H512.36v13.851zm-13.851 0h13.851v-13.851h-13.851v13.851z" fill="#F2F2F2"/><path opacity=".22" d="M484.658 418.62h13.851v-13.851h-13.851v13.851z" fill="#fff"/><path opacity=".14" d="M470.806 418.62h13.852v-13.851h-13.852v13.851z" fill="#F2F2F2"/><path opacity=".22" d="M526.211 404.769h13.851v-13.851h-13.851v13.851z" fill="#F2F2F2"/><path opacity=".11" d="M498.509 404.769h13.851v-13.851h-13.851v13.851z" fill="#F2F2F2"/><path opacity=".22" d="M484.658 404.769h13.851v-13.851h-13.851v13.851z" fill="#F2F2F2"/><path opacity=".14" d="M470.806 404.769h13.852v-13.851h-13.852v13.851z" fill="#F2F2F2"/><path opacity=".22" d="M526.211 390.918h13.851v-13.852h-13.851v13.852zm-13.851 0h13.851v-13.852H512.36v13.852z" fill="#F2F2F2"/><path opacity=".22" d="M498.509 390.918h13.851v-13.852h-13.851v13.852z" fill="#fff"/><path opacity=".22" d="M484.658 390.918h13.851v-13.852h-13.851v13.852z" fill="#F2F2F2"/><path opacity=".14" d="M470.806 390.918h13.852v-13.852h-13.852v13.852z" fill="#F2F2F2"/><path opacity=".22" d="M526.211 377.066h13.851v-13.851h-13.851v13.851z" fill="#F2F2F2"/><path opacity=".22" d="M512.36 377.066h13.851v-13.851H512.36v13.851z" fill="#E6E6E6"/><path opacity=".22" d="M498.509 377.066h13.851v-13.851h-13.851v13.851z" fill="#fff"/><path opacity=".22" d="M484.658 377.066h13.851v-13.851h-13.851v13.851z" fill="#E6E6E6"/><path opacity=".32" d="M526.211 363.215h13.851v-13.851h-13.851v13.851z" fill="#F2F2F2"/><path opacity=".32" d="M512.36 363.215h13.851v-13.851H512.36v13.851z" fill="#fff"/><path opacity=".32" d="M498.509 363.215h13.851v-13.851h-13.851v13.851zm-13.851 0h13.851v-13.851h-13.851v13.851z" fill="#F2F2F2"/><path opacity=".14" d="M470.806 363.215h13.852v-13.851h-13.852v13.851z" fill="#F2F2F2"/><path opacity=".05" d="M526.211 349.364h13.851v-13.851h-13.851v13.851z" fill="#B3B3B3"/><path opacity=".32" d="M512.36 349.364h13.851v-13.851H512.36v13.851z" fill="#F2F2F2"/><path opacity=".05" d="M498.509 349.364h13.851v-13.851h-13.851v13.851z" fill="#B3B3B3"/><path opacity=".32" d="M484.658 349.364h13.851v-13.851h-13.851v13.851z" fill="#F2F2F2"/><path opacity=".14" d="M470.806 349.364h13.852v-13.851h-13.852v13.851z" fill="#fff"/><path opacity=".32" d="M526.211 335.513h13.851v-13.851h-13.851v13.851z" fill="#F2F2F2"/><path opacity=".32" d="M512.36 335.513h13.851v-13.851H512.36v13.851z" fill="#fff"/><path opacity=".32" d="M484.658 335.513h13.851v-13.851h-13.851v13.851z" fill="#F2F2F2"/><path d="M470.806 335.513h13.852v-13.851h-13.852v13.851z" fill="#F2F2F2"/><path opacity=".03" d="M456.955 460.173h13.852v-13.851h-13.852v13.851z" fill="#B3B3B3"/><path opacity=".53" d="M429.253 460.173h13.851v-13.851h-13.851v13.851z" fill="#F2F2F2"/><path opacity=".11" d="M415.402 460.173h13.851v-13.851h-13.851v13.851z" fill="#F2F2F2"/><path opacity=".21" d="M359.998 460.173h13.851v-13.851h-13.851v13.851zm-13.852 0h13.852v-13.851h-13.852v13.851zm-13.851 0h13.851v-13.851h-13.851v13.851zm-13.851 0h13.851v-13.851h-13.851v13.851z" fill="#F2F2F2"/><path opacity=".22" d="M456.955 446.322h13.852v-13.851h-13.852v13.851z" fill="#F2F2F2"/><path opacity=".21" d="M346.146 446.322h13.852v-13.851h-13.852v13.851zm-13.851 0h13.851v-13.851h-13.851v13.851zm-13.851 0h13.851v-13.851h-13.851v13.851z" fill="#F2F2F2"/><path opacity=".05" d="M456.955 432.471h13.852V418.62h-13.852v13.851z" fill="#F2F2F2"/><path d="M443.104 432.471h13.851V418.62h-13.851v13.851z" fill="#F2F2F2"/><path opacity=".05" d="M443.104 432.471h-13.851V418.62h13.851m-27.702 13.851h13.851V418.62h-13.851v13.851z" fill="#F2F2F2"/><path opacity=".11" d="M373.849 432.471H387.7V418.62h-13.851v13.851zm-13.851 0h13.851V418.62h-13.851v13.851z" fill="#F2F2F2"/><path opacity=".05" d="M346.146 432.471h13.852V418.62h-13.852v13.851z" fill="#E6E6E6"/><path d="M332.295 432.471h13.851V418.62h-13.851v13.851zm-13.851 0h13.851V418.62h-13.851v13.851z" fill="#fff"/><path opacity=".14" d="M456.955 418.62h13.852v-13.851h-13.852v13.851zm-13.851 0h13.851v-13.851h-13.851v13.851zm-13.851 0h13.851v-13.851h-13.851v13.851z" fill="#F2F2F2"/><path opacity=".14" d="M415.402 418.62v-13.851h13.851v13.851" fill="#E6E6E6"/><path opacity=".11" d="M359.998 418.62h13.851v-13.851h-13.851v13.851z" fill="#F2F2F2"/><path d="M346.146 418.62h13.852v-13.851h-13.852v13.851z" fill="#F2F2F2"/><path opacity=".21" d="M332.295 418.62h13.851v-13.851h-13.851v13.851z" fill="#F2F2F2"/><path d="M318.444 418.62h13.851v-13.851h-13.851v13.851z" fill="#F2F2F2"/><path opacity=".14" d="M456.955 404.769h13.852v-13.851h-13.852v13.851z" fill="#CCC"/><path opacity=".14" d="M443.104 404.769h13.851v-13.851h-13.851v13.851zm-13.851 0h13.851v-13.851h-13.851v13.851zm-13.851 0h13.851v-13.851h-13.851v13.851zm-13.851 0h13.851v-13.851h-13.851v13.851zm-13.851 0h13.851v-13.851H387.7v13.851zm-13.851 0H387.7v-13.851h-13.851v13.851z" fill="#F2F2F2"/><path d="M346.146 404.769h13.852v-13.851h-13.852v13.851z" fill="#F2F2F2"/><path opacity=".21" d="M332.295 404.769h13.851v-13.851h-13.851v13.851zm-13.851 0h13.851v-13.851h-13.851v13.851z" fill="#F2F2F2"/><path opacity=".14" d="M456.955 390.918h13.852v-13.852h-13.852v13.852zm-55.404 0h13.851v-13.852h-13.851v13.852z" fill="#F2F2F2"/><path opacity=".14" d="M387.7 390.918h13.851v-13.852H387.7v13.852z" fill="#B3B3B3"/><path opacity=".14" d="M373.849 390.918H387.7v-13.852h-13.851v13.852zm-13.851 0h13.851v-13.852h-13.851v13.852z" fill="#F2F2F2"/><path opacity=".14" d="M346.146 390.918h13.852v-13.852h-13.852v13.852z" fill="#fff"/><path d="M318.444 390.918h13.851v-13.852h-13.851v13.852z" fill="#fff"/><path opacity=".14" d="M456.955 377.066h13.852v-13.851h-13.852v13.851z" fill="#fff"/><path opacity=".14" d="M443.104 377.066h13.851v-13.851h-13.851v13.851z" fill="#F2F2F2"/><path opacity=".14" d="M429.253 377.066h13.851v-13.851h-13.851v13.851z" fill="#CCC"/><path opacity=".14" d="M387.7 377.066h13.851v-13.851H387.7v13.851zm-13.851 0H387.7v-13.851h-13.851v13.851zm-13.851 0h13.851v-13.851h-13.851v13.851zm-13.852 0h13.852v-13.851h-13.852v13.851zm-13.851 0h13.851v-13.851h-13.851v13.851zm-13.851 0h13.851v-13.851h-13.851v13.851zm138.511-13.851h13.852v-13.851h-13.852v13.851zm-13.851 0h13.851v-13.851h-13.851v13.851zm-13.851 0h13.851v-13.851h-13.851v13.851zm-13.851 0h13.851v-13.851h-13.851v13.851zm-13.851 0h13.851v-13.851h-13.851v13.851zm-27.702 0H387.7v-13.851h-13.851v13.851z" fill="#F2F2F2"/><path opacity=".14" d="M359.998 363.215h13.851v-13.851h-13.851v13.851z" fill="#CCC"/><path opacity=".14" d="M346.146 363.215h13.852v-13.851h-13.852v13.851zm-13.851 0h13.851v-13.851h-13.851v13.851z" fill="#F2F2F2"/><path opacity=".14" d="M456.955 349.364h13.852v-13.851h-13.852v13.851z" fill="#E6E6E6"/><path opacity=".14" d="M429.253 349.364h13.851v-13.851h-13.851v13.851z" fill="#F2F2F2"/><path opacity=".14" d="M415.402 349.364h13.851v-13.851h-13.851v13.851z" fill="#fff"/><path opacity=".14" d="M401.551 349.364h13.851v-13.851h-13.851v13.851z" fill="#E6E6E6"/><path opacity=".14" d="M373.849 349.364H387.7v-13.851h-13.851v13.851zm-13.851 0h13.851v-13.851h-13.851v13.851zm-41.554 0h13.851v-13.851h-13.851v13.851z" fill="#F2F2F2"/><path d="M456.955 335.513h13.852v-13.851h-13.852v13.851z" fill="#F2F2F2"/><path opacity=".03" d="M443.104 335.513h13.851v-13.851h-13.851v13.851z" fill="#F2F2F2"/><path opacity=".14" d="M429.253 335.513h13.851v-13.851h-13.851v13.851zm-13.851 0h13.851v-13.851h-13.851v13.851zm-13.851 0h13.851v-13.851h-13.851v13.851zm-13.851 0h13.851v-13.851H387.7v13.851zm-27.702 0h13.851v-13.851h-13.851v13.851zm-13.852 0h13.852v-13.851h-13.852v13.851zm-13.851 0h13.851v-13.851h-13.851v13.851z" fill="#F2F2F2"/><path opacity=".14" d="M318.444 335.513h13.851v-13.851h-13.851v13.851z" fill="#E6E6E6"/><path opacity=".32" d="M526.211 321.662h13.851v-13.851h-13.851v13.851z" fill="#fff"/><path opacity=".32" d="M512.36 321.662h13.851v-13.851H512.36v13.851zm-13.851 0h13.851v-13.851h-13.851v13.851z" fill="#F2F2F2"/><path opacity=".32" d="M484.658 321.662h13.851v-13.851h-13.851v13.851z" fill="#fff"/><path opacity=".39" d="M470.806 321.662h13.852v-13.851h-13.852v13.851z" fill="#F2F2F2"/><path d="M456.955 321.662h13.852v-13.851h-13.852v13.851z" fill="#fff"/><path d="M443.104 321.662h13.851v-13.851h-13.851v13.851z" fill="#F2F2F2"/><path opacity=".56" d="M429.253 321.662h13.851v-13.851h-13.851v13.851z" fill="#F2F2F2"/><path d="M415.402 321.662h13.851v-13.851h-13.851v13.851z" fill="#fff"/><path opacity=".05" d="M401.551 321.662h13.851v-13.851h-13.851v13.851zm-27.702 0H387.7v-13.851h-13.851v13.851zm-27.703 0h13.852v-13.851h-13.852v13.851z" fill="#F2F2F2"/><path opacity=".14" d="M318.444 321.662h13.851v-13.851h-13.851v13.851z" fill="#F2F2F2"/><path opacity=".19" d="M470.806 307.811h13.852V293.96h-13.852v13.851z" fill="#F2F2F2"/><path opacity=".03" d="M456.955 307.811h13.852V293.96h-13.852v13.851z" fill="#F2F2F2"/><path opacity=".56" d="M443.104 307.811h13.851V293.96h-13.851v13.851z" fill="#F2F2F2"/><path opacity=".03" d="M429.253 307.811h13.851V293.96h-13.851v13.851z" fill="#F2F2F2"/><path opacity=".56" d="M415.402 307.811h13.851V293.96h-13.851v13.851z" fill="#F2F2F2"/><path d="M401.551 307.811h13.851V293.96h-13.851v13.851z" fill="#F2F2F2"/><path opacity=".56" d="M387.7 307.811h13.851V293.96H387.7v13.851z" fill="#F2F2F2"/><path opacity=".05" d="M373.849 307.811H387.7V293.96h-13.851v13.851z" fill="#F2F2F2"/><path d="M359.998 307.811h13.851V293.96h-13.851v13.851z" fill="#F2F2F2"/><path opacity=".05" d="M346.146 307.811h13.852V293.96h-13.852v13.851z" fill="#F2F2F2"/><path opacity=".14" d="M332.295 307.811h13.851V293.96h-13.851v13.851z" fill="#F2F2F2"/><path opacity=".31" d="M456.955 293.96h13.852v-13.851h-13.852v13.851z" fill="#F2F2F2"/><path opacity=".03" d="M443.104 293.96h13.851v-13.851h-13.851v13.851z" fill="#E6E6E6"/><path opacity=".31" d="M429.253 293.96h13.851v-13.851h-13.851v13.851zm-27.702 0h13.851v-13.851h-13.851v13.851zm-13.851 0h13.851v-13.851H387.7v13.851zm-27.702 0h13.851v-13.851h-13.851v13.851zm-13.852 0h13.852v-13.851h-13.852v13.851zm110.809-13.851h13.852v-13.851h-13.852v13.851zm-110.808 0h13.851v-13.851h-13.851v13.851z" fill="#F2F2F2"/><path opacity=".11" d="M456.955 266.258h13.852v-13.851h-13.852v13.851z" fill="#F2F2F2"/><path opacity=".31" d="M359.998 266.258h13.851v-13.851h-13.851v13.851z" fill="#F2F2F2"/><path opacity=".31" d="M346.147 266.258h13.851v-13.851h-13.851v13.851z" fill="#CCC"/><path opacity=".31" d="M470.806 253.736h13.852v-13.851h-13.852v13.851z" fill="#F2F2F2"/><path opacity=".31" d="M456.955 253.736h13.852v-13.851h-13.852v13.851zm-110.808-1.329h13.851v-13.852h-13.851v13.852z" fill="#F2F2F2"/><path d="M526.211 307.811h13.851V293.96h-13.851v13.851zm-13.851 0h13.851V293.96H512.36v13.851zm-13.851 0h13.851V293.96h-13.851v13.851zm-13.851 0h13.851V293.96h-13.851v13.851z" fill="#fff"/><path opacity=".31" d="M526.211 293.96h13.851v-13.851h-13.851v13.851zm-13.851 0h13.851v-13.851H512.36v13.851zm0 0v-13.851h-13.851v13.851m-13.851 0h13.851v-13.851h-13.851v13.851z" fill="#fff"/><path opacity=".14" d="M332.295 293.96h13.851v-13.851h-13.851v13.851z" fill="#fff"/><path opacity=".31" d="M526.211 280.109h13.851v-13.851h-13.851v13.851zm-13.851 0h13.851v-13.851H512.36v13.851zm-13.851 0h13.851v-13.851h-13.851v13.851zm-13.851 0h13.851v-13.851h-13.851v13.851zm-41.554 0h13.851v-13.851h-13.851v13.851zm-13.851 0h13.851v-13.851h-13.851v13.851zm-13.851 0h13.851v-13.851h-13.851v13.851zm-13.851 0h13.851v-13.851h-13.851v13.851zm-13.851 0h13.851v-13.851H387.7v13.851zm-13.851 0H387.7v-13.851h-13.851v13.851zm-41.554 0h13.851v-13.851h-13.851v13.851zm-13.851 0h13.851v-13.851h-13.851v13.851zm207.767-13.851h13.851v-13.851h-13.851v13.851zm-13.851 0h13.851v-13.851H512.36v13.851z" fill="#fff"/><path opacity=".19" d="M498.509 266.258h13.851v-13.851h-13.851v13.851z" fill="#F2F2F2"/><path opacity=".31" d="M484.658 266.258h13.851v-13.851h-13.851v13.851zm-41.554 0h13.851v-13.851h-13.851v13.851zm-13.851 0h13.851v-13.851h-13.851v13.851zm-13.851 0h13.851v-13.851h-13.851v13.851zm-13.851 0h13.851v-13.851h-13.851v13.851zm-13.851 0h13.851v-13.851H387.7v13.851zm-13.851 0H387.7v-13.851h-13.851v13.851zm-41.554 0h13.851v-13.851h-13.851v13.851zm-13.851 0h13.851v-13.851h-13.851v13.851zm207.767-13.851h13.851v-13.852h-13.851v13.852zm-27.702 0h13.851v-13.852h-13.851v13.852z" fill="#fff"/><path opacity=".31" d="M484.658 252.407h13.851v-13.852h-13.851v13.852zm-55.405 0h13.851v-13.852h-13.851v13.852zm-13.851 0h13.851v-13.852h-13.851v13.852zm-13.851 0h13.851v-13.852h-13.851v13.852zm-13.851 0h13.851v-13.852H387.7v13.852zm-13.851 0H387.7v-13.852h-13.851v13.852zm-41.554 0h13.851v-13.852h-13.851v13.852z" fill="#fff"/><path d="M304.593 460.173h13.851v-13.851h-13.851v13.851z" fill="#fff"/><path opacity=".03" d="M263.04 460.173h13.851v-13.851H263.04v13.851z" fill="#F2F2F2"/><path d="M249.189 460.173h13.851v-13.851h-13.851v13.851z" fill="#F2F2F2"/><path opacity=".22" d="M304.593 446.322h13.851v-13.851h-13.851v13.851zm-27.702 0h13.851v-13.851h-13.851v13.851zm-13.851 0h13.851v-13.851H263.04v13.851zm-13.851 0h13.851v-13.851h-13.851v13.851zm55.404-13.851h13.851V418.62h-13.851v13.851zm-13.851 0h13.851V418.62h-13.851v13.851zm-13.851 0h13.851V418.62h-13.851v13.851zm-13.851 0h13.851V418.62H263.04v13.851z" fill="#F2F2F2"/><path opacity=".22" d="M249.189 432.471h13.851V418.62h-13.851v13.851z" fill="gray"/><path opacity=".22" d="M304.593 418.62h13.851v-13.851h-13.851v13.851z" fill="#fff"/><path opacity=".22" d="M290.742 418.62h13.851v-13.851h-13.851v13.851zm-13.851 0h13.851v-13.851h-13.851v13.851z" fill="#F2F2F2"/><path opacity=".22" d="M263.04 418.62h13.851v-13.851H263.04v13.851z" fill="#fff"/><path opacity=".22" d="M249.189 418.62h13.851v-13.851h-13.851v13.851zm55.404-13.851h13.851v-13.851h-13.851v13.851z" fill="#F2F2F2"/><path opacity=".22" d="M290.742 404.769h13.851v-13.851h-13.851v13.851z" fill="#fff"/><path opacity=".11" d="M276.891 404.769h13.851v-13.851h-13.851v13.851z" fill="#F2F2F2"/><path opacity=".14" d="M263.04 404.769h13.851v-13.851H263.04v13.851zm-13.851 0h13.851v-13.851h-13.851v13.851zm55.404-13.851h13.851v-13.852h-13.851v13.852zm-13.851 0h13.851v-13.852h-13.851v13.852zm-13.851 0h13.851v-13.852h-13.851v13.852zm-13.851 0h13.851v-13.852H263.04v13.852zm-13.851 0h13.851v-13.852h-13.851v13.852z" fill="#F2F2F2"/><path opacity=".14" d="M290.742 377.066h13.851v-13.851h-13.851v13.851zm-27.702 0h13.851v-13.851H263.04v13.851z" fill="#E6E6E6"/><path opacity=".14" d="M249.189 377.066h13.851v-13.851h-13.851v13.851zm55.404-13.851h13.851v-13.851h-13.851v13.851zm-13.851 0h13.851v-13.851h-13.851v13.851zm-13.851 0h13.851v-13.851h-13.851v13.851zm-13.851 0h13.851v-13.851H263.04v13.851zm-13.851 0h13.851v-13.851h-13.851v13.851z" fill="#F2F2F2"/><path opacity=".14" d="M304.593 349.364h13.851v-13.851h-13.851v13.851z" fill="#B3B3B3"/><path opacity=".14" d="M290.742 349.364h13.851v-13.851h-13.851v13.851z" fill="#F2F2F2"/><path opacity=".14" d="M276.891 349.364h13.851v-13.851h-13.851v13.851z" fill="#B3B3B3"/><path opacity=".14" d="M263.04 349.364h13.851v-13.851H263.04v13.851z" fill="#F2F2F2"/><path opacity=".14" d="M249.189 349.364h13.851v-13.851h-13.851v13.851z" fill="#fff"/><path opacity=".14" d="M304.593 335.513h13.851v-13.851h-13.851v13.851zm-13.851 0h13.851v-13.851h-13.851v13.851zm-27.702 0h13.851v-13.851H263.04v13.851zm-13.851 0h13.851v-13.851h-13.851v13.851z" fill="#F2F2F2"/><path opacity=".03" d="M235.338 460.173h13.851v-13.851h-13.851v13.851z" fill="#B3B3B3"/><path opacity=".11" d="M193.784 460.173h13.851v-13.851h-13.851v13.851z" fill="#F2F2F2"/><path d="M179.933 460.173h13.851v-13.851h-13.851v13.851zm-27.702 0h13.851v-13.851h-13.851v13.851z" fill="#fff"/><path opacity=".22" d="M235.338 446.322h13.851v-13.851h-13.851v13.851z" fill="#F2F2F2"/><path d="M221.487 446.322h13.851v-13.851h-13.851v13.851z" fill="#F2F2F2"/><path d="M152.231 446.322h13.851v-13.851h-13.851v13.851z" fill="#fff"/><path opacity=".22" d="M235.338 432.471h13.851V418.62h-13.851v13.851z" fill="#F2F2F2"/><path d="M193.784 432.471h13.851V418.62h-13.851v13.851z" fill="#F2F2F2"/><path d="M193.784 432.471h-13.851V418.62h13.851" fill="#fff"/><path opacity=".11" d="M152.231 432.471h13.851V418.62h-13.851v13.851zm-13.851 0h13.851V418.62H138.38v13.851z" fill="#F2F2F2"/><path opacity=".16" d="M110.678 432.471h13.851V418.62h-13.851v13.851z" fill="#F2F2F2"/><path opacity=".22" d="M235.338 418.62h13.851v-13.851h-13.851v13.851z" fill="#F2F2F2"/><path opacity=".42" d="M221.487 418.62h13.851v-13.851h-13.851v13.851z" fill="#F2F2F2"/><path d="M207.635 418.62h13.852v-13.851h-13.852v13.851zm-27.702 0h13.851v-13.851h-13.851v13.851z" fill="#F2F2F2"/><path opacity=".16" d="M166.082 418.62h13.851v-13.851h-13.851v13.851z" fill="#F2F2F2"/><path opacity=".11" d="M138.38 418.62h13.851v-13.851H138.38v13.851z" fill="#F2F2F2"/><path opacity=".16" d="M124.529 418.62h13.851v-13.851h-13.851v13.851z" fill="#F2F2F2"/><path opacity=".21" d="M110.678 418.62h13.851v-13.851h-13.851v13.851z" fill="#F2F2F2"/><path opacity=".14" d="M235.338 404.769h13.851v-13.851h-13.851v13.851z" fill="#CCC"/><path opacity=".14" d="M221.487 404.769h13.851v-13.851h-13.851v13.851z" fill="#F2F2F2"/><path opacity=".11" d="M207.635 404.769h13.852v-13.851h-13.852v13.851z" fill="#F2F2F2"/><path d="M193.784 404.769h13.851v-13.851h-13.851v13.851z" fill="#F2F2F2"/><path opacity=".16" d="M179.933 404.769h13.851v-13.851h-13.851v13.851z" fill="#F2F2F2"/><path d="M166.082 404.769h13.851v-13.851h-13.851v13.851zm-13.851 0h13.851v-13.851h-13.851v13.851zm-27.702 0h13.851v-13.851h-13.851v13.851z" fill="#F2F2F2"/><path opacity=".21" d="M110.678 404.769h13.851v-13.851h-13.851v13.851zm-13.851 0h13.851v-13.851H96.827v13.851z" fill="#F2F2F2"/><path opacity=".14" d="M235.338 390.918h13.851v-13.852h-13.851v13.852zm-13.851 0h13.851v-13.852h-13.851v13.852zm-13.852 0h13.852v-13.852h-13.852v13.852z" fill="#F2F2F2"/><path opacity=".16" d="M193.784 390.918h13.851v-13.852h-13.851v13.852z" fill="#E6E6E6"/><path d="M179.933 390.918h13.851v-13.852h-13.851v13.852z" fill="#F2F2F2"/><path opacity=".03" d="M166.082 390.918h13.851v-13.852h-13.851v13.852z" fill="#B3B3B3"/><path d="M152.231 390.918h13.851v-13.852h-13.851v13.852z" fill="#F2F2F2"/><path opacity=".21" d="M138.38 390.918h13.851v-13.852H138.38v13.852z" fill="#F2F2F2"/><path opacity=".14" d="M124.529 390.918h13.851v-13.852h-13.851v13.852z" fill="#F2F2F2"/><path opacity=".14" d="M110.678 390.918h13.851v-13.852h-13.851v13.852z" fill="#CCC"/><path opacity=".14" d="M235.338 377.066h13.851v-13.851h-13.851v13.851z" fill="#fff"/><path opacity=".14" d="M221.487 377.066h13.851v-13.851h-13.851v13.851z" fill="#F2F2F2"/><path opacity=".14" d="M207.635 377.066h13.852v-13.851h-13.852v13.851z" fill="#CCC"/><path opacity=".14" d="M193.784 377.066h13.851v-13.851h-13.851v13.851zm-13.851 0h13.851v-13.851h-13.851v13.851zm-13.851 0h13.851v-13.851h-13.851v13.851zm-13.851 0h13.851v-13.851h-13.851v13.851zm-13.851 0h13.851v-13.851H138.38v13.851zm-13.851 0h13.851v-13.851h-13.851v13.851zm-13.851 0h13.851v-13.851h-13.851v13.851zm124.66-13.851h13.851v-13.851h-13.851v13.851zm-27.703 0h13.852v-13.851h-13.852v13.851zm-13.851 0h13.851v-13.851h-13.851v13.851zm-13.851 0h13.851v-13.851h-13.851v13.851zm-13.851 0h13.851v-13.851h-13.851v13.851zm-13.851 0h13.851v-13.851h-13.851v13.851z" fill="#F2F2F2"/><path opacity=".14" d="M138.38 363.215h13.851v-13.851H138.38v13.851z" fill="#CCC"/><path opacity=".14" d="M124.529 363.215h13.851v-13.851h-13.851v13.851zm-13.851 0h13.851v-13.851h-13.851v13.851z" fill="#F2F2F2"/><path opacity=".14" d="M235.338 349.364h13.851v-13.851h-13.851v13.851z" fill="#E6E6E6"/><path opacity=".14" d="M207.635 349.364h13.852v-13.851h-13.852v13.851z" fill="#F2F2F2"/><path opacity=".14" d="M193.784 349.364h13.851v-13.851h-13.851v13.851z" fill="#fff"/><path opacity=".14" d="M179.933 349.364h13.851v-13.851h-13.851v13.851z" fill="#E6E6E6"/><path opacity=".14" d="M166.082 349.364h13.851v-13.851h-13.851v13.851zm-13.851 0h13.851v-13.851h-13.851v13.851zm-13.851 0h13.851v-13.851H138.38v13.851zm-13.851 0h13.851v-13.851h-13.851v13.851zm-13.851 0h13.851v-13.851h-13.851v13.851zm124.66-13.851h13.851v-13.851h-13.851v13.851zm-13.851 0h13.851v-13.851h-13.851v13.851zm-13.852 0h13.852v-13.851h-13.852v13.851zm-13.851 0h13.851v-13.851h-13.851v13.851zm-13.851 0h13.851v-13.851h-13.851v13.851zm-13.851 0h13.851v-13.851h-13.851v13.851zm-13.851 0h13.851v-13.851h-13.851v13.851zm-13.851 0h13.851v-13.851H138.38v13.851zm-13.851 0h13.851v-13.851h-13.851v13.851z" fill="#F2F2F2"/><path opacity=".42" d="M110.678 335.513h13.851v-13.851h-13.851v13.851z" fill="#F2F2F2"/><path opacity=".05" d="M96.827 335.513h13.851v-13.851H96.827v13.851z" fill="#E6E6E6"/><path opacity=".14" d="M304.593 321.662h13.851v-13.851h-13.851v13.851z" fill="#fff"/><path opacity=".14" d="M290.742 321.662h13.851v-13.851h-13.851v13.851zm-13.851 0h13.851v-13.851h-13.851v13.851z" fill="#F2F2F2"/><path opacity=".14" d="M263.04 321.662h13.851v-13.851H263.04v13.851z" fill="#fff"/><path opacity=".14" d="M249.189 321.662h13.851v-13.851h-13.851v13.851z" fill="#F2F2F2"/><path opacity=".14" d="M235.338 321.662h13.851v-13.851h-13.851v13.851z" fill="#fff"/><path opacity=".14" d="M221.487 321.662h13.851v-13.851h-13.851v13.851zm-13.852 0h13.852v-13.851h-13.852v13.851z" fill="#F2F2F2"/><path opacity=".14" d="M193.784 321.662h13.851v-13.851h-13.851v13.851z" fill="#fff"/><path opacity=".14" d="M179.933 321.662h13.851v-13.851h-13.851v13.851z" fill="#F2F2F2"/><path opacity=".14" d="M166.082 321.662h13.851v-13.851h-13.851v13.851z" fill="#CCC"/><path opacity=".14" d="M152.231 321.662h13.851v-13.851h-13.851v13.851z" fill="#F2F2F2"/><path opacity=".14" d="M138.38 321.662h13.851v-13.851H138.38v13.851z" fill="#CCC"/><path opacity=".05" d="M124.529 321.662h13.851v-13.851h-13.851v13.851zm-13.851 0h13.851v-13.851h-13.851v13.851z" fill="#F2F2F2"/><path opacity=".14" d="M249.189 307.811h13.851V293.96h-13.851v13.851zm-13.851 0h13.851V293.96h-13.851v13.851z" fill="#F2F2F2"/><path opacity=".56" d="M221.487 307.811h13.851V293.96h-13.851v13.851z" fill="#F2F2F2"/><path opacity=".03" d="M207.635 307.811h13.852V293.96h-13.852v13.851z" fill="#F2F2F2"/><path opacity=".14" d="M193.784 307.811h13.851V293.96h-13.851v13.851zm-13.851 0h13.851V293.96h-13.851v13.851zm-13.851 0h13.851V293.96h-13.851v13.851zm-13.851 0h13.851V293.96h-13.851v13.851zm-13.851 0h13.851V293.96H138.38v13.851z" fill="#F2F2F2"/><path d="M124.529 307.811h13.851V293.96h-13.851v13.851z" fill="#F2F2F2"/><path opacity=".42" d="M110.678 307.811h13.851V293.96h-13.851v13.851z" fill="#F2F2F2"/><path opacity=".31" d="M235.338 293.96h13.851v-13.851h-13.851v13.851z" fill="#F2F2F2"/><path opacity=".03" d="M221.487 293.96h13.851v-13.851h-13.851v13.851z" fill="#E6E6E6"/><path opacity=".31" d="M207.635 293.96h13.852v-13.851h-13.852v13.851zm-27.702 0h13.851v-13.851h-13.851v13.851zm-13.851 0h13.851v-13.851h-13.851v13.851zm-27.702 0h13.851v-13.851H138.38v13.851zm-13.851 0h13.851v-13.851h-13.851v13.851zm110.809-13.851h13.851v-13.851h-13.851v13.851zm-96.958 0h13.851v-13.851H138.38v13.851zm-13.851 0h13.851v-13.851h-13.851v13.851z" fill="#F2F2F2"/><path opacity=".11" d="M235.338 266.258h13.851v-13.852h-13.851v13.852z" fill="#F2F2F2"/><path opacity=".31" d="M249.189 253.736h13.851v-13.851h-13.851v13.851zm-13.851 0h13.851v-13.851h-13.851v13.851zm-96.958-1.33h13.851v-13.851H138.38v13.851zm-13.851 0h13.851v-13.851h-13.851v13.851z" fill="#F2F2F2"/><path opacity=".14" d="M304.593 307.811h13.851V293.96h-13.851v13.851zm-13.851 0h13.851V293.96h-13.851v13.851zm-13.851 0h13.851V293.96h-13.851v13.851zm-13.851 0h13.851V293.96H263.04v13.851zm41.553-13.851h13.851v-13.851h-13.851v13.851zm-13.851 0h13.851v-13.851h-13.851v13.851zm-13.851 0h13.851v-13.851h-13.851v13.851zm-13.851 0h13.851v-13.851H263.04v13.851z" fill="#fff"/><path opacity=".42" d="M110.678 293.96h13.851v-13.851h-13.851v13.851z" fill="#fff"/><path opacity=".31" d="M304.593 280.109h13.851v-13.851h-13.851v13.851zm-13.851 0h13.851v-13.851h-13.851v13.851zm-13.851 0h13.851v-13.851h-13.851v13.851zm-13.851 0h13.851v-13.851H263.04v13.851zm-41.553 0h13.851v-13.851h-13.851v13.851zm-13.852 0h13.852v-13.851h-13.852v13.851zm-13.851 0h13.851v-13.851h-13.851v13.851zm-13.851 0h13.851v-13.851h-13.851v13.851zm-13.851 0h13.851v-13.851h-13.851v13.851zm-13.851 0h13.851v-13.851h-13.851v13.851zm-41.553 0h13.851v-13.851h-13.851v13.851zm-13.851 0h13.851v-13.851H96.827v13.851zm207.766-13.851h13.851v-13.851h-13.851v13.851zm-13.851 0h13.851v-13.851h-13.851v13.851z" fill="#fff"/><path opacity=".19" d="M276.891 266.258h13.851v-13.851h-13.851v13.851z" fill="#F2F2F2"/><path opacity=".31" d="M263.04 266.258h13.851v-13.852H263.04v13.852zm-41.553 0h13.851v-13.852h-13.851v13.852zm-13.852 0h13.852v-13.852h-13.852v13.852zm-13.851 0h13.851v-13.852h-13.851v13.852z" fill="#fff"/><path opacity=".23" d="M179.933 266.258h13.851v-13.852h-13.851v13.852z" fill="#fff"/><path opacity=".31" d="M166.082 266.258h13.851v-13.852h-13.851v13.852zm-13.851 0h13.851v-13.852h-13.851v13.852zm-41.553 0h13.851v-13.852h-13.851v13.852zm-13.851 0h13.851v-13.852H96.827v13.852zm207.766-13.851h13.851v-13.852h-13.851v13.852zm-27.702 0h13.851v-13.852h-13.851v13.852zm-13.851-.001h13.851v-13.851H263.04v13.851zm-55.405 0h13.852v-13.851h-13.852v13.851zm-13.851 0h13.851v-13.851h-13.851v13.851zm-13.851 0h13.851v-13.851h-13.851v13.851z" fill="#fff"/><path opacity=".31" d="M166.082 252.406h13.851v-13.851h-13.851v13.851zm-13.851 0h13.851v-13.851h-13.851v13.851zm-41.553 0h13.851v-13.851h-13.851v13.851z" fill="#fff"/><path d="M526.211 238.555h13.851v-13.851h-13.851v13.851z" fill="#fff"/><path opacity=".16" d="M512.36 238.555h13.851v-13.851H512.36v13.851z" fill="#F2F2F2"/><path opacity=".05" d="M498.509 238.555h13.851v-13.851h-13.851v13.851z" fill="#fff"/><path opacity=".03" d="M484.658 238.555h13.851v-13.851h-13.851v13.851z" fill="#F2F2F2"/><path opacity=".16" d="M470.806 238.555h13.852v-13.851h-13.852v13.851z" fill="#F2F2F2"/><path opacity=".22" d="M526.211 224.704h13.851v-13.851h-13.851v13.851z" fill="#F2F2F2"/><path opacity=".05" d="M512.36 224.704h13.851v-13.851H512.36v13.851z" fill="#CCC"/><path opacity=".22" d="M498.509 224.704h13.851v-13.851h-13.851v13.851zm-13.851 0h13.851v-13.851h-13.851v13.851zm-13.852 0h13.852v-13.851h-13.852v13.851zm55.405-13.851h13.851v-13.851h-13.851v13.851z" fill="#F2F2F2"/><path opacity=".22" d="M512.36 210.853h13.851v-13.851H512.36v13.851z" fill="#fff"/><path opacity=".22" d="M498.509 210.853h13.851v-13.851h-13.851v13.851zm-13.851 0h13.851v-13.851h-13.851v13.851z" fill="#F2F2F2"/><path opacity=".16" d="M470.806 210.853h13.852v-13.851h-13.852v13.851z" fill="gray"/><path opacity=".22" d="M526.211 197.002h13.851v-13.851h-13.851v13.851z" fill="#fff"/><path opacity=".22" d="M512.36 197.002h13.851v-13.851H512.36v13.851zm-13.851 0h13.851v-13.851h-13.851v13.851z" fill="#F2F2F2"/><path opacity=".22" d="M484.658 197.002h13.851v-13.851h-13.851v13.851z" fill="#fff"/><path opacity=".22" d="M470.806 197.002h13.852v-13.851h-13.852v13.851z" fill="#F2F2F2"/><path opacity=".11" d="M498.509 183.151h13.851V169.3h-13.851v13.851z" fill="#fff"/><path opacity=".16" d="M484.658 183.151h13.851V169.3h-13.851v13.851z" fill="#F2F2F2"/><path opacity=".22" d="M470.806 183.151h13.852V169.3h-13.852v13.851zM512.36 169.3h13.851v-13.851H512.36V169.3zm-13.851 0h13.851v-13.851h-13.851V169.3zm-13.851 0h13.851v-13.851h-13.851V169.3z" fill="#F2F2F2"/><path opacity=".22" d="M470.806 169.3h13.852v-13.851h-13.852V169.3z" fill="#fff"/><path opacity=".22" d="M526.211 155.449h13.851v-13.851h-13.851v13.851z" fill="#F2F2F2"/><path opacity=".22" d="M512.36 155.449h13.851v-13.851H512.36v13.851z" fill="#fff"/><path opacity=".27" d="M498.509 155.449h13.851v-13.851h-13.851v13.851z" fill="#fff"/><path opacity=".22" d="M484.658 155.449h13.851v-13.851h-13.851v13.851z" fill="#fff"/><path opacity=".22" d="M470.806 155.449h13.852v-13.851h-13.852v13.851z" fill="#F2F2F2"/><path opacity=".21" d="M470.806 141.598h13.852v-13.851h-13.852v13.851z" fill="#F2F2F2"/><path opacity=".32" d="M512.36 127.747h13.851v-13.852H512.36v13.852z" fill="#F2F2F2"/><path opacity=".32" d="M498.509 127.747h13.851v-13.852h-13.851v13.852zm-13.851 0h13.851v-13.852h-13.851v13.852z" fill="#fff"/><path d="M470.806 127.747h13.852v-13.852h-13.852v13.852z" fill="#fff"/><path opacity=".32" d="M526.211 113.895h13.851v-13.851h-13.851v13.851zm-41.553 0h13.851v-13.851h-13.851v13.851z" fill="#F2F2F2"/><path opacity=".16" d="M470.806 113.895h13.852v-13.851h-13.852v13.851z" fill="#F2F2F2"/><path opacity=".03" d="M456.955 238.555h13.852v-13.851h-13.852v13.851z" fill="#B3B3B3"/><path opacity=".16" d="M443.104 238.555h13.851v-13.851h-13.851v13.851z" fill="#F2F2F2"/><path opacity=".53" d="M429.253 238.555h13.851v-13.851h-13.851v13.851z" fill="#F2F2F2"/><path opacity=".11" d="M415.402 238.555h13.851v-13.851h-13.851v13.851z" fill="#F2F2F2"/><path d="M401.551 238.555h13.851v-13.851h-13.851v13.851z" fill="#F2F2F2"/><path opacity=".05" d="M373.849 238.555H387.7v-13.851h-13.851v13.851z" fill="#F2F2F2"/><path opacity=".21" d="M359.998 238.555h13.851v-13.851h-13.851v13.851zm-27.703 0h13.851v-13.851h-13.851v13.851zm-13.851 0h13.851v-13.851h-13.851v13.851z" fill="#F2F2F2"/><path opacity=".22" d="M456.955 224.704h13.852v-13.851h-13.852v13.851z" fill="#F2F2F2"/><path opacity=".05" d="M401.551 224.704h13.851v-13.851h-13.851v13.851z" fill="#F2F2F2"/><path d="M387.7 224.704h13.851v-13.851H387.7v13.851z" fill="#fff"/><path opacity=".05" d="M359.998 224.704h13.851v-13.851h-13.851v13.851z" fill="#B3B3B3"/><path opacity=".21" d="M346.147 224.704h13.851v-13.851h-13.851v13.851zm-13.852 0h13.851v-13.851h-13.851v13.851zm-13.851 0h13.851v-13.851h-13.851v13.851z" fill="#F2F2F2"/><path opacity=".22" d="M456.955 210.853h13.852v-13.851h-13.852v13.851z" fill="#F2F2F2"/><path d="M443.104 210.853h13.851v-13.851h-13.851v13.851z" fill="#fff"/><path d="M429.253 210.853h13.851v-13.851h-13.851v13.851z" fill="#F2F2F2"/><path opacity=".46" d="M415.402 210.853h13.851v-13.851h-13.851v13.851z" fill="#F2F2F2"/><path opacity=".25" d="M401.551 210.853h13.851v-13.851h-13.851v13.851z" fill="#fff"/><path opacity=".16" d="M387.7 210.853h13.851v-13.851H387.7v13.851z" fill="#F2F2F2"/><path opacity=".11" d="M373.849 210.853H387.7v-13.851h-13.851v13.851zm-13.851 0h13.851v-13.851h-13.851v13.851z" fill="#F2F2F2"/><path d="M346.147 210.853h13.851v-13.851h-13.851v13.851z" fill="#fff"/><path opacity=".05" d="M332.295 210.853h13.851v-13.851h-13.851v13.851z" fill="#F2F2F2"/><path d="M318.444 210.853h13.851v-13.851h-13.851v13.851z" fill="#fff"/><path opacity=".22" d="M456.955 197.002h13.852v-13.851h-13.852v13.851z" fill="#F2F2F2"/><path opacity=".46" d="M443.104 197.002h13.851v-13.851h-13.851v13.851z" fill="#F2F2F2"/><path opacity=".16" d="M429.253 197.002h13.851v-13.851h-13.851v13.851z" fill="#F2F2F2"/><path d="M415.402 197.002h13.851v-13.851h-13.851v13.851z" fill="#fff"/><path d="M401.551 197.002h13.851v-13.851h-13.851v13.851z" fill="#F2F2F2"/><path opacity=".27" d="M387.7 197.002h13.851v-13.851H387.7v13.851z" fill="#F2F2F2"/><path opacity=".11" d="M359.998 197.002h13.851v-13.851h-13.851v13.851z" fill="#F2F2F2"/><path opacity=".27" d="M346.147 197.002h13.851v-13.851h-13.851v13.851z" fill="#F2F2F2"/><path opacity=".21" d="M332.295 197.002h13.851v-13.851h-13.851v13.851z" fill="#F2F2F2"/><path opacity=".05" d="M318.444 197.002h13.851v-13.851h-13.851v13.851z" fill="#F2F2F2"/><path opacity=".16" d="M456.955 183.151h13.852V169.3h-13.852v13.851z" fill="#CCC"/><path d="M443.104 183.151h13.851V169.3h-13.851v13.851z" fill="#fff"/><path opacity=".11" d="M429.253 183.151h13.851V169.3h-13.851v13.851z" fill="#F2F2F2"/><path opacity=".21" d="M401.551 183.151h13.851V169.3h-13.851v13.851z" fill="#F2F2F2"/><path opacity=".46" d="M387.7 183.151h13.851V169.3H387.7v13.851z" fill="#F2F2F2"/><path d="M373.849 183.151H387.7V169.3h-13.851v13.851z" fill="#F2F2F2"/><path d="M346.147 183.151h13.851V169.3h-13.851v13.851z" fill="#fff"/><path opacity=".21" d="M332.295 183.151h13.851V169.3h-13.851v13.851zm-13.851 0h13.851V169.3h-13.851v13.851z" fill="#F2F2F2"/><path opacity=".22" d="M456.955 169.3h13.852v-13.851h-13.852V169.3z" fill="#F2F2F2"/><path opacity=".42" d="M443.104 169.3h13.851v-13.851h-13.851V169.3z" fill="#F2F2F2"/><path opacity=".21" d="M429.253 169.3h13.851v-13.851h-13.851V169.3z" fill="#F2F2F2"/><path opacity=".05" d="M415.402 169.3h13.851v-13.851h-13.851V169.3z" fill="#E6E6E6"/><path d="M401.551 169.3h13.851v-13.851h-13.851V169.3z" fill="#F2F2F2"/><path opacity=".03" d="M387.7 169.3h13.851v-13.851H387.7V169.3z" fill="#B3B3B3"/><path d="M373.849 169.3H387.7v-13.851h-13.851V169.3z" fill="#fff"/><path opacity=".21" d="M359.998 169.3h13.851v-13.851h-13.851V169.3z" fill="#F2F2F2"/><path opacity=".27" d="M346.147 169.3h13.851v-13.851h-13.851V169.3z" fill="#F2F2F2"/><path d="M332.295 169.3h13.851v-13.851h-13.851V169.3z" fill="#fff"/><path opacity=".46" d="M318.444 169.3h13.851v-13.851h-13.851V169.3z" fill="#F2F2F2"/><path opacity=".22" d="M456.955 155.449h13.852v-13.851h-13.852v13.851z" fill="#fff"/><path opacity=".05" d="M443.104 155.449h13.851v-13.851h-13.851v13.851z" fill="#F2F2F2"/><path opacity=".03" d="M429.253 155.449h13.851v-13.851h-13.851v13.851z" fill="#CCC"/><path opacity=".56" d="M415.402 155.449h13.851v-13.851h-13.851v13.851z" fill="#F2F2F2"/><path opacity=".27" d="M401.551 155.449h13.851v-13.851h-13.851v13.851z" fill="#F2F2F2"/><path d="M387.7 155.449h13.851v-13.851H387.7v13.851z" fill="#F2F2F2"/><path opacity=".21" d="M373.849 155.449H387.7v-13.851h-13.851v13.851zm-27.702 0h13.851v-13.851h-13.851v13.851zm-13.852 0h13.851v-13.851h-13.851v13.851z" fill="#F2F2F2"/><path d="M318.444 155.449h13.851v-13.851h-13.851v13.851zm138.511-13.851h13.852v-13.851h-13.852v13.851z" fill="#F2F2F2"/><path opacity=".21" d="M443.104 141.598h13.851v-13.851h-13.851v13.851z" fill="#F2F2F2"/><path d="M429.253 141.598h13.851v-13.851h-13.851v13.851z" fill="#fff"/><path opacity=".23" d="M415.402 141.598h13.851v-13.851h-13.851v13.851z" fill="#F2F2F2"/><path opacity=".21" d="M401.551 141.598h13.851v-13.851h-13.851v13.851zm-13.851 0h13.851v-13.851H387.7v13.851z" fill="#F2F2F2"/><path d="M373.849 141.598H387.7v-13.851h-13.851v13.851z" fill="#F2F2F2"/><path d="M359.998 141.598h13.851v-13.851h-13.851v13.851z" fill="#fff"/><path opacity=".46" d="M346.147 141.598h13.851v-13.851h-13.851v13.851z" fill="#F2F2F2"/><path d="M332.295 141.598h13.851v-13.851h-13.851v13.851z" fill="#F2F2F2"/><path d="M318.444 141.598h13.851v-13.851h-13.851v13.851z" fill="#fff"/><path opacity=".46" d="M456.955 127.747h13.852v-13.852h-13.852v13.852z" fill="#F2F2F2"/><path opacity=".27" d="M429.253 127.747h13.851v-13.852h-13.851v13.852z" fill="#F2F2F2"/><path d="M415.402 127.747h13.851v-13.852h-13.851v13.852zm-13.851 0h13.851v-13.852h-13.851v13.852z" fill="#fff"/><path opacity=".05" d="M387.7 127.747h13.851v-13.852H387.7v13.852z" fill="#F2F2F2"/><path d="M373.849 127.747H387.7v-13.852h-13.851v13.852z" fill="#fff"/><path opacity=".27" d="M359.998 127.747h13.851v-13.852h-13.851v13.852z" fill="#F2F2F2"/><path opacity=".05" d="M346.147 127.747h13.851v-13.852h-13.851v13.852z" fill="#F2F2F2"/><path opacity=".56" d="M332.295 127.747h13.851v-13.852h-13.851v13.852z" fill="#F2F2F2"/><path d="M318.444 127.747h13.851v-13.852h-13.851v13.852z" fill="#fff"/><path opacity=".27" d="M456.955 113.895h13.852v-13.851h-13.852v13.851z" fill="#F2F2F2"/><path opacity=".03" d="M443.104 113.895h13.851v-13.851h-13.851v13.851z" fill="#F2F2F2"/><path opacity=".56" d="M429.253 113.895h13.851v-13.851h-13.851v13.851z" fill="#F2F2F2"/><path opacity=".05" d="M415.402 113.895h13.851v-13.851h-13.851v13.851z" fill="#F2F2F2"/><path d="M401.551 113.895h13.851v-13.851h-13.851v13.851z" fill="#F2F2F2"/><path d="M387.7 113.895h13.851v-13.851H387.7v13.851z" fill="#fff"/><path opacity=".05" d="M373.849 113.895H387.7v-13.851h-13.851v13.851z" fill="#F2F2F2"/><path opacity=".56" d="M359.998 113.895h13.851v-13.851h-13.851v13.851z" fill="#fff"/><path opacity=".27" d="M346.147 113.895h13.851v-13.851h-13.851v13.851z" fill="#F2F2F2"/><path opacity=".46" d="M332.295 113.895h13.851v-13.851h-13.851v13.851z" fill="#F2F2F2"/><path opacity=".05" d="M318.444 113.895h13.851v-13.851h-13.851v13.851z" fill="#E6E6E6"/><path opacity=".32" d="M526.211 100.044h13.851v-13.85h-13.851v13.85z" fill="#fff"/><path opacity=".32" d="M512.36 100.044h13.851v-13.85H512.36v13.85zm-13.851 0h13.851v-13.85h-13.851v13.85z" fill="#F2F2F2"/><path opacity=".32" d="M484.658 100.044h13.851v-13.85h-13.851v13.85z" fill="#fff"/><path opacity=".39" d="M470.807 100.044h13.851v-13.85h-13.851v13.85z" fill="#F2F2F2"/><path d="M456.955 100.044h13.852v-13.85h-13.852v13.85z" fill="#fff"/><path d="M443.104 100.044h13.851v-13.85h-13.851v13.85z" fill="#F2F2F2"/><path opacity=".56" d="M429.253 100.044h13.851v-13.85h-13.851v13.85z" fill="#F2F2F2"/><path d="M415.402 100.044h13.851v-13.85h-13.851v13.85z" fill="#fff"/><path opacity=".05" d="M401.551 100.044h13.851v-13.85h-13.851v13.85z" fill="#F2F2F2"/><path d="M387.7 100.044h13.851v-13.85H387.7v13.85z" fill="#fff"/><path d="M373.849 100.044H387.7v-13.85h-13.851v13.85z" fill="#F2F2F2"/><path d="M359.998 100.044h13.851v-13.85h-13.851v13.85z" fill="#fff"/><path opacity=".05" d="M346.147 100.044h13.851v-13.85h-13.851v13.85zm-13.851 0h13.851v-13.85h-13.851v13.85z" fill="#F2F2F2"/><path opacity=".42" d="M318.444 100.044h13.851v-13.85h-13.851v13.85z" fill="#F2F2F2"/><path opacity=".19" d="M470.807 86.193h13.851v-13.85h-13.851v13.85z" fill="#F2F2F2"/><path opacity=".03" d="M456.955 86.193h13.852v-13.85h-13.852v13.85z" fill="#F2F2F2"/><path opacity=".56" d="M443.104 86.193h13.851v-13.85h-13.851v13.85z" fill="#F2F2F2"/><path opacity=".03" d="M429.253 86.193h13.851v-13.85h-13.851v13.85z" fill="#F2F2F2"/><path opacity=".56" d="M415.402 86.193h13.851v-13.85h-13.851v13.85z" fill="#F2F2F2"/><path opacity=".16" d="M401.551 86.193h13.851v-13.85h-13.851v13.85z" fill="#F2F2F2"/><path opacity=".56" d="M387.7 86.193h13.851v-13.85H387.7v13.85z" fill="#F2F2F2"/><path opacity=".46" d="M373.849 86.193H387.7v-13.85h-13.851v13.85z" fill="#F2F2F2"/><path d="M359.998 86.193h13.851v-13.85h-13.851v13.85z" fill="#F2F2F2"/><path opacity=".27" d="M346.147 86.193h13.851v-13.85h-13.851v13.85z" fill="#F2F2F2"/><path opacity=".42" d="M332.296 86.193h13.851v-13.85h-13.851v13.85zm-13.852 0h13.851v-13.85h-13.851v13.85z" fill="#F2F2F2"/><path opacity=".31" d="M456.955 72.342h13.852V58.491h-13.852v13.851z" fill="#F2F2F2"/><path opacity=".03" d="M443.104 72.342h13.851V58.491h-13.851v13.851z" fill="#E6E6E6"/><path opacity=".31" d="M429.253 72.342h13.851V58.491h-13.851v13.851z" fill="#F2F2F2"/><path opacity=".46" d="M401.551 72.342h13.851V58.491h-13.851v13.851z" fill="#F2F2F2"/><path opacity=".31" d="M387.7 72.342h13.851V58.491H387.7v13.851zm-27.702 0h13.851V58.491h-13.851v13.851zm-13.851 0h13.851V58.491h-13.851v13.851zm110.808-13.851h13.852V44.64h-13.852v13.85zm-96.957 0h13.851V44.64h-13.851v13.85zm-13.851 0h13.851V44.64h-13.851v13.85z" fill="#F2F2F2"/><path opacity=".11" d="M456.955 44.64h13.852V30.789h-13.852v13.85z" fill="#F2F2F2"/><path opacity=".31" d="M359.998 44.64h13.851V30.789h-13.851v13.85z" fill="#F2F2F2"/><path opacity=".16" d="M346.147 44.64h13.851V30.789h-13.851v13.85z" fill="#CCC"/><path opacity=".31" d="M359.998 14.803h13.851V.953h-13.851v13.85z" fill="#F2F2F2"/><path d="M526.211 86.193h13.851v-13.85h-13.851v13.85zm-13.851 0h13.851v-13.85H512.36v13.85zm-13.851 0h13.851v-13.85h-13.851v13.85zm-13.851 0h13.851v-13.85h-13.851v13.85z" fill="#fff"/><path opacity=".31" d="M526.211 72.342h13.851V58.491h-13.851v13.851zm-13.851 0h13.851V58.491H512.36v13.851zm-13.851 0h13.851V58.491h-13.851v13.851zm-13.851 0h13.851V58.491h-13.851v13.851z" fill="#fff"/><path opacity=".42" d="M332.296 72.342h13.851V58.491h-13.851v13.851z" fill="#fff"/><path opacity=".31" d="M526.211 58.491h13.851V44.64h-13.851v13.85zm-13.851 0h13.851V44.64H512.36v13.85zm-13.851 0h13.851V44.64h-13.851v13.85zm-13.851 0h13.851V44.64h-13.851v13.85zm-41.554 0h13.851V44.64h-13.851v13.85zm-13.851 0h13.851V44.64h-13.851v13.85zm-13.851 0h13.851V44.64h-13.851v13.85zm-13.851 0h13.851V44.64h-13.851v13.85zm-13.851 0h13.851V44.64H387.7v13.85zm-13.851 0H387.7V44.64h-13.851v13.85zm-41.553 0h13.851V44.64h-13.851v13.85zm-13.852 0h13.851V44.64h-13.851v13.85zM526.211 44.64h13.851V30.789h-13.851v13.85zm-13.851 0h13.851V30.789H512.36v13.85z" fill="#fff"/><path opacity=".19" d="M498.509 44.64h13.851V30.789h-13.851v13.85z" fill="#F2F2F2"/><path opacity=".31" d="M484.658 44.64h13.851V30.789h-13.851v13.85zm-41.554 0h13.851V30.789h-13.851v13.85zm-13.851 0h13.851V30.789h-13.851v13.85zm-13.851 0h13.851V30.789h-13.851v13.85zm-13.851 0h13.851V30.789h-13.851v13.85zm-13.851 0h13.851V30.789H387.7v13.85zm-13.851 0H387.7V30.789h-13.851v13.85zm-41.553 0h13.851V30.789h-13.851v13.85zm-13.852 0h13.851V30.789h-13.851v13.85zm207.767-13.851h13.851V16.938h-13.851v13.85zm-27.702 0h13.851V16.938h-13.851v13.85zm-13.851 0h13.851V16.938h-13.851v13.85zm-55.405 0h13.851V16.938h-13.851v13.85zm-13.851 0h13.851V16.938h-13.851v13.85zm-13.851 0h13.851V16.938h-13.851v13.85zm-13.851 0h13.851V16.938H387.7v13.85zm-13.851 0H387.7V16.938h-13.851v13.85zm-41.553 0h13.851V16.938h-13.851v13.85z" fill="#fff"/><path d="M304.593 238.555h13.851v-13.851h-13.851v13.851z" fill="#fff"/><path opacity=".05" d="M290.742 238.555h13.851v-13.851h-13.851v13.851z" fill="#F2F2F2"/><path opacity=".05" d="M276.891 238.555h13.851v-13.851h-13.851v13.851z" fill="#B3B3B3"/><path opacity=".03" d="M263.04 238.555h13.851v-13.851H263.04v13.851z" fill="#F2F2F2"/><path d="M249.189 238.555h13.851v-13.851h-13.851v13.851z" fill="#F2F2F2"/><path opacity=".22" d="M304.593 224.704h13.851v-13.851h-13.851v13.851z" fill="#F2F2F2"/><path opacity=".22" d="M290.742 224.704h13.851v-13.851h-13.851v13.851z" fill="#CCC"/><path opacity=".22" d="M276.891 224.704h13.851v-13.851h-13.851v13.851zm-13.851 0h13.851v-13.851H263.04v13.851zm-13.851 0h13.851v-13.851h-13.851v13.851zm55.404-13.851h13.851v-13.851h-13.851v13.851zm-13.851 0h13.851v-13.851h-13.851v13.851zm-13.851 0h13.851v-13.851h-13.851v13.851zm-13.851 0h13.851v-13.851H263.04v13.851z" fill="#F2F2F2"/><path opacity=".16" d="M249.189 210.853h13.851v-13.851h-13.851v13.851z" fill="gray"/><path opacity=".22" d="M304.593 197.002h13.851v-13.851h-13.851v13.851z" fill="#fff"/><path opacity=".22" d="M290.742 197.002h13.851v-13.851h-13.851v13.851zm-13.851 0h13.851v-13.851h-13.851v13.851z" fill="#F2F2F2"/><path opacity=".22" d="M263.04 197.002h13.851v-13.851H263.04v13.851z" fill="#fff"/><path opacity=".22" d="M304.593 183.151h13.851V169.3h-13.851v13.851z" fill="#F2F2F2"/><path opacity=".22" d="M290.742 183.151h13.851V169.3h-13.851v13.851z" fill="#CCC"/><path opacity=".16" d="M276.891 183.151h13.851V169.3h-13.851v13.851z" fill="#F2F2F2"/><path opacity=".22" d="M263.04 183.151h13.851V169.3H263.04v13.851z" fill="#F2F2F2"/><path opacity=".46" d="M249.189 183.151h13.851V169.3h-13.851v13.851z" fill="#F2F2F2"/><path opacity=".22" d="M304.593 169.3h13.851v-13.851h-13.851V169.3zm-13.851 0h13.851v-13.851h-13.851V169.3zm-13.851 0h13.851v-13.851h-13.851V169.3zm-13.851 0h13.851v-13.851H263.04V169.3zm-13.851 0h13.851v-13.851h-13.851V169.3zm55.404-13.851h13.851v-13.851h-13.851v13.851z" fill="#F2F2F2"/><path opacity=".22" d="M290.742 155.449h13.851v-13.851h-13.851v13.851z" fill="#E6E6E6"/><path opacity=".22" d="M276.891 155.449h13.851v-13.851h-13.851v13.851z" fill="#F2F2F2"/><path opacity=".22" d="M263.04 155.449h13.851v-13.851H263.04v13.851z" fill="#E6E6E6"/><path opacity=".22" d="M249.189 155.449h13.851v-13.851h-13.851v13.851z" fill="#F2F2F2"/><path opacity=".46" d="M304.593 141.598h13.851v-13.851h-13.851v13.851z" fill="#F2F2F2"/><path opacity=".32" d="M290.742 141.598h13.851v-13.851h-13.851v13.851zm-13.851 0h13.851v-13.851h-13.851v13.851zm-13.851 0h13.851v-13.851H263.04v13.851z" fill="#F2F2F2"/><path opacity=".46" d="M249.189 141.598h13.851v-13.851h-13.851v13.851z" fill="#F2F2F2"/><path opacity=".16" d="M304.593 127.747h13.851v-13.852h-13.851v13.852z" fill="#B3B3B3"/><path opacity=".32" d="M290.742 127.747h13.851v-13.852h-13.851v13.852z" fill="#F2F2F2"/><path opacity=".16" d="M276.891 127.747h13.851v-13.852h-13.851v13.852z" fill="#B3B3B3"/><path opacity=".32" d="M263.04 127.747h13.851v-13.852H263.04v13.852z" fill="#F2F2F2"/><path d="M249.189 127.747h13.851v-13.852h-13.851v13.852z" fill="#fff"/><path opacity=".32" d="M304.593 113.895h13.851v-13.851h-13.851v13.851zm-13.851 0h13.851v-13.851h-13.851v13.851zm-27.702 0h13.851v-13.851H263.04v13.851z" fill="#F2F2F2"/><path d="M249.189 113.895h13.851v-13.851h-13.851v13.851z" fill="#F2F2F2"/><path opacity=".03" d="M235.338 238.555h13.851v-13.851h-13.851v13.851z" fill="#B3B3B3"/><path d="M221.487 238.555h13.851v-13.851h-13.851v13.851z" fill="#F2F2F2"/><path opacity=".53" d="M207.635 238.555h13.852v-13.851h-13.852v13.851z" fill="#F2F2F2"/><path opacity=".11" d="M193.784 238.555h13.851v-13.851h-13.851v13.851z" fill="#F2F2F2"/><path d="M179.933 238.555h13.851v-13.851h-13.851v13.851z" fill="#F2F2F2"/><path d="M166.082 238.555h13.851v-13.851h-13.851v13.851z" fill="#fff"/><path d="M152.231 238.555h13.851v-13.851h-13.851v13.851z" fill="#F2F2F2"/><path opacity=".21" d="M138.38 238.555h13.851v-13.851H138.38v13.851zm-13.851 0h13.851v-13.851h-13.851v13.851zm-13.851 0h13.851v-13.851h-13.851v13.851zm-13.851 0h13.851v-13.851H96.827v13.851z" fill="#F2F2F2"/><path opacity=".22" d="M235.338 224.704h13.851v-13.851h-13.851v13.851z" fill="#F2F2F2"/><path opacity=".46" d="M221.487 224.704h13.851v-13.851h-13.851v13.851z" fill="#F2F2F2"/><path d="M193.784 224.704h13.851v-13.851h-13.851v13.851z" fill="#F2F2F2"/><path d="M179.933 224.704h13.851v-13.851h-13.851v13.851z" fill="#fff"/><path opacity=".05" d="M166.082 224.704h13.851v-13.851h-13.851v13.851z" fill="#E6E6E6"/><path opacity=".16" d="M152.231 224.704h13.851v-13.851h-13.851v13.851z" fill="#F2F2F2"/><path opacity=".21" d="M138.38 224.704h13.851v-13.851H138.38v13.851z" fill="#B3B3B3"/><path opacity=".21" d="M124.529 224.704h13.851v-13.851h-13.851v13.851zm-13.851 0h13.851v-13.851h-13.851v13.851z" fill="#F2F2F2"/><path opacity=".22" d="M235.338 210.853h13.851v-13.851h-13.851v13.851z" fill="#F2F2F2"/><path d="M221.487 210.853h13.851v-13.851h-13.851v13.851z" fill="#F2F2F2"/><path d="M207.635 210.853h13.852v-13.851h-13.852v13.851z" fill="#fff"/><path opacity=".05" d="M193.784 210.853h13.851v-13.851h-13.851v13.851z" fill="#F2F2F2"/><path d="M179.933 210.853h13.851v-13.851h-13.851v13.851z" fill="#fff"/><path opacity=".46" d="M166.082 210.853h13.851v-13.851h-13.851v13.851z" fill="#F2F2F2"/><path opacity=".11" d="M152.231 210.853h13.851v-13.851h-13.851v13.851zm-13.851 0h13.851v-13.851H138.38v13.851z" fill="#F2F2F2"/><path opacity=".46" d="M124.529 210.853h13.851v-13.851h-13.851v13.851z" fill="#F2F2F2"/><path d="M110.678 210.853h13.851v-13.851h-13.851v13.851z" fill="#F2F2F2"/><path opacity=".46" d="M96.827 210.853h13.851v-13.851H96.827v13.851z" fill="#F2F2F2"/><path opacity=".22" d="M235.338 197.002h13.851v-13.851h-13.851v13.851z" fill="#F2F2F2"/><path opacity=".46" d="M207.635 197.002h13.852v-13.851h-13.852v13.851z" fill="#F2F2F2"/><path d="M179.933 197.002h13.851v-13.851h-13.851v13.851zm-13.851 0h13.851v-13.851h-13.851v13.851z" fill="#F2F2F2"/><path d="M152.231 197.002h13.851v-13.851h-13.851v13.851z" fill="#fff"/><path opacity=".11" d="M138.38 197.002h13.851v-13.851H138.38v13.851z" fill="#F2F2F2"/><path d="M124.529 197.002h13.851v-13.851h-13.851v13.851z" fill="#F2F2F2"/><path opacity=".21" d="M110.678 197.002h13.851v-13.851h-13.851v13.851z" fill="#F2F2F2"/><path opacity=".22" d="M235.338 183.151h13.851V169.3h-13.851v13.851z" fill="#CCC"/><path opacity=".16" d="M221.487 183.151h13.851V169.3h-13.851v13.851z" fill="#F2F2F2"/><path opacity=".11" d="M207.635 183.151h13.852V169.3h-13.852v13.851z" fill="#F2F2F2"/><path d="M193.784 183.151h13.851V169.3h-13.851v13.851z" fill="#F2F2F2"/><path opacity=".46" d="M179.933 183.151h13.851V169.3h-13.851v13.851z" fill="#F2F2F2"/><path opacity=".27" d="M152.231 183.151h13.851V169.3h-13.851v13.851z" fill="#F2F2F2"/><path d="M124.529 183.151h13.851V169.3h-13.851v13.851z" fill="#fff"/><path opacity=".21" d="M110.678 183.151h13.851V169.3h-13.851v13.851zm-13.851 0h13.851V169.3H96.827v13.851z" fill="#F2F2F2"/><path opacity=".22" d="M235.338 169.3h13.851v-13.851h-13.851V169.3z" fill="#F2F2F2"/><path opacity=".42" d="M221.487 169.3h13.851v-13.851h-13.851V169.3z" fill="#F2F2F2"/><path opacity=".21" d="M207.635 169.3h13.852v-13.851h-13.852V169.3z" fill="#F2F2F2"/><path opacity=".46" d="M179.933 169.3h13.851v-13.851h-13.851V169.3z" fill="#F2F2F2"/><path opacity=".03" d="M166.082 169.3h13.851v-13.851h-13.851V169.3z" fill="#B3B3B3"/><path d="M152.231 169.3h13.851v-13.851h-13.851V169.3z" fill="#F2F2F2"/><path opacity=".21" d="M138.38 169.3h13.851v-13.851H138.38V169.3z" fill="#F2F2F2"/><path opacity=".27" d="M124.529 169.3h13.851v-13.851h-13.851V169.3z" fill="#F2F2F2"/><path d="M110.678 169.3h13.851v-13.851h-13.851V169.3z" fill="#fff"/><path opacity=".22" d="M235.338 155.449h13.851v-13.851h-13.851v13.851z" fill="#fff"/><path d="M221.487 155.449h13.851v-13.851h-13.851v13.851z" fill="#F2F2F2"/><path opacity=".03" d="M207.635 155.449h13.852v-13.851h-13.852v13.851z" fill="#CCC"/><path opacity=".56" d="M193.784 155.449h13.851v-13.851h-13.851v13.851z" fill="#F2F2F2"/><path opacity=".16" d="M179.933 155.449h13.851v-13.851h-13.851v13.851zm-13.851 0h13.851v-13.851h-13.851v13.851z" fill="#F2F2F2"/><path opacity=".21" d="M152.231 155.449h13.851v-13.851h-13.851v13.851z" fill="#F2F2F2"/><path d="M138.38 155.449h13.851v-13.851H138.38v13.851z" fill="#F2F2F2"/><path opacity=".21" d="M124.529 155.449h13.851v-13.851h-13.851v13.851z" fill="#F2F2F2"/><path opacity=".46" d="M110.678 155.449h13.851v-13.851h-13.851v13.851z" fill="#F2F2F2"/><path opacity=".16" d="M235.338 141.598h13.851v-13.851h-13.851v13.851z" fill="#F2F2F2"/><path opacity=".21" d="M221.487 141.598h13.851v-13.851h-13.851v13.851z" fill="#F2F2F2"/><path d="M207.635 141.598h13.852v-13.851h-13.852v13.851z" fill="#F2F2F2"/><path opacity=".27" d="M193.784 141.598h13.851v-13.851h-13.851v13.851z" fill="#F2F2F2"/><path opacity=".21" d="M179.933 141.598h13.851v-13.851h-13.851v13.851zm-13.851 0h13.851v-13.851h-13.851v13.851z" fill="#F2F2F2"/><path d="M152.231 141.598h13.851v-13.851h-13.851v13.851z" fill="#F2F2F2"/><path opacity=".46" d="M138.38 141.598h13.851v-13.851H138.38v13.851z" fill="#F2F2F2"/><path d="M124.529 141.598h13.851v-13.851h-13.851v13.851z" fill="#fff"/><path opacity=".03" d="M235.338 127.747h13.851v-13.852h-13.851v13.852z" fill="#E6E6E6"/><path opacity=".16" d="M207.635 127.747h13.852v-13.852h-13.852v13.852z" fill="#F2F2F2"/><path d="M193.784 127.747h13.851v-13.852h-13.851v13.852z" fill="#fff"/><path d="M179.933 127.747h13.851v-13.852h-13.851v13.852z" fill="#E6E6E6"/><path opacity=".05" d="M166.082 127.747h13.851v-13.852h-13.851v13.852z" fill="#F2F2F2"/><path d="M152.231 127.747h13.851v-13.852h-13.851v13.852z" fill="#fff"/><path d="M138.38 127.747h13.851v-13.852H138.38v13.852z" fill="#F2F2F2"/><path opacity=".05" d="M124.529 127.747h13.851v-13.852h-13.851v13.852z" fill="#F2F2F2"/><path opacity=".56" d="M110.678 127.747h13.851v-13.852h-13.851v13.852z" fill="#F2F2F2"/><path d="M96.827 127.747h13.851v-13.852H96.827v13.852z" fill="#fff"/><path opacity=".23" d="M235.338 113.895h13.851v-13.851h-13.851v13.851z" fill="#F2F2F2"/><path opacity=".03" d="M221.487 113.895h13.851v-13.851h-13.851v13.851z" fill="#F2F2F2"/><path opacity=".27" d="M207.635 113.895h13.852v-13.851h-13.852v13.851z" fill="#F2F2F2"/><path opacity=".05" d="M193.784 113.895h13.851v-13.851h-13.851v13.851z" fill="#F2F2F2"/><path d="M179.933 113.895h13.851v-13.851h-13.851v13.851z" fill="#F2F2F2"/><path opacity=".23" d="M166.082 113.895h13.851v-13.851h-13.851v13.851z" fill="#F2F2F2"/><path opacity=".05" d="M152.231 113.895h13.851v-13.851h-13.851v13.851z" fill="#F2F2F2"/><path opacity=".56" d="M138.38 113.895h13.851v-13.851H138.38v13.851z" fill="#F2F2F2"/><path d="M124.529 113.895h13.851v-13.851h-13.851v13.851z" fill="#F2F2F2"/><path opacity=".42" d="M110.678 113.895h13.851v-13.851h-13.851v13.851z" fill="#F2F2F2"/><path opacity=".05" d="M96.827 113.895h13.851v-13.851H96.827v13.851z" fill="#E6E6E6"/><path opacity=".32" d="M304.593 100.044h13.851v-13.85h-13.851v13.85z" fill="#fff"/><path opacity=".32" d="M290.742 100.044h13.851v-13.85h-13.851v13.85zm-13.851 0h13.851v-13.85h-13.851v13.85z" fill="#F2F2F2"/><path opacity=".32" d="M263.04 100.044h13.851v-13.85H263.04v13.85z" fill="#fff"/><path opacity=".39" d="M249.189 100.044h13.851v-13.85h-13.851v13.85z" fill="#F2F2F2"/><path d="M235.338 100.044h13.851v-13.85h-13.851v13.85zm-13.851 0h13.851v-13.85h-13.851v13.85z" fill="#fff"/><path opacity=".56" d="M207.635 100.044h13.852v-13.85h-13.852v13.85z" fill="#F2F2F2"/><path d="M193.784 100.044h13.851v-13.85h-13.851v13.85z" fill="#fff"/><path opacity=".05" d="M179.933 100.044h13.851v-13.85h-13.851v13.85z" fill="#F2F2F2"/><path opacity=".46" d="M166.082 100.044h13.851v-13.85h-13.851v13.85z" fill="#F2F2F2"/><path d="M152.231 100.044h13.851v-13.85h-13.851v13.85z" fill="#F2F2F2"/><path opacity=".23" d="M138.38 100.044h13.851v-13.85H138.38v13.85z" fill="#CCC"/><path opacity=".05" d="M124.529 100.044h13.851v-13.85h-13.851v13.85zm-13.851 0h13.851v-13.85h-13.851v13.85z" fill="#F2F2F2"/><path opacity=".19" d="M249.189 86.193h13.851v-13.85h-13.851v13.85z" fill="#F2F2F2"/><path opacity=".03" d="M235.338 86.193h13.851v-13.85h-13.851v13.85z" fill="#F2F2F2"/><path opacity=".56" d="M221.487 86.193h13.851v-13.85h-13.851v13.85z" fill="#F2F2F2"/><path opacity=".03" d="M207.635 86.193h13.852v-13.85h-13.852v13.85z" fill="#F2F2F2"/><path opacity=".27" d="M193.784 86.193h13.851v-13.85h-13.851v13.85zm-13.851 0h13.851v-13.85h-13.851v13.85zm-13.851 0h13.851v-13.85h-13.851v13.85z" fill="#F2F2F2"/><path opacity=".05" d="M152.231 86.193h13.851v-13.85h-13.851v13.85zm-13.851 0h13.851v-13.85H138.38v13.85z" fill="#F2F2F2"/><path opacity=".31" d="M235.338 72.342h13.851V58.491h-13.851v13.851z" fill="#F2F2F2"/><path opacity=".03" d="M221.487 72.342h13.851V58.491h-13.851v13.851z" fill="#E6E6E6"/><path opacity=".31" d="M207.635 72.342h13.852V58.491h-13.852v13.851zm-27.702 0h13.851V58.491h-13.851v13.851zm-13.851 0h13.851V58.491h-13.851v13.851zm-27.702 0h13.851V58.491H138.38v13.851zm-13.851 0h13.851V58.491h-13.851v13.851zm110.809-13.851h13.851V44.64h-13.851v13.85zm-96.958 0h13.851V44.64H138.38v13.85zm-13.851 0h13.851V44.64h-13.851v13.85z" fill="#F2F2F2"/><path opacity=".11" d="M235.338 44.64h13.851V30.789h-13.851v13.85z" fill="#F2F2F2"/><path opacity=".31" d="M138.38 44.64h13.851V30.789H138.38v13.85z" fill="#F2F2F2"/><path opacity=".27" d="M95.328 44.64h13.851V30.789h-13.85v13.85z" fill="#CCC"/><path opacity=".31" d="M138.38 30.789h13.851V16.938H138.38v13.85zm-13.851 0h13.851V16.938h-13.851v13.85z" fill="#F2F2F2"/><path d="M304.593 86.193h13.851v-13.85h-13.851v13.85zm-13.851 0h13.851v-13.85h-13.851v13.85zm-13.851 0h13.851v-13.85h-13.851v13.85zm-13.851 0h13.851v-13.85H263.04v13.85z" fill="#fff"/><path opacity=".31" d="M304.593 72.342h13.851V58.491h-13.851v13.851zm-13.851 0h13.851V58.491h-13.851v13.851zm-13.851 0h13.851V58.491h-13.851v13.851zm-13.851 0h13.851V58.491H263.04v13.851z" fill="#fff"/><path opacity=".42" d="M110.678 72.342h13.851V58.491h-13.851v13.851z" fill="#fff"/><path opacity=".31" d="M304.593 58.491h13.851V44.64h-13.851v13.85zm-13.851 0h13.851V44.64h-13.851v13.85zm-13.851 0h13.851V44.64h-13.851v13.85zm-13.851 0h13.851V44.64H263.04v13.85zm-41.553 0h13.851V44.64h-13.851v13.85zm-13.852 0h13.852V44.64h-13.852v13.85zm-13.851 0h13.851V44.64h-13.851v13.85zm-13.851 0h13.851V44.64h-13.851v13.85zm-13.851 0h13.851V44.64h-13.851v13.85zm-13.851 0h13.851V44.64h-13.851v13.85zm-41.553 0h13.851V44.64h-13.851v13.85zm-13.851 0h13.851V44.64H96.827v13.85zM304.593 44.64h13.851V30.789h-13.851v13.85zm-13.851 0h13.851V30.789h-13.851v13.85z" fill="#fff"/><path opacity=".19" d="M276.891 44.64h13.851V30.789h-13.851v13.85z" fill="#F2F2F2"/><path opacity=".31" d="M263.04 44.64h13.851V30.789H263.04v13.85zm-41.553 0h13.851V30.789h-13.851v13.85zm-13.852 0h13.852V30.789h-13.852v13.85zm-13.851 0h13.851V30.789h-13.851v13.85zm-13.851 0h13.851V30.789h-13.851v13.85zm-13.851 0h13.851V30.789h-13.851v13.85zm-13.851 0h13.851V30.789h-13.851v13.85zm-70.754 0h13.851V30.789H81.477v13.85zm-13.851 0h13.851V30.789H67.626v13.85zm236.967-13.851h13.851V16.938h-13.851v13.85zm-27.702 0h13.851V16.938h-13.851v13.85zm-69.256 0h13.852V16.938h-13.852v13.85zm-13.851 0h13.851V16.938h-13.851v13.85zm-13.851 0h13.851V16.938h-13.851v13.85zm-13.851 0h13.851V16.938h-13.851v13.85zm-13.851 0h13.851V16.938h-13.851v13.85zm-41.553 0h13.851V16.938h-13.851v13.85z" fill="#fff"/><path d="M25.362 141.598h13.851v-13.852h-13.85v13.852z" fill="#F2F2F2"/><path opacity=".46" d="M11.511 141.598h13.852v-13.852H11.512v13.852z" fill="#F2F2F2"/><path opacity=".31" d="M46.434 266.258h13.851v-13.852h-13.85v13.852z" fill="#F2F2F2"/><path opacity=".31" d="M32.583 266.258h13.851v-13.852h-13.85v13.852z" fill="#CCC"/><path opacity=".42" d="M7.197 321.662h13.851v-13.851H7.197v13.851zm0-13.851h13.851V293.96H7.197v13.851z" fill="#F2F2F2"/><path d="M21.73 377.066h13.85v-13.851H21.73v13.851zM.612 460.173h13.851v-13.851H.612v13.851zm13.851-13.851h13.851v-13.851h-13.85v13.851z" fill="#F2F2F2"/><path d="M.612 446.322h13.851v-13.851H.612v13.851z" fill="#E6E6E6"/><path d="M.612 432.471h13.851V418.62H.612v13.851z" fill="#F2F2F2"/></svg>