<svg width="29" height="29" viewBox="0 0 29 29" fill="none" xmlns="http://www.w3.org/2000/svg">
<path d="M21.75 4.83325H7.25C5.24797 4.83325 3.625 6.45622 3.625 8.45825V20.5416C3.625 22.5436 5.24797 24.1666 7.25 24.1666H21.75C23.752 24.1666 25.375 22.5436 25.375 20.5416V8.45825C25.375 6.45622 23.752 4.83325 21.75 4.83325Z" stroke="#3D48D7" stroke-width="2" stroke-linecap="round" stroke-linejoin="round"/>
<path d="M10.8749 14.5001C12.2096 14.5001 13.2916 13.4181 13.2916 12.0834C13.2916 10.7487 12.2096 9.66675 10.8749 9.66675C9.54023 9.66675 8.45825 10.7487 8.45825 12.0834C8.45825 13.4181 9.54023 14.5001 10.8749 14.5001Z" stroke="#3D48D7" stroke-width="2" stroke-linecap="round" stroke-linejoin="round"/>
<path d="M18.125 9.66675H20.5417" stroke="#3D48D7" stroke-width="2" stroke-linecap="round" stroke-linejoin="round"/>
<path d="M18.125 14.5H20.5417" stroke="#3D48D7" stroke-width="2" stroke-linecap="round" stroke-linejoin="round"/>
<path d="M8.45825 19.3333H20.5416" stroke="#3D48D7" stroke-width="2" stroke-linecap="round" stroke-linejoin="round"/>
</svg>
