<svg width="29" height="29" viewBox="0 0 29 29" fill="none" xmlns="http://www.w3.org/2000/svg">
<path d="M18.125 21.75C20.127 21.75 21.75 20.127 21.75 18.125C21.75 16.123 20.127 14.5 18.125 14.5C16.123 14.5 14.5 16.123 14.5 18.125C14.5 20.127 16.123 21.75 18.125 21.75Z" stroke="#F47D8C" stroke-width="2" stroke-linecap="round" stroke-linejoin="round"/>
<path d="M15.7084 21.1458V26.5833L18.125 24.7708L20.5417 26.5833V21.1458" stroke="#F47D8C" stroke-width="2" stroke-linecap="round" stroke-linejoin="round"/>
<path d="M12.0833 22.9584H6.04167C5.40073 22.9584 4.78604 22.7038 4.33283 22.2506C3.87961 21.7974 3.625 21.1827 3.625 20.5417V8.45841C3.625 7.12925 4.7125 6.04175 6.04167 6.04175H22.9583C23.5993 6.04175 24.214 6.29636 24.6672 6.74957C25.1204 7.20279 25.375 7.81747 25.375 8.45841V20.5417C25.3746 20.9655 25.2627 21.3818 25.0506 21.7487C24.8385 22.1156 24.5337 22.4203 24.1667 22.6322" stroke="#F47D8C" stroke-width="2" stroke-linecap="round" stroke-linejoin="round"/>
<path d="M7.25 10.875H21.75" stroke="#F47D8C" stroke-width="2" stroke-linecap="round" stroke-linejoin="round"/>
<path d="M7.25 14.5H10.875" stroke="#F47D8C" stroke-width="2" stroke-linecap="round" stroke-linejoin="round"/>
<path d="M7.25 18.125H9.66667" stroke="#F47D8C" stroke-width="2" stroke-linecap="round" stroke-linejoin="round"/>
</svg>
