<svg width="16" height="16" viewBox="0 0 16 16" fill="grey" xmlns="http://www.w3.org/2000/svg" class="icon search-form-icon" data-v-480a5158="" data-v-26b7b063=""><path fill-rule="evenodd" clip-rule="evenodd" d="M2 7C2 9.76142 4.23858 12 7 12C9.76142 12 12 9.76142 12 7C12 4.23858 9.76142 2 7 2C4.23858 2 2 4.23858 2 7ZM7 0C3.13401 0 0 3.13401 0 7C0 10.866 3.13401 14 7 14C10.866 14 14 10.866 14 7C14 3.13401 10.866 0 7 0Z" data-v-480a5158=""></path> <path d="M13 12L12 13L15 16L16 15L13 12Z" data-v-480a5158=""></path></svg>