<svg width="180" height="35" fill="none" xmlns="http://www.w3.org/2000/svg"><path d="M34.478 17.27v-.083c0-.042 0-.125-.043-.167 0-.042 0-.084-.041-.125 0-.042-.043-.083-.043-.125 0-.042-.041-.083-.041-.125 0-.042-.043-.083-.043-.125v-.042c-.041-.083-.082-.167-.125-.25 0 0 0-.042-.041-.042-.043-.083-.125-.167-.168-.25a.493.493 0 00-.209-.208c-.125-.125-.25-.251-.416-.334l-.043-.042a.311.311 0 00-.166-.083c-.043 0-.043-.042-.084-.042-.041-.042-.125-.042-.166-.083-.043 0-.084-.042-.084-.042-.041 0-.125-.042-.166-.042-.043 0-.084 0-.084-.042-.082 0-.125-.042-.209-.042h-.375c-.125 0-.209 0-.334.042a2.248 2.248 0 00-1.129.459s-.041 0-.041.042c-.125.083-.25.209-.377.292-.416.334-.794.626-1.545.668-.752 0-1.127-.334-1.545-.668-.125-.083-.25-.209-.376-.292 0 0-.042 0-.042-.042H26.5s-.042 0-.042-.042l-.042-.041c-.042 0-.042-.042-.083-.042-.042 0-.042-.042-.083-.042-.042 0-.042-.042-.083-.042-.042 0-.042-.042-.083-.042-.042 0-.042-.042-.084-.042s-.042-.042-.083-.042c-.042 0-.083-.042-.125-.042-.042 0-.083 0-.083-.042h-.042c-.042 0-.125 0-.167-.042h-.752c-.042 0-.125 0-.167.042h-.042c-.042 0-.083 0-.083.042-.042 0-.083.042-.125.042-.042 0-.042 0-.083.042-.042 0-.083.042-.083.042-.042 0-.042.042-.084.042s-.042.042-.083.042c-.042 0-.042.042-.083.042-.042 0-.042.042-.083.042l-.042.041s-.042 0-.042.042c0 0-.042 0-.042.042 0 0-.042 0-.042.042-.125.083-.25.208-.376.292-.418.334-.793.626-1.545.668-.751 0-1.127-.334-1.545-.668-.125-.083-.251-.209-.376-.292 0 0-.042 0-.042-.042h-.042s-.042 0-.042-.042l-.042-.042c-.042 0-.042-.041-.084-.041s-.042-.042-.083-.042c-.042 0-.042-.042-.084-.042s-.042-.042-.083-.042c-.042 0-.042-.042-.083-.042-.042 0-.042-.042-.083-.042s-.083-.042-.125-.042c-.042 0-.083 0-.083-.042h-.042c-.042 0-.125 0-.167-.042h-.751c-.042 0-.125 0-.167.042h-.042c-.042 0-.042 0-.083.042-.042 0-.083.042-.125.042-.042 0-.042 0-.083.042-.042 0-.042.042-.084.042s-.042.042-.083.042c-.042 0-.042.042-.083.042-.042 0-.042.042-.083.042-.042 0-.042.041-.084.041l-.042.042s-.042 0-.042.042h-.042s-.042 0-.042.042c-.125.083-.25.208-.375.292-.418.334-.795.626-1.545.668-.752 0-1.127-.334-1.545-.668-.125-.083-.252-.209-.377-.292 0 0-.041 0-.041-.042h-.043s-.041 0-.041-.042l-.041-.042c-.043 0-.043-.041-.084-.041-.041 0-.041-.042-.084-.042-.041 0-.041-.042-.082-.042-.043 0-.043-.042-.084-.042-.041 0-.041-.042-.082-.042-.043 0-.043-.042-.084-.042-.043 0-.084-.042-.125-.042-.043 0-.084 0-.084-.042h-.041c-.043 0-.125 0-.168-.042h-.752c-.043 0-.125 0-.168.042h-.041c-.043 0-.043 0-.084.042-.041 0-.082.042-.125.042-.041 0-.041 0-.082.042-.043 0-.043.042-.084.042-.041 0-.041.042-.084.042-.041 0-.041.042-.082.042-.043 0-.043.042-.084.042-.041 0-.041.041-.082.041l-.043.042s-.041 0-.041.042h-.043s-.041 0-.041.042c-.125.083-.25.208-.377.292-.416.334-.793.626-1.545.668-.054 0-.105-.002-.156-.006l-.001-.016c-.084 0-.166-.006-.244-.015-.498-.095-.807-.362-1.144-.632-.125-.083-.251-.209-.376-.292 0 0-.042 0-.042-.042-.334-.25-.709-.376-1.127-.459a.824.824 0 01-.073-.004l-.084-.02h-.027a.674.674 0 00-.123-.018.876.876 0 00-.186-.023h-.375c-.084 0-.125.041-.209.041-.043 0-.084 0-.084.043-.041 0-.125.041-.167.041-.042 0-.083.043-.083.043-.042.041-.125.041-.167.082-.042 0-.042.043-.083.043a.319.319 0 01-.167.082l-.042.043c-.167.082-.292.209-.418.334-.083.082-.125.166-.208.209-.084.082-.125.166-.167.25 0 0 0 .041-.042.041l-.125.25v.043c0 .041-.042.082-.042.125 0 .041-.042.082-.042.125 0 .041-.042.082-.042.125 0 .041 0 .082-.042.125 0 .041 0 .125-.042.166v.75c0 .083 0 .125.042.208v.084c0 .041.042.125.042.166 0 .043 0 .043.042.084 0 .041.042.084.042.125 0 0 0 .041.042.041v.043c0 .041.042.041.042.082.042.043.042.125.083.168.042.041.042.082.083.125 0 .041.042.041.042.082l.042.043c.042.041.042.082.083.125.042.041.084.082.125.125.042.041.084.084.125.084l.125.125.083.082s.042 0 .042.043h.011c-.012.041-.013.08.013.1a.724.724 0 00.151.053c.054.033.094.064.159.098.042 0 .042.041.083.041.084.043.167.043.25.084.042 0 .042 0 .084.041.084.043.168.043.25.043h.418c.125 0 .209 0 .334-.043h.084c.084 0 .168-.041.25-.041.043 0 .043 0 .084-.043.082-.041.166-.041.25-.082.043 0 .043 0 .084-.043.082-.041.166-.082.209-.125h.084c.041-.041.082-.041.125-.082.166-.125.291-.209.459-.334.405-.324.773-.768 1.485-.83.544.08.867.361 1.22.645.125.125.293.209.418.291.041.043.084.043.125.084h.084a.825.825 0 01.209.125c.041 0 .041 0 .084.041.082.043.166.043.25.084.041 0 .041 0 .082.041a.518.518 0 00.25.043h.084c.125 0 .209.041.334.041.127 0 .209 0 .334-.041h.084c.082 0 .166-.043.25-.043.041 0 .041 0 .084-.041.082-.043.166-.043.25-.084.041 0 .041 0 .082-.041.084-.043.168-.084.209-.125h.084c.043-.043.084-.043.125-.084.168-.082.293-.207.418-.291.418-.334.793-.627 1.545-.668.752 0 1.127.334 1.545.668.125.125.293.209.418.291.041.043.082.043.125.084h.084c.082.041.166.082.209.125.041 0 .041 0 .082.041.084.043.168.043.25.084.043 0 .043 0 .084.041a.51.51 0 00.25.043h.084c.125 0 .209.041.334.041.125 0 .207 0 .334-.041h.082c.084 0 .168-.043.25-.043.043 0 .043 0 .085-.041.083-.043.167-.043.25-.084.042 0 .042 0 .084-.041.083-.043.167-.084.208-.125h.084c.042-.043.083-.043.125-.084.167-.082.292-.207.418-.291.417-.334.793-.627 1.545-.668.752 0 1.127.334 1.545.668.125.125.292.209.417.291.042.043.084.043.125.084h.084c.083.041.167.082.209.125.042 0 .042 0 .083.041.083.043.167.043.25.084.042 0 .042 0 .083.041a.514.514 0 00.25.043h.083c.125 0 .209.041.334.041.126 0 .209 0 .334-.041h.083c.083 0 .167-.043.25-.043.042 0 .042 0 .083-.041.084-.043.167-.043.251-.084.042 0 .042 0 .083-.041.083-.043.167-.084.208-.125h.084c.042-.043.084-.043.125-.084.167-.082.292-.207.417-.291.418-.334.793-.627 1.545-.668.751 0 1.128.334 1.545.668.125.125.292.209.459.334.042.041.083.041.125.084h.084c.083.041.167.082.208.125.042 0 .042 0 .084.041.083.043.167.043.25.084.042 0 .042 0 .083.041a.514.514 0 00.25.043h.083c.125 0 .208.041.334.041h.418c.083 0 .167-.041.25-.041.042 0 .042 0 .083-.043.083-.041.167-.041.25-.082.042 0 .042-.043.083-.043.084-.041.125-.082.209-.125 0 0 .042 0 .042-.041l.042-.043s.042 0 .042-.041c0 0 .042 0 .042-.043.042 0 .042-.041.083-.082l.125-.125.125-.125.125-.125c.042-.043.083-.084.083-.125l.042-.043c0-.041.042-.041.042-.082.042-.043.042-.084.085-.125a.322.322 0 00.082-.168c0-.041.043-.041.043-.082v-.043s0-.041.041-.041c0-.043.043-.084.043-.125 0-.043 0-.043.041-.084 0-.041.043-.125.043-.166v-.083c0-.083.041-.125.041-.209v-.375c-.032.082-.032-.002-.032-.085zm-7.06-5.805c0-.042 0-.042.042-.084 0-.043.042-.125.042-.168v-.082c0-.084.041-.125.041-.209v-.708c0-.042 0-.125-.041-.167 0-.043 0-.084-.042-.125 0-.043-.042-.083-.042-.125 0-.043-.042-.083-.042-.127 0-.041-.042-.082-.042-.125v-.041l-.125-.25s0-.043-.042-.043c-.042-.082-.125-.166-.167-.25a.496.496 0 00-.209-.209c-.125-.125-.25-.25-.417-.334l-.042-.041a.309.309 0 00-.167-.084c-.042 0-.042-.041-.083-.041-.042-.043-.125-.043-.167-.084-.042 0-.083-.043-.083-.043-.042 0-.125-.041-.167-.041-.042 0-.083 0-.083-.043-.084.001-.125-.041-.209-.041h-.375c-.125 0-.209 0-.334.041a2.255 2.255 0 00-1.127.459s-.042 0-.042.043c-.125.084-.25.209-.376.291-.418.334-.793.627-1.545.668-.751 0-1.127-.334-1.545-.668-.125-.082-.251-.207-.376-.291 0 0-.042 0-.042-.043-.334-.25-.71-.375-1.128-.459-.125.001-.209-.041-.334-.041h-.375c-.084 0-.125.041-.209.041-.041 0-.082 0-.082.043-.043 0-.125.041-.168.041-.041 0-.082.043-.082.043-.043.041-.125.041-.168.084-.041 0-.041.041-.082.041a.311.311 0 01-.168.084l-.041.041c-.168.084-.293.209-.418.334-.084.084-.125.168-.209.209a.882.882 0 00-.166.25s0 .043-.043.043l-.125.25v.041c0 .043-.041.084-.041.125 0 .043-.043.084-.043.127 0 .042-.041.082-.041.125 0 .042 0 .084-.043.125 0 .042 0 .125-.041.167v.751c0 .083 0 .125.041.209v.083c0 .042.043.125.043.167 0 .042 0 .042.041.083 0 .042.043.083.043.125 0 0 0 .042.041.042v.042c0 .042.043.042.043.083.041.042.041.125.082.167.043.041.043.083.084.125 0 .042.041.042.041.083l.043.042c.041.042.041.084.084.125l.125.125c.041.042.082.083.125.083l.125.126.082.083s.043 0 .043.042c0 0 .041 0 .041.042l.043.042s.041 0 .041.042c.084.042.125.083.209.125.043 0 .043.042.084.042.082.042.166.042.25.083.041 0 .041 0 .082.042.084.042.168.042.252.042h.416c.125 0 .209 0 .334-.042h.084c.082 0 .166-.042.25-.042.041 0 .041 0 .084-.042.082-.042.167-.042.25-.083.042 0 .042 0 .084-.042.083-.042.167-.083.208-.125h.084c.042-.042.083-.042.125-.083.167-.125.292-.209.459-.334.417-.334.793-.626 1.545-.668.751 0 1.127.334 1.545.668.125.125.293.209.46.334.042.042.083.042.125.083h.084c.083.042.167.083.209.125.042 0 .042 0 .083.042.083.042.167.042.25.083.042 0 .042 0 .083.042a.525.525 0 00.25.042h.083c.125 0 .209.042.334.042h.417c.083 0 .167-.042.25-.042.042 0 .042 0 .084-.042.083-.042.167-.042.25-.083.042 0 .042-.042.083-.042.083-.042.125-.084.208-.125 0 0 .042 0 .042-.042l.042-.042s.042 0 .042-.042c0 0 .042 0 .042-.042.042 0 .042-.042.083-.083l.125-.126.125-.125.125-.125c.042-.042.083-.084.083-.125l.042-.042c0-.042.042-.042.042-.083.042-.042.042-.083.084-.125a.314.314 0 00.083-.167c0-.042.042-.042.042-.083v-.042s0-.042.042-.042c-.08-.042-.08-.084-.039-.125zm-6.933 13.824c0-.043 0-.043.042-.084 0-.041.042-.125.042-.166v-.084c0-.082.042-.125.042-.207v-.711c0-.041 0-.125-.042-.166 0-.043 0-.084-.042-.125 0-.043-.042-.084-.042-.125 0-.041-.043-.084-.043-.125 0-.043-.041-.084-.041-.125v-.043c-.043-.082-.084-.166-.125-.25 0 0 0-.041-.043-.041-.041-.084-.125-.168-.166-.25a.501.501 0 00-.209-.209c-.125-.125-.25-.25-.418-.334l-.041-.041a.311.311 0 00-.168-.084c-.041 0-.041-.043-.082-.043-.043-.041-.125-.041-.168-.082-.041 0-.082-.043-.082-.043-.043 0-.125-.041-.168-.041-.041 0-.082 0-.082-.043-.084 0-.125-.041-.209-.041h-.375c-.125 0-.209 0-.334.041a2.266 2.266 0 00-1.129.459s-.041 0-.041.043c-.125.082-.25.209-.375.291-.418.334-.795.627-1.547.668-.75 0-1.127-.332-1.545-.668-.125-.082-.25-.209-.375-.291 0 0-.043 0-.043-.043-.334-.25-.709-.375-1.127-.459-.125 0-.21-.041-.335-.041h-.375c-.084 0-.125.041-.209.041-.042 0-.084 0-.084.043-.042 0-.125.041-.167.041-.042 0-.083.043-.083.043-.042.041-.125.041-.167.082-.042 0-.042.043-.083.043a.323.323 0 01-.167.084l-.042.041c-.167.084-.292.209-.418.334-.083.084-.125.168-.21.209a.86.86 0 00-.166.25s0 .041-.042.041l-.125.25v.043c0 .041-.042.082-.042.125 0 .041-.042.082-.042.125 0 .041-.042.082-.042.125 0 .041 0 .082-.042.125 0 .041 0 .125-.042.166v.75c0 .084 0 .125.042.209v.084c0 .041.042.125.042.166 0 .043 0 .043.042.084 0 .041.042.082.042.125 0 0 0 .041.042.041v.043c0 .041.042.041.042.082.042.043.042.125.083.168.042.041.042.082.084.125 0 .041.042.041.042.082l.042.043c.042.041.042.082.083.125l.125.125c.042.041.083.082.125.082l.125.125.083.084s.042 0 .042.041c0 0 .042 0 .042.043l.042.041s.042 0 .042.043c.083.041.125.082.208.125.042 0 .042.041.084.041.083.043.167.043.25.084.042 0 .042 0 .083.041.083.043.167.043.25.043h.418c.125 0 .209 0 .334-.043h.083c.083 0 .167-.041.25-.041.042 0 .042 0 .084-.043.083-.041.167-.041.25-.082.042 0 .042 0 .083-.043.083-.041.167-.082.209-.125h.085c.041-.041.082-.041.125-.082.166-.125.291-.209.459-.334.416-.336.793-.627 1.545-.668.75 0 1.127.332 1.545.668.125.125.291.207.459.334.041.041.084.041.125.082h.084c.082.043.166.084.209.125.041 0 .041 0 .082.043.084.041.168.041.25.082.043 0 .043 0 .084.043a.532.532 0 00.25.041h.084c.125 0 .207.043.334.043h.416c.084 0 .168-.043.252-.043.041 0 .041 0 .082-.041.084-.043.168-.043.252-.084.041 0 .041-.041.082-.041.084-.043.125-.084.209-.125 0 0 .043 0 .043-.043l.041-.041s.043 0 .043-.043c0 0 .041 0 .041-.041.043 0 .043-.043.084-.084.041-.041.084-.082.125-.125l.125-.125.125-.125c.041-.041.084-.082.084-.125l.041-.041c0-.041.043-.041.043-.084.041-.041.041-.082.082-.125a.306.306 0 00.084-.166c0-.043.043-.043.043-.084v-.041s0-.043.041-.043c-.078-.041-.078-.082-.037-.123zm-.377-20.005a2.567 2.567 0 01-2.088 1.043 2.7 2.7 0 01-1.293-.334 2.381 2.381 0 01-1.045-1.17 2.443 2.443 0 01-.25-1.085c0-.376.084-.752.25-1.086.168-.417.46-.752.836-1.044.084-.042.168-.125.25-.167.334-.209.793-.334 1.252-.334.836 0 1.588.417 2.047 1.002.125.167.252.375.335.584.125.292.209.626.209 1.002 0 .334-.084.668-.21.96-.041.254-.166.42-.293.629zm-3.632 23.931c.084-.041.168-.125.252-.166a2.565 2.565 0 011.293-.336c.836 0 1.588.42 2.047 1.004.125.166.252.375.335.584.125.293.209.627.209 1.002 0 .334-.084.668-.209.961a2.59 2.59 0 01-.335.584 2.567 2.567 0 01-2.088 1.043c-.459 0-.918-.125-1.295-.334a2.382 2.382 0 01-1.043-1.168 2.426 2.426 0 01-.25-1.086c0-.377.082-.752.25-1.086.209-.375.5-.709.834-1.002zm31.358 1.043c-3.13 0-5.251-2.223-5.251-5.252 0-3.434 2.223-5.252 4.848-5.252 1.615 0 2.523.506 3.433 1.012l1.01-3.536c-1.11-.707-2.726-1.212-4.442-1.212-5.959 0-8.988 3.937-8.988 8.886 0 5.354 3.736 8.887 9.089 8.887a9.823 9.823 0 004.342-1.01l-1.01-3.434c-1.011.708-2.02.911-3.031.911zm6.06-10.199h5.15v13.632h3.937V20.059h5.153v-3.637h-14.24v3.637zm16.763 13.632H81.16v-3.738h-6.565v-3.129h6.565v-3.738h-6.565v-3.027h6.565v-3.637H70.657v17.269zm23.53-9.998l-5.353-7.271h-4.039v17.269h4.039V22.785l4.746 6.565h.607l4.746-6.666v11.007h3.938V16.422h-3.735l-4.949 7.271zm23.328-5.453v-2.02h-3.938v2.02c-4.543.102-7.675 2.525-7.675 6.766 0 4.344 3.029 6.666 7.675 6.768v2.119h3.938v-2.119c4.545 0 7.676-2.424 7.676-6.768-.003-4.24-3.233-6.664-7.676-6.766zm-3.939 9.897c-2.424 0-3.435-1.111-3.435-3.131 0-1.717 1.011-3.029 3.435-3.131v6.262zm3.939 0v-6.262c2.625.102 3.534 1.516 3.534 3.131-.001 2.019-1.01 3.131-3.534 3.131zm18.58-12.017c-5.453 0-9.188 3.939-9.188 8.886 0 5.453 3.938 8.887 9.188 8.887 5.252 0 9.19-3.736 9.19-8.887.001-5.451-3.938-8.886-9.19-8.886zm0 14.138c-2.727 0-4.949-2.223-4.949-5.252 0-3.131 2.121-5.252 4.949-5.252s4.949 2.121 4.949 5.252c.1 2.93-1.615 5.252-4.949 5.252zm17.672-13.935h-5.25v17.269h3.938v-5.859c.607.102 1.516.102 1.919.102 4.04 0 6.362-2.727 6.362-5.756.101-3.03-1.717-5.756-6.969-5.756zm.505 7.876c-.605 0-1.211 0-1.817-.102v-3.939h1.717c1.414 0 2.423.506 2.423 2.021 0 1.514-1.312 2.02-2.323 2.02zm22.218 5.754V16.422h-11.312l-.101 3.433c-.202 5.656-1.817 9.189-2.524 10.098h-1.818v3.738h18.177v-3.738h-2.422zm-3.938 0h-5.656c.606-.807 1.615-3.938 1.817-6.967l.304-2.928h3.535v9.895z" fill="#321F54"/></svg>